/* XPM */
static char * door5_xpm[] = {
"64 64 98 2",
"  	c None",
". 	c #343637",
"+ 	c #4B5355",
"@ 	c #5C6567",
"# 	c #586163",
"$ 	c #BA9533",
"% 	c #A87523",
"& 	c #1F201E",
"* 	c #95551C",
"= 	c #4A3B3F",
"- 	c #3F2924",
"; 	c #9E661F",
"> 	c #37302D",
", 	c #6D7F82",
"' 	c #AB7A26",
") 	c #809CA3",
"! 	c #B89131",
"~ 	c #AE8029",
"{ 	c #B89232",
"] 	c #1F1F1E",
"^ 	c #B1862C",
"/ 	c #20201E",
"( 	c #778E93",
"_ 	c #5B6567",
": 	c #C6AB4B",
"< 	c #212220",
"[ 	c #BB9634",
"} 	c #BA9534",
"| 	c #4A5355",
"1 	c #2D2926",
"2 	c #ACB9BA",
"3 	c #2F2A28",
"4 	c #333A3B",
"5 	c #25282A",
"6 	c #201F1E",
"7 	c #174C0E",
"8 	c #33AE28",
"9 	c #58A13A",
"0 	c #A13A3A",
"a 	c #AC7C27",
"b 	c #B3882D",
"c 	c #4B5254",
"d 	c #62534B",
"e 	c #20211F",
"f 	c #61554F",
"g 	c #62534C",
"h 	c #62544C",
"i 	c #5D6567",
"j 	c #5E6666",
"k 	c #B48A2E",
"l 	c #6E8084",
"m 	c #5E605F",
"n 	c #605A56",
"o 	c #615650",
"p 	c #5C6566",
"q 	c #252421",
"r 	c #5E5F5E",
"s 	c #AF9246",
"t 	c #A98B45",
"u 	c #222220",
"v 	c #636865",
"w 	c #6E6D63",
"x 	c #9D844D",
"y 	c #232220",
"z 	c #A1864A",
"A 	c #5F6666",
"B 	c #686A64",
"C 	c #A57C31",
"D 	c #626765",
"E 	c #81755C",
"F 	c #B48E36",
"G 	c #666964",
"H 	c #988150",
"I 	c #9A824F",
"J 	c #C6AA4B",
"K 	c #B99433",
"L 	c #C5AA4B",
"M 	c #C4A949",
"N 	c #616766",
"O 	c #BD9D3E",
"P 	c #BA9735",
"Q 	c #BE9C3C",
"R 	c #A78A46",
"S 	c #4D4246",
"T 	c #565E5E",
"U 	c #332D2A",
"V 	c #595F61",
"W 	c #545D5F",
"X 	c #6A7B7D",
"Y 	c #B78F30",
"Z 	c #B2882D",
"` 	c #626E70",
" .	c #5C6769",
"..	c #AD7E28",
"+.	c #2A2724",
"@.	c #242321",
"#.	c #20211E",
"$.	c #3F2824",
". + @ @ @ @ @ @ @ @ @ @ @ @ @ @ @ # $ % % % &                                     & % % % % + @ @ @ @ + @ @ @ @ @ @ @ @ @ @ + . ",
". + + + + + + + + + + + + + + + + + % % % % &                                     & * % $ + + + + + + + + + + + + + + + + + + . ",
". + + + + + + + + + + + + + + + + + % % % * &                                     & * % % $ @ + + + + + + + + + + + + + + + + . ",
". + = = = - = - - - - - - - - - + + % % % % &                                     & * % % % + + + + = = = = = = = = = = = - + . ",
". + + + + + + + + + + + + + + = - + % % % * &                                     & * % % % + + + + + + + + + + + + + + + + + . ",
". + + + + + + + + + + + + + + + - + % % % * &                                     & % % % % + + @ + + + + + + + + + + + + + + . ",
". + + + + + + + + + + + + + + + - + % % % * &                                     & ; % % % + + @ + + + + + + + + + + + + + + . ",
". + @ @ @ @ @ @ @ @ @ @ @ @ @ @ = @ $ $ $ % >                                     > % $ $ $ @ @ , @ @ @ @ @ @ @ @ @ @ @ @ @ + . ",
". + + + + + + + + + + + + + + + - + % % % * &                                     & * % % % + + @ + + + + + + + + + + + + + + . ",
". + @ @ @ @ @ @ @ @ @ @ @ @ @ @ + @ $ $ $ % >                                     > ' $ $ $ @ @ , @ @ @ @ @ @ @ @ @ @ @ @ @ + . ",
". + @ @ @ @ @ @ @ @ @ @ @ @ @ @ + @ $ $ $ % &                                     & $ $ $ $ @ @ ) @ @ @ @ @ @ @ @ @ @ @ @ @ + . ",
". + @ @ @ @ @ @ @ @ @ @ @ @ @ @ @ @ $ $ $ % &                                     & ! $ $ $ @ @ , @ @ @ @ @ @ @ @ @ @ @ + @ + . ",
". + @ @ @ @ @ @ , ) ) ) , , , @ @ @ $ $ $ % >                                     > ' $ $ $ @ @ ) @ @ @ @ @ @ @ @ @ @ @ ) + + . ",
". + @ @ @ @ @ , @ @ @ @ @ @ @ @ @ @ $ $ $ % >                                     > ' $ $ $ @ @ ) @ @ @ @ @ @ @ @ @ @ @ @ , + . ",
". + @ @ @ @ , @ @ @ @ @ @ @ @ @ @ @ $ $ $ % >                                     > ' $ $ $ @ @ ) @ @ @ @ @ @ @ @ @ @ @ @ @ + . ",
". + @ @ @ , @ @ @ @ @ @ @ @ @ @ @ @ $ $ $ % &                                     & ~ $ $ $ @ @ ) @ @ @ @ @ @ @ @ @ @ @ @ @ + . ",
". + @ @ , @ @ @ @ @ @ @ @ @ @ @ @ @ $ $ $ % >                                     > { $ $ $ @ @ ) @ @ @ @ @ @ @ @ @ @ @ @ @ + . ",
". + @ , @ @ @ @ @ @ @ @ @ @ @ @ @ @ $ $ $ $ ]                                     ] ^ $ $ $ @ @ ) , @ @ @ @ @ @ @ @ @ @ @ @ + . ",
". + , @ @ @ @ @ @ @ @ @ @ @ @ @ @ @ $ $ $ % /                                     / ' $ $ $ @ @ @ ) ) ) ) ) ) ) ( , , , ) , + . ",
". + @ @ @ @ @ @ @ @ @ @ @ @ @ @ @ @ _ : $ $ <                                     < ' $ [ } @ @ @ @ @ @ @ @ @ @ @ @ @ @ @ @ + . ",
". + @ @ @ @ @ @ @ @ @ @ @ @ @ @ @ | : $ $ % 1                                     1 ' $ $ [ @ @ @ @ @ @ @ @ @ @ @ @ @ @ @ @ + . ",
". + + = + + + + + + + + + + @ @ @ , $ $ $ % >                                     > ' $ $ $ @ @ @ @ + + + + + + + + + + = + + . ",
". + @ @ @ @ @ @ @ @ @ @ @ @ @ + @ @ $ $ $ % >                                     > ' $ $ $ @ @ + @ @ @ @ @ @ @ @ @ @ @ @ @ + . ",
". + @ @ @ @ , 2 2 ) ) ) , , @ @ @ @ $ $ $ % 3                                     3 ' $ $ $ @ @ @ + @ + @ @ @ @ @ @ @ @ @ @ + . ",
". + @ @ @ @ 2 @ @ @ @ @ @ @ + + , @ $ $ $ % 3                                     3 ' $ $ $ @ , + @ + , + @ @ @ @ @ @ @ @ @ + . ",
". + @ @ @ @ 2 @ 4 5 5 6 5 @ + ) @ , $ $ $ % >                                     > ' $ $ $ , @ ) + @ + ) + @ @ @ @ @ @ @ @ + . ",
". + @ @ @ @ ) @ 5 5 7 8 6 @ + @ @ @ $ $ $ % >                                     > ' $ $ $ @ @ @ , + @ @ ) + @ @ @ @ @ @ @ + . ",
". + @ @ @ @ ) @ 5 / / 6 5 @ + @ @ @ $ $ $ % >                                     > ' $ $ $ @ @ @ @ @ + @ @ , @ @ @ @ @ @ @ + . ",
". + @ @ @ @ ) @ @ @ @ @ @ @ = @ @ @ $ $ $ % 3                                     3 ' $ $ $ @ @ @ @ @ @ @ @ @ @ @ @ @ @ @ @ + . ",
". + @ @ @ @ , @ ) _ ) _ 9 @ + @ @ @ $ $ $ $ &                                     & ' $ $ $ @ @ @ @ @ @ @ @ @ @ @ @ @ @ @ @ + . ",
". + @ @ @ @ ) @ @ @ @ @ @ @ = @ @ @ $ $ $ ' &                                     & ' $ $ $ @ @ @ @ @ @ @ @ @ @ @ @ @ @ @ @ + . ",
". + @ @ @ @ , @ ) @ ) @ 0 @ = @ @ @ $ $ $ ' >                                     > ' $ $ $ @ @ @ @ @ @ @ @ @ @ @ @ @ @ @ @ + . ",
". + @ @ @ @ , @ @ @ @ @ @ @ = @ @ @ $ $ $ $ 3                                     3 ' $ $ $ @ @ @ @ @ @ @ @ @ @ @ @ @ @ @ @ + . ",
". + @ @ @ @ @ + + = = = = = + @ @ @ $ $ $ $ 3                                     3 ' $ $ $ @ @ @ @ @ @ @ @ @ @ @ @ @ @ @ @ + . ",
". + @ @ @ @ @ @ @ @ @ @ @ @ + = = = $ $ $ a &                                     & b $ $ $ c + + + @ @ @ @ @ @ @ @ @ @ @ @ + . ",
". + @ @ @ @ @ @ @ @ @ @ @ + = d d + $ $ $ a &                                     & $ $ $ $ @ @ @ @ + @ @ @ @ @ @ @ @ @ @ @ + . ",
". + @ @ @ @ @ @ @ @ @ @ + = d d @ @ $ $ $ a e                                     e ' $ $ $ @ @ @ @ @ + @ @ @ @ @ @ @ @ @ @ + . ",
". + @ @ @ @ @ @ @ @ @ ) = d d @ d @ $ $ $ % &                                     & ' $ $ $ @ @ @ @ @ @ ) @ @ @ @ @ @ @ @ @ + . ",
". + @ @ @ @ @ @ @ @ ) @ = + d d @ @ $ $ $ $ &                                     & ' $ $ $ @ @ @ @ @ @ @ ) @ @ @ @ @ @ @ @ + . ",
". + @ @ @ @ @ @ @ ) @ @ @ f g h i j $ $ $ k >                                     > ' $ $ $ j @ @ @ @ @ @ @ ) @ @ @ @ @ @ @ + . ",
". + @ @ , l ) ) ) @ @ @ @ m d n @ j $ $ $ % >                                     > ' $ $ $ j @ @ @ @ @ @ @ @ ) ) ) l , @ @ + . ",
". + @ ) @ @ @ @ @ @ @ @ @ @ o p @ @ $ $ $ $ >                                     > ' $ $ $ @ @ @ @ @ @ @ @ @ @ @ @ @ @ ) @ + . ",
". + ) @ @ @ @ @ @ @ @ @ @ h @ @ @ @ $ $ $ $ q                                     q ' $ $ $ @ @ @ @ @ @ @ @ @ @ @ @ @ @ @ ) + . ",
". + @ @ @ @ @ @ @ @ @ @ @ r @ @ @ @ @ : s t u                                     u ' $ $ $ @ @ @ @ @ @ @ @ @ @ @ @ @ @ @ @ + . ",
". + @ @ @ @ @ @ @ @ @ @ @ @ @ @ @ @ $ v w x y                                     y ' $ $ $ @ @ @ @ @ @ @ @ @ @ @ @ @ @ @ @ + . ",
". + + @ @ @ @ @ @ @ @ @ @ @ @ @ @ @ z A B C 3                                     3 $ $ $ $ @ @ @ @ @ @ @ @ @ @ @ @ @ @ @ = + . ",
". + @ @ @ @ @ @ @ @ @ @ @ @ @ @ @ @ D E @ F >                                     > $ $ $ $ @ @ @ @ @ @ @ @ @ @ @ @ @ @ = @ + . ",
". + @ @ , @ @ @ @ @ @ @ @ @ @ @ @ @ G H I J >                                     > K $ $ $ @ @ @ @ @ @ @ @ @ @ @ @ @ = @ @ + . ",
". + @ @ , @ @ @ @ @ @ @ @ @ @ @ @ @ L M N O >                                     > b $ $ $ @ @ @ @ @ @ @ @ @ @ @ @ = @ @ @ + . ",
". + , @ , @ @ @ @ @ @ @ @ @ @ @ @ @ P Q R R e                                     e ' $ $ $ @ @ @ @ @ @ @ @ @ @ @ S @ @ @ @ + . ",
". + , @ ) @ @ @ @ @ @ @ @ @ @ @ @ @ $ $ $ % >                                     > ' : @ T @ @ @ @ @ @ @ @ @ @ = @ @ @ @ @ + . ",
". + @ @ ) @ @ @ @ @ @ @ @ @ @ @ @ @ $ $ $ % U                                     U ' $ : + @ @ @ = = = = = = = V @ @ @ @ @ + . ",
". + @ @ ) @ @ @ @ @ @ @ @ @ @ @ @ @ $ $ $ $ q                                     q ' $ $ : + W = + @ @ @ @ @ @ @ @ @ @ @ @ + . ",
". + @ @ ) @ @ @ @ @ @ @ @ @ @ @ @ @ $ $ $ % &                                     & ' $ $ $ , X = @ @ @ @ @ @ @ @ @ @ @ @ @ + . ",
". + @ @ ) @ @ @ @ @ @ @ @ @ @ @ @ @ $ $ $ Y >                                     > Z $ $ $ `  .= @ @ @ @ @ @ @ @ @ @ @ @ @ + . ",
". + @ @ , @ @ @ @ @ @ @ @ @ @ @ @ @ $ $ $ $ >                                     > $ $ $ $ @ @ = @ @ @ @ @ @ @ @ @ @ @ @ @ + . ",
". + @ @ ) @ @ @ @ @ @ @ @ @ @ @ @ @ $ $ $ ..>                                     > ' $ $ $ @ @ + @ @ @ @ @ @ @ @ @ @ @ @ @ + . ",
". + @ @ ) @ @ @ @ @ @ @ @ @ @ @ @ @ $ $ $ ..>                                     > ' $ $ $ @ @ + @ @ @ @ @ @ @ @ @ @ @ @ @ + . ",
". + @ @ ) @ @ @ @ @ @ @ @ @ @ @ @ @ $ $ $ $ +.                                    +.' $ $ $ @ @ + @ @ @ @ @ @ @ @ @ @ @ @ @ + . ",
". + @ , ) @ @ @ @ @ @ @ @ @ @ @ @ @ $ $ $ % @.                                    @.' $ $ $ @ @ @ @ @ @ @ @ @ @ @ @ @ @ @ @ + . ",
". + ) ) @ @ @ @ @ @ @ @ @ @ @ @ @ @ $ $ $ % &                                     & ' $ $ $ @ @ @ @ , , , , , , ) ) ) ) ) ) + . ",
". + @ @ @ @ @ @ @ @ @ @ @ @ @ @ @ @ $ $ $ % &                                     & ' $ $ $ @ @ @ @ @ @ @ @ @ @ @ @ @ @ @ @ + . ",
". + @ @ @ @ @ @ @ @ @ @ @ @ @ @ @ @ $ $ $ a #.                                    #.' $ $ $ @ @ @ @ @ @ @ @ @ @ @ @ @ @ @ @ + . ",
"= - = = = = = = = = = $.- - & / / ] - ] ] / /                                     / / ] ] - ] / = / = = = = = = = = = - - - - = "};
