/* XPM */
static char * door4_xpm[] = {
"64 64 101 2",
"  	c None",
". 	c #343637",
"+ 	c #4B5355",
"@ 	c #5C6567",
"# 	c #586163",
"$ 	c #BA9533",
"% 	c #A87523",
"& 	c #1F201E",
"* 	c #95551C",
"= 	c #4A3B3F",
"- 	c #3F2924",
"; 	c #9E661F",
"> 	c #37302D",
", 	c #6D7F82",
"' 	c #AB7A26",
") 	c #809CA3",
"! 	c #B89131",
"~ 	c #4A3A3E",
"{ 	c #AE8029",
"] 	c #62534B",
"^ 	c #B89232",
"/ 	c #1F1F1E",
"( 	c #B1862C",
"_ 	c #20201E",
": 	c #778E93",
"< 	c #8B6B70",
"[ 	c #5B6567",
"} 	c #C6AB4B",
"| 	c #212220",
"1 	c #BB9634",
"2 	c #BA9534",
"3 	c #615752",
"4 	c #4A5355",
"5 	c #2D2926",
"6 	c #ACB9BA",
"7 	c #2F2A28",
"8 	c #333A3B",
"9 	c #25282A",
"0 	c #201F1E",
"a 	c #174C0E",
"b 	c #33AE28",
"c 	c #58A13A",
"d 	c #A13A3A",
"e 	c #AC7C27",
"f 	c #B3882D",
"g 	c #4B5254",
"h 	c #20211F",
"i 	c #61554F",
"j 	c #62534C",
"k 	c #62544C",
"l 	c #5D6567",
"m 	c #5E6666",
"n 	c #B48A2E",
"o 	c #6E8084",
"p 	c #5E605F",
"q 	c #605A56",
"r 	c #615650",
"s 	c #5C6566",
"t 	c #252421",
"u 	c #5E5F5E",
"v 	c #AF9246",
"w 	c #A98B45",
"x 	c #222220",
"y 	c #636865",
"z 	c #6E6D63",
"A 	c #9D844D",
"B 	c #232220",
"C 	c #A1864A",
"D 	c #5F6666",
"E 	c #686A64",
"F 	c #A57C31",
"G 	c #626765",
"H 	c #81755C",
"I 	c #B48E36",
"J 	c #666964",
"K 	c #988150",
"L 	c #9A824F",
"M 	c #C6AA4B",
"N 	c #B99433",
"O 	c #C5AA4B",
"P 	c #C4A949",
"Q 	c #616766",
"R 	c #BD9D3E",
"S 	c #BA9735",
"T 	c #BE9C3C",
"U 	c #A78A46",
"V 	c #4D4246",
"W 	c #565E5E",
"X 	c #332D2A",
"Y 	c #595F61",
"Z 	c #545D5F",
"` 	c #6A7B7D",
" .	c #B78F30",
"..	c #B2882D",
"+.	c #626E70",
"@.	c #5C6769",
"#.	c #AD7E28",
"$.	c #2A2724",
"%.	c #242321",
"&.	c #20211E",
"*.	c #3F2824",
". + @ @ @ @ @ @ @ @ @ @ @ @ @ @ @ @ @ @ @ @ # $ % % % &                 & % % % % + @ @ @ @ + @ @ @ @ @ @ @ @ @ @ @ @ @ @ @ + . ",
". + + + + + + + + + + + + + + + + + + + + + + % % % % &                 & * % $ + + + + + + + + + + + + + + + + + + + + + + + . ",
". + + + + + + + + + + + + + + + + + + + + + + % % % * &                 & * % % $ @ + + + + + + + + + + + + + + + + + + + + + . ",
". + = - - - = = = = - = - - - - - - - - - + + % % % % &                 & * % % % + + + + = = = = = = = = = = = - = - - - - + . ",
". + + + + + + + + + + + + + + + + + + + = - + % % % * &                 & * % % % + + + + + + + + + + + + + + + + + + + + + + . ",
". + + + + + + + + + + + + + + + + + + + + - + % % % * &                 & % % % % + + @ + + + + + + + + + + + + + + + + + + + . ",
". + + + + + + + + + + + + + + + + + + + + - + % % % * &                 & ; % % % + + @ + + + + + + + + + + + + + + + + + + + . ",
". + @ @ @ @ @ @ @ @ @ @ @ @ @ @ @ @ @ @ @ = @ $ $ $ % >                 > % $ $ $ @ @ , @ @ @ @ @ @ @ @ @ @ @ @ @ @ @ @ @ @ + . ",
". + + + + + + + + + + + + + + + + + + + + - + % % % * &                 & * % % % + + @ + + + + + + + + + + + + + + + + + + + . ",
". + @ @ @ @ @ @ @ @ @ @ @ @ @ @ @ @ @ @ @ + @ $ $ $ % >                 > ' $ $ $ @ @ , @ @ @ @ @ @ @ @ @ @ @ @ @ @ @ @ @ @ + . ",
". + @ @ @ @ @ @ @ @ @ @ @ @ @ @ @ @ @ @ @ + @ $ $ $ % &                 & $ $ $ $ @ @ ) @ @ @ @ @ @ @ @ @ @ @ @ @ @ @ @ @ @ + . ",
". + @ @ @ @ @ @ @ @ @ @ @ @ @ @ @ @ @ @ @ @ @ $ $ $ % &                 & ! $ $ $ @ @ , @ @ @ @ @ @ @ @ @ @ @ + @ @ @ @ @ @ + . ",
". + @ @ @ @ @ @ @ @ @ @ @ , ) ) ) , , , @ @ @ $ $ $ % >                 > ' $ $ $ @ @ ) @ @ @ @ @ @ @ @ @ @ @ ) + @ @ @ @ @ + . ",
". + @ @ @ @ @ @ @ @ @ @ , @ @ @ @ @ @ @ @ @ @ $ $ $ % >                 > ' $ $ $ @ @ ) @ @ @ @ @ @ @ @ @ @ @ @ , ~ @ @ @ @ + . ",
". + @ @ @ @ @ @ @ @ @ , @ @ @ @ @ @ @ @ @ @ @ $ $ $ % >                 > ' $ $ $ @ @ ) @ @ @ @ @ @ @ @ @ @ @ @ @ , = @ @ @ + . ",
". + @ @ @ @ @ @ @ @ , @ @ @ @ @ @ @ @ @ @ @ @ $ $ $ % &                 & { $ $ $ @ @ ) @ @ @ @ @ @ @ @ @ @ @ @ @ @ ] = @ @ + . ",
". + @ @ @ @ @ @ @ , @ @ @ @ @ @ @ @ @ @ @ @ @ $ $ $ % >                 > ^ $ $ $ @ @ ) @ @ @ @ @ @ @ @ @ @ @ @ @ @ ] ] @ @ + . ",
". + @ @ @ @ @ @ , @ @ @ @ @ @ @ @ @ @ @ @ @ @ $ $ $ $ /                 / ( $ $ $ @ @ ) , @ @ @ @ @ @ @ @ @ @ @ @ @ ] ] @ @ + . ",
". + ) ) ) ) ) , @ @ @ @ @ @ @ @ @ @ @ @ @ @ @ $ $ $ % _                 _ ' $ $ $ @ @ @ ) ) ) ) ) ) ) : , , , ) , ) < , , , + . ",
". + @ @ @ @ @ @ @ @ @ @ @ @ @ @ @ @ @ @ @ @ @ [ } $ $ |                 | ' $ 1 2 @ @ @ @ @ @ @ @ @ @ @ @ @ @ @ @ @ @ ] @ @ + . ",
". + @ @ 3 3 @ @ @ @ @ @ @ @ @ @ @ @ @ @ @ @ 4 } $ $ % 5                 5 ' $ $ 1 @ @ @ @ @ @ @ @ @ @ @ @ @ @ @ @ @ ] ] @ @ + . ",
". + = = - - = + = + + + + + + + + + + @ @ @ , $ $ $ % >                 > ' $ $ $ @ @ @ @ + + + + + + + + + + = + = - - = = + . ",
". + @ @ ] ] @ @ @ @ @ @ @ @ @ @ @ @ @ @ + @ @ $ $ $ % >                 > ' $ $ $ @ @ + @ @ @ @ @ @ @ @ @ @ @ @ @ @ ] ] @ @ + . ",
". + @ @ @ ] @ @ @ @ @ , 6 6 ) ) ) , , @ @ @ @ $ $ $ % 7                 7 ' $ $ $ @ @ @ + @ + @ @ @ @ @ @ @ @ @ @ @ ] @ @ @ + . ",
". + @ @ ] @ @ @ @ @ @ 6 @ @ @ @ @ @ @ + + , @ $ $ $ % 7                 7 ' $ $ $ @ , + @ + , + @ @ @ @ @ @ @ @ @ @ @ ] @ @ + . ",
". + @ @ @ ] @ @ @ @ @ 6 @ 8 9 9 0 9 @ + ) @ , $ $ $ % >                 > ' $ $ $ , @ ) + @ + ) + @ @ @ @ @ @ @ @ @ ] @ @ @ + . ",
". + @ @ @ @ @ @ @ @ @ ) @ 9 9 a b 0 @ + @ @ @ $ $ $ % >                 > ' $ $ $ @ @ @ , + @ @ ) + @ @ @ @ @ @ @ @ @ @ @ @ + . ",
". + @ @ @ ] @ @ @ @ @ ) @ 9 _ _ 0 9 @ + @ @ @ $ $ $ % >                 > ' $ $ $ @ @ @ @ @ + @ @ , @ @ @ @ @ @ @ @ ] @ @ @ + . ",
". + @ @ @ @ @ @ @ @ @ ) @ @ @ @ @ @ @ = @ @ @ $ $ $ % 7                 7 ' $ $ $ @ @ @ @ @ @ @ @ @ @ @ @ @ @ @ @ @ @ @ @ @ + . ",
". + @ @ @ @ @ @ @ @ @ , @ ) [ ) [ c @ + @ @ @ $ $ $ $ &                 & ' $ $ $ @ @ @ @ @ @ @ @ @ @ @ @ @ @ @ @ @ @ @ @ @ + . ",
". + @ @ @ @ @ @ @ @ @ ) @ @ @ @ @ @ @ = @ @ @ $ $ $ ' &                 & ' $ $ $ @ @ @ @ @ @ @ @ @ @ @ @ @ @ @ @ @ @ @ @ @ + . ",
". + @ @ @ @ @ @ @ @ @ , @ ) @ ) @ d @ = @ @ @ $ $ $ ' >                 > ' $ $ $ @ @ @ @ @ @ @ @ @ @ @ @ @ @ @ @ @ @ @ @ @ + . ",
". + @ @ @ @ @ @ @ @ @ , @ @ @ @ @ @ @ = @ @ @ $ $ $ $ 7                 7 ' $ $ $ @ @ @ @ @ @ @ @ @ @ @ @ @ @ @ @ @ @ @ @ @ + . ",
". + @ @ @ @ @ @ @ @ @ @ + + = = = = = + @ @ @ $ $ $ $ 7                 7 ' $ $ $ @ @ @ @ @ @ @ @ @ @ @ @ @ @ @ @ @ @ @ @ @ + . ",
". + @ @ @ @ @ @ @ @ @ @ @ @ @ @ @ @ @ + = = = $ $ $ e &                 & f $ $ $ g + + + @ @ @ @ @ @ @ @ @ @ @ @ @ @ @ @ @ + . ",
". + @ @ @ @ @ @ @ @ @ @ @ @ @ @ @ @ + = ] ] + $ $ $ e &                 & $ $ $ $ @ @ @ @ + @ @ @ @ @ @ @ @ @ @ @ @ @ @ @ @ + . ",
". + @ @ @ @ @ @ @ @ @ @ @ @ @ @ @ + = ] ] @ @ $ $ $ e h                 h ' $ $ $ @ @ @ @ @ + @ @ @ @ @ @ @ @ @ @ @ @ @ @ @ + . ",
". + @ @ @ @ @ @ @ @ @ @ @ @ @ @ ) = ] ] @ ] @ $ $ $ % &                 & ' $ $ $ @ @ @ @ @ @ ) @ @ @ @ @ @ @ @ @ @ @ @ @ @ + . ",
". + @ @ @ @ @ @ @ @ @ @ @ @ @ ) @ = + ] ] @ @ $ $ $ $ &                 & ' $ $ $ @ @ @ @ @ @ @ ) @ @ @ @ @ @ @ @ @ @ @ @ @ + . ",
". + @ @ @ @ @ @ @ @ @ @ @ @ ) @ @ @ i j k l m $ $ $ n >                 > ' $ $ $ m @ @ @ @ @ @ @ ) @ @ @ @ @ @ @ @ @ @ @ @ + . ",
". + @ @ @ @ @ @ @ , o ) ) ) @ @ @ @ p ] q @ m $ $ $ % >                 > ' $ $ $ m @ @ @ @ @ @ @ @ ) ) ) o , @ @ @ @ @ @ @ + . ",
". + @ @ @ @ @ @ ) @ @ @ @ @ @ @ @ @ @ r s @ @ $ $ $ $ >                 > ' $ $ $ @ @ @ @ @ @ @ @ @ @ @ @ @ @ ) @ @ @ @ @ @ + . ",
". + , ) ) ) ) ) @ @ @ @ @ @ @ @ @ @ k @ @ @ @ $ $ $ $ t                 t ' $ $ $ @ @ @ @ @ @ @ @ @ @ @ @ @ @ @ ) ) ) ) ) , + . ",
". + @ @ @ @ @ @ @ @ @ @ @ @ @ @ @ @ u @ @ @ @ @ } v w x                 x ' $ $ $ @ @ @ @ @ @ @ @ @ @ @ @ @ @ @ @ @ @ @ @ @ + . ",
". + @ @ @ @ @ @ @ @ @ @ @ @ @ @ @ @ @ @ @ @ @ $ y z A B                 B ' $ $ $ @ @ @ @ @ @ @ @ @ @ @ @ @ @ @ @ @ @ @ @ @ + . ",
". + = = + + + + @ @ @ @ @ @ @ @ @ @ @ @ @ @ @ C D E F 7                 7 $ $ $ $ @ @ @ @ @ @ @ @ @ @ @ @ @ @ @ = = = + + + + . ",
". + @ @ @ @ @ @ @ @ @ @ @ @ @ @ @ @ @ @ @ @ @ G H @ I >                 > $ $ $ $ @ @ @ @ @ @ @ @ @ @ @ @ @ @ = @ @ @ @ @ @ + . ",
". + @ @ @ @ @ @ @ , @ @ @ @ @ @ @ @ @ @ @ @ @ J K L M >                 > N $ $ $ @ @ @ @ @ @ @ @ @ @ @ @ @ = @ @ @ @ @ @ @ + . ",
". + @ @ @ = + @ @ , @ @ @ @ @ @ @ @ @ @ @ @ @ O P Q R >                 > f $ $ $ @ @ @ @ @ @ @ @ @ @ @ @ = @ @ @ @ @ @ @ @ + . ",
". + @ @ = ] @ , @ , @ @ @ @ @ @ @ @ @ @ @ @ @ S T U U h                 h ' $ $ $ @ @ @ @ @ @ @ @ @ @ @ V @ @ @ @ @ @ @ @ @ + . ",
". + @ @ + @ ) , @ ) @ @ @ @ @ @ @ @ @ @ @ @ @ $ $ $ % >                 > ' } @ W @ @ @ @ @ @ @ @ @ @ = @ @ @ @ @ @ @ @ @ @ + . ",
". + @ @ @ , @ @ @ ) @ @ @ @ @ @ @ @ @ @ @ @ @ $ $ $ % X                 X ' $ } + @ @ @ = = = = = = = Y @ @ @ @ @ @ @ @ @ @ + . ",
". + @ @ @ @ @ @ @ ) @ @ @ @ @ @ @ @ @ @ @ @ @ $ $ $ $ t                 t ' $ $ } + Z = + @ @ @ @ @ @ @ @ @ @ @ @ @ @ @ @ @ + . ",
". + @ @ @ @ @ @ @ ) @ @ @ @ @ @ @ @ @ @ @ @ @ $ $ $ % &                 & ' $ $ $ , ` = @ @ @ @ @ @ @ @ @ @ @ @ @ @ @ @ @ @ + . ",
". + @ @ @ @ @ @ @ ) @ @ @ @ @ @ @ @ @ @ @ @ @ $ $ $  .>                 > ..$ $ $ +.@.= @ @ @ @ @ @ @ @ @ @ @ @ @ @ @ @ @ @ + . ",
". + @ @ @ @ @ @ @ , @ @ @ @ @ @ @ @ @ @ @ @ @ $ $ $ $ >                 > $ $ $ $ @ @ = @ @ @ @ @ @ @ @ @ @ @ @ @ @ @ @ @ @ + . ",
". + @ @ @ @ @ @ @ ) @ @ @ @ @ @ @ @ @ @ @ @ @ $ $ $ #.>                 > ' $ $ $ @ @ + @ @ @ @ @ @ @ @ @ @ @ @ @ @ @ @ @ @ + . ",
". + @ @ @ @ @ @ @ ) @ @ @ @ @ @ @ @ @ @ @ @ @ $ $ $ #.>                 > ' $ $ $ @ @ + @ @ @ @ @ @ @ @ @ @ @ @ @ @ @ @ @ @ + . ",
". + @ @ @ @ @ @ @ ) @ @ @ @ @ @ @ @ @ @ @ @ @ $ $ $ $ $.                $.' $ $ $ @ @ + @ @ @ @ @ @ @ @ @ @ @ @ @ @ @ @ @ @ + . ",
". + @ @ @ @ @ @ , ) @ @ @ @ @ @ @ @ @ @ @ @ @ $ $ $ % %.                %.' $ $ $ @ @ @ @ @ @ @ @ @ @ @ @ @ @ @ @ @ @ @ @ @ + . ",
". + , , , ) ) ) ) @ @ @ @ @ @ @ @ @ @ @ @ @ @ $ $ $ % &                 & ' $ $ $ @ @ @ @ , , , , , , ) ) ) ) ) ) ) ) ) ) ) + . ",
". + @ @ @ @ @ @ @ @ @ @ @ @ @ @ @ @ @ @ @ @ @ $ $ $ % &                 & ' $ $ $ @ @ @ @ @ @ @ @ @ @ @ @ @ @ @ @ @ @ @ @ @ + . ",
". + @ @ @ @ @ @ @ @ @ @ @ @ @ @ @ @ @ @ @ @ @ $ $ $ e &.                &.' $ $ $ @ @ @ @ @ @ @ @ @ @ @ @ @ @ @ @ @ @ @ @ @ + . ",
"= - - = - = - = = = = = = = = = *.- - & _ _ / - / / _ _                 _ _ / / - / _ = _ = = = = = = = = = - - - - - = - = - = "};
