/* XPM */
static char * door8_xpm[] = {
"64 64 65 1",
" 	c None",
".	c #343637",
"+	c #4B5355",
"@	c #BA9533",
"#	c #A87523",
"$	c #1F201E",
"%	c #95551C",
"&	c #9E661F",
"*	c #37302D",
"=	c #AB7A26",
"-	c #B89131",
";	c #AE8029",
">	c #B89232",
",	c #1F1F1E",
"'	c #B1862C",
")	c #20201E",
"!	c #5B6567",
"~	c #C6AB4B",
"{	c #212220",
"]	c #BB9634",
"^	c #BA9534",
"/	c #2D2926",
"(	c #2F2A28",
"_	c #AC7C27",
":	c #B3882D",
"<	c #20211F",
"[	c #B48A2E",
"}	c #252421",
"|	c #5C6567",
"1	c #AF9246",
"2	c #A98B45",
"3	c #222220",
"4	c #636865",
"5	c #6E6D63",
"6	c #9D844D",
"7	c #232220",
"8	c #A1864A",
"9	c #5F6666",
"0	c #686A64",
"a	c #A57C31",
"b	c #626765",
"c	c #81755C",
"d	c #B48E36",
"e	c #666964",
"f	c #988150",
"g	c #9A824F",
"h	c #C6AA4B",
"i	c #B99433",
"j	c #C5AA4B",
"k	c #C4A949",
"l	c #616766",
"m	c #BD9D3E",
"n	c #BA9735",
"o	c #BE9C3C",
"p	c #A78A46",
"q	c #565E5E",
"r	c #332D2A",
"s	c #B78F30",
"t	c #B2882D",
"u	c #AD7E28",
"v	c #2A2724",
"w	c #242321",
"x	c #20211E",
"y	c #4A3B3F",
"z	c #3F2924",
".+@###$                                                  $####+.",
".+####$                                                  $%#@++.",
".+###%$                                                  $%##@+.",
".+####$                                                  $%###+.",
".+###%$                                                  $%###+.",
".+###%$                                                  $####+.",
".+###%$                                                  $&###+.",
".+@@@#*                                                  *#@@@+.",
".+###%$                                                  $%###+.",
".+@@@#*                                                  *=@@@+.",
".+@@@#$                                                  $@@@@+.",
".+@@@#$                                                  $-@@@+.",
".+@@@#*                                                  *=@@@+.",
".+@@@#*                                                  *=@@@+.",
".+@@@#*                                                  *=@@@+.",
".+@@@#$                                                  $;@@@+.",
".+@@@#*                                                  *>@@@+.",
".+@@@@,                                                  ,'@@@+.",
".+@@@#)                                                  )=@@@+.",
".+!~@@{                                                  {=@]^+.",
".+~@@#/                                                  /=@@]+.",
".+@@@#*                                                  *=@@@+.",
".+@@@#*                                                  *=@@@+.",
".+@@@#(                                                  (=@@@+.",
".+@@@#(                                                  (=@@@+.",
".+@@@#*                                                  *=@@@+.",
".+@@@#*                                                  *=@@@+.",
".+@@@#*                                                  *=@@@+.",
".+@@@#(                                                  (=@@@+.",
".+@@@@$                                                  $=@@@+.",
".+@@@=$                                                  $=@@@+.",
".+@@@=*                                                  *=@@@+.",
".+@@@@(                                                  (=@@@+.",
".+@@@@(                                                  (=@@@+.",
".+@@@_$                                                  $:@@@+.",
".+@@@_$                                                  $@@@@+.",
".+@@@_<                                                  <=@@@+.",
".+@@@#$                                                  $=@@@+.",
".+@@@@$                                                  $=@@@+.",
".+@@@[*                                                  *=@@@+.",
".+@@@#*                                                  *=@@@+.",
".+@@@@*                                                  *=@@@+.",
".+@@@@}                                                  }=@@@+.",
".+|~123                                                  3=@@@+.",
".+@4567                                                  7=@@@+.",
".+890a(                                                  (@@@@+.",
".+bc|d*                                                  *@@@@+.",
".+efgh*                                                  *i@@@+.",
".+jklm*                                                  *:@@@+.",
".+nopp<                                                  <=@@@+.",
".+@@@#*                                                  *=~|q+.",
".+@@@#r                                                  r=@~++.",
".+@@@@}                                                  }=@@~+.",
".+@@@#$                                                  $=@@@+.",
".+@@@s*                                                  *t@@@+.",
".+@@@@*                                                  *@@@@+.",
".+@@@u*                                                  *=@@@+.",
".+@@@u*                                                  *=@@@+.",
".+@@@@v                                                  v=@@@+.",
".+@@@#w                                                  w=@@@+.",
".+@@@#$                                                  $=@@@+.",
".+@@@#$                                                  $=@@@+.",
".+@@@_x                                                  x=@@@+.",
"yzz,,))                                                  )),,zzy"};
