/* XPM */
static char * door2_xpm[] = {
"64 64 100 2",
"  	c #343637",
". 	c #4B5355",
"+ 	c #5C6567",
"@ 	c #586163",
"# 	c #BA9533",
"$ 	c #A87523",
"% 	c #1F201E",
"& 	c #95551C",
"* 	c #4A3B3F",
"= 	c #3F2924",
"- 	c #9E661F",
"; 	c #6D7F82",
"> 	c #37302D",
", 	c #AB7A26",
"' 	c #809CA3",
") 	c #B89131",
"! 	c #4A3A3E",
"~ 	c #AE8029",
"{ 	c #62534B",
"] 	c #B89232",
"^ 	c #1F1F1E",
"/ 	c #B1862C",
"( 	c #20201E",
"_ 	c #778E93",
": 	c #8B6B70",
"< 	c #5B6567",
"[ 	c #C6AB4B",
"} 	c #212220",
"| 	c #BB9634",
"1 	c #BA9534",
"2 	c #615752",
"3 	c #4A5355",
"4 	c #2D2926",
"5 	c #ACB9BA",
"6 	c #2F2A28",
"7 	c #333A3B",
"8 	c #25282A",
"9 	c #201F1E",
"0 	c #174C0E",
"a 	c #33AE28",
"b 	c #58A13A",
"c 	c #A13A3A",
"d 	c #AC7C27",
"e 	c #B3882D",
"f 	c #4B5254",
"g 	c #20211F",
"h 	c #61554F",
"i 	c #62534C",
"j 	c #62544C",
"k 	c #5D6567",
"l 	c #5E6666",
"m 	c #B48A2E",
"n 	c #6E8084",
"o 	c #5E605F",
"p 	c #605A56",
"q 	c #615650",
"r 	c #5C6566",
"s 	c #252421",
"t 	c #5E5F5E",
"u 	c #AF9246",
"v 	c #A98B45",
"w 	c #222220",
"x 	c #636865",
"y 	c #6E6D63",
"z 	c #9D844D",
"A 	c #232220",
"B 	c #A1864A",
"C 	c #5F6666",
"D 	c #686A64",
"E 	c #A57C31",
"F 	c #626765",
"G 	c #81755C",
"H 	c #B48E36",
"I 	c #666964",
"J 	c #988150",
"K 	c #9A824F",
"L 	c #C6AA4B",
"M 	c #B99433",
"N 	c #C5AA4B",
"O 	c #C4A949",
"P 	c #616766",
"Q 	c #BD9D3E",
"R 	c #BA9735",
"S 	c #BE9C3C",
"T 	c #A78A46",
"U 	c #4D4246",
"V 	c #565E5E",
"W 	c #332D2A",
"X 	c #595F61",
"Y 	c #545D5F",
"Z 	c #6A7B7D",
"` 	c #B78F30",
" .	c #B2882D",
"..	c #626E70",
"+.	c #5C6769",
"@.	c #AD7E28",
"#.	c #2A2724",
"$.	c #242321",
"%.	c #20211E",
"&.	c #3F2824",
"  . . + . + + + + + + + + + + + + + + + + + + + + + @ # $ $ $ % % $ $ $ $ . + + + + . + + + + + + + + + + + + + + + + + + + .   ",
"  . . . . . . . . . . . . . . . . . . . . . . . . . . $ $ $ $ % % & $ # . . . . . . . . . . . . . . . . . . . . . . . . . . .   ",
"  . . . . . . . . . . . . . . . . . . . . . . . . . . $ $ $ & % % & $ $ # + . . . . . . . . . . . . . . . . . . . . . . . . .   ",
"  . . . . * * = = = * * * * = * = = = = = = = = = . . $ $ $ $ % % & $ $ $ . . . . * * * * * * * * * * * = * = = = = = = . . .   ",
"  . . . . . . . . . . . . . . . . . . . . . . . * = . $ $ $ & % % & $ $ $ . . . . . . . . . . . . . . . . . . . . . . * = . .   ",
"  . . + . . . . . . . . . . . . . . . . . . . . . = . $ $ $ & % % $ $ $ $ . . + . . . . . . . . . . . . . . . . . . . . = . .   ",
"  . . + . . . . . . . . . . . . . . . . . . . . . = . $ $ $ & % % - $ $ $ . . + . . . . . . . . . . . . . . . . . . . . = . .   ",
"  . + ; + + + + + + + + + + + + + + + + + + + + + * + # # # $ > > $ # # # + + ; + + + + + + + + + + + + + + + + + + + + * + .   ",
"  . . + . . . . . . . . . . . . . . . . . . . . . = . $ $ $ & % % & $ $ $ . . + . . . . . . . . . . . . . . . . . . . . = . .   ",
"  . + ; + + + + + + + + + + + + + + + + + + + + + . + # # # $ > > , # # # + + ; + + + + + + + + + + + + + + + + + + + + * + .   ",
"  . + ' + + + + + + + + + + + + + + + + + + + + + . + # # # $ % % # # # # + + ' + + + + + + + + + + + + + + + + + + + + * + .   ",
"  . + ; + + + + + + + + + + + + + + + + + + + + + + + # # # $ % % ) # # # + + ; + + + + + + + + + + + . + + + + + + + + * + .   ",
"  . + ' + + + + + + + + + + + + + ; ' ' ' ; ; ; + + + # # # $ > > , # # # + + ' + + + + + + + + + + + ' . + + + + + + + * + .   ",
"  . + ' + + + + + + + + + + + + ; + + + + + + + + + + # # # $ > > , # # # + + ' + + + + + + + + + + + + ; ! + + + + + + * + .   ",
"  . + ' + + + + + + + + + + + ; + + + + + + + + + + + # # # $ > > , # # # + + ' + + + + + + + + + + + + + ; * + + + + + * + .   ",
"  . + ' + + + + + + + + + + ; + + + + + + + + + + + + # # # $ % % ~ # # # + + ' + + + + + + + + + + + + + + { * + + + + . + .   ",
"  . + ' + + + + + + + + + ; + + + + + + + + + + + + + # # # $ > > ] # # # + + ' + + + + + + + + + + + + + + { { + + + + . + .   ",
"  . + ' ; + + + + + + + ; + + + + + + + + + + + + + + # # # # ^ ^ / # # # + + ' ; + + + + + + + + + + + + + { { + + + + + + .   ",
"  . + + ' ' ' ' ' ' ' ; + + + + + + + + + + + + + + + # # # $ ( ( , # # # + + + ' ' ' ' ' ' ' _ ; ; ; ' ; ' : ; ; ; ; + + + .   ",
"  . + + + + + + + + + + + + + + + + + + + + + + + + + < [ # # } } , # | 1 + + + + + + + + + + + + + + + + + + { + + + + + + .   ",
"  . + + + + + + 2 2 + + + + + + + + + + + + + + + + 3 [ # # $ 4 4 , # # | + + + + + + + + + + + + + + + + + { { + + + + + + .   ",
"  . + + * * * * = = * . * . . . . . . . . . . + + + ; # # # $ > > , # # # + + + + . . . . . . . . . . * . * = = * * * * + + .   ",
"  . + * . + + + { { + + + + + + + + + + + + + + . + + # # # $ > > , # # # + + . + + + + + + + + + + + + + + { { + + + . * + .   ",
"  . + * + + + + + { + + + + + ; 5 5 ' ' ' ; ; + + + + # # # $ 6 6 , # # # + + + . + . + + + + + + + + + + + { + + + + + * + .   ",
"  . + * + + + + { + + + + + + 5 + + + + + + + . . ; + # # # $ 6 6 , # # # + ; . + . ; . + + + + + + + + + + + { + + + + * + .   ",
"  . + * + + + + + { + + + + + 5 + 7 8 8 9 8 + . ' + ; # # # $ > > , # # # ; + ' . + . ' . + + + + + + + + + { + + + + + * + .   ",
"  . + . + + + + + + + + + + + ' + 8 8 0 a 9 + . + + + # # # $ > > , # # # + + + ; . + + ' . + + + + + + + + + + + + + + . + .   ",
"  . + * + + + + + { + + + + + ' + 8 ( ( 9 8 + . + + + # # # $ > > , # # # + + + + + . + + ; + + + + + + + + { + + + + + * + .   ",
"  . + . + + + + + + + + + + + ' + + + + + + + * + + + # # # $ 6 6 , # # # + + + + + + + + + + + + + + + + + + + + + + + . + .   ",
"  . + * + + + + + + + + + + + ; + ' < ' < b + . + + + # # # # % % , # # # + + + + + + + + + + + + + + + + + + + + + + + * + .   ",
"  . + . + + + + + + + + + + + ' + + + + + + + * + + + # # # , % % , # # # + + + + + + + + + + + + + + + + + + + + + + + . + .   ",
"  . + * + + + + + + + + + + + ; + ' + ' + c + * + + + # # # , > > , # # # + + + + + + + + + + + + + + + + + + + + + + + * + .   ",
"  . + * + + + + + + + + + + + ; + + + + + + + * + + + # # # # 6 6 , # # # + + + + + + + + + + + + + + + + + + + + + + + * + .   ",
"  . + * + + + + + + + + + + + + . . * * * * * . + + + # # # # 6 6 , # # # + + + + + + + + + + + + + + + + + + + + + + + * + .   ",
"  . + * + + + + + + + + + + + + + + + + + + + . * * * # # # d % % e # # # f . . . + + + + + + + + + + + + + + + + + + + * + .   ",
"  . + * + + + + + + + + + + + + + + + + + + . * { { . # # # d % % # # # # + + + + . + + + + + + + + + + + + + + + + + + * + .   ",
"  . + * + + + + + + + + + + + + + + + + + . * { { + + # # # d g g , # # # + + + + + . + + + + + + + + + + + + + + + + + * + .   ",
"  . + . + + + + + + + + + + + + + + + + ' * { { + { + # # # $ % % , # # # + + + + + + ' + + + + + + + + + + + + + + + + . + .   ",
"  . + * + + + + + + + + + + + + + + + ' + * . { { + + # # # # % % , # # # + + + + + + + ' + + + + + + + + + + + + + + + * + .   ",
"  . + . + + + + + + + + + + + + + + ' + + + h i j k l # # # m > > , # # # l + + + + + + + ' + + + + + + + + + + + + + + . + .   ",
"  . + . + + + + + + + + + ; n ' ' ' + + + + o { p + l # # # $ > > , # # # l + + + + + + + + ' ' ' n ; + + + + + + + + + . + .   ",
"  . + + + + + + + + + + ' + + + + + + + + + + q r + + # # # # > > , # # # + + + + + + + + + + + + + + ' + + + + + + + + + + .   ",
"  . + + + ; ; ' ' ' ' ' + + + + + + + + + + j + + + + # # # # s s , # # # + + + + + + + + + + + + + + + ' ' ' ' ' ; ; + + + .   ",
"  . + + + + + + + + + + + + + + + + + + + + t + + + + + [ u v w w , # # # + + + + + + + + + + + + + + + + + + + + + + + + + .   ",
"  . + + + + + + + + + + + + + + + + + + + + + + + + + # x y z A A , # # # + + + + + + + + + + + + + + + + + + + + + + + + + .   ",
"  . + + * * * * . . . . + + + + + + + + + + + + + + + B C D E 6 6 # # # # + + + + + + + + + + + + + + + * * * . . . . + + + .   ",
"  . + * . + + + + + + + + + + + + + + + + + + + + + + F G + H > > # # # # + + + + + + + + + + + + + + * + + + + + + + + + + .   ",
"  . + * + + + + + + + + + ; + + + + + + + + + + + + + I J K L > > M # # # + + + + + + + + + + + + + * + + + + + + + + + ; + .   ",
"  . + * + + + + + * . + + ; + + + + + + + + + + + + + N O P Q > > e # # # + + + + + + + + + + + + * + + + + + + + + + + ; + .   ",
"  . + * + + + + * { + ; + ; + + + + + + + + + + + + + R S T T g g , # # # + + + + + + + + + + + U + + + + + + + + + + + ; + .   ",
"  . + . + + + + . + ' ; + ' + + + + + + + + + + + + + # # # $ > > , [ + V + + + + + + + + + + * + + + + + + + + + + + + ' + .   ",
"  . + * + + + + + ; + + + ' + + + + + + + + + + + + + # # # $ W W , # [ . + + + * * * * * * * X + + + + + + + + + + + + ; + .   ",
"  . + . + + + + + + + + + ' + + + + + + + + + + + + + # # # # s s , # # [ . Y * . + + + + + + + + + + + + + + + + + + + ' + .   ",
"  . + . + + + + + + + + + ' + + + + + + + + + + + + + # # # $ % % , # # # ; Z * + + + + + + + + + + + + + + + + + + + + ' + .   ",
"  . + . + + + + + + + + + ' + + + + + + + + + + + + + # # # ` > >  .# # # ..+.* + + + + + + + + + + + + + + + + + + + + ' + .   ",
"  . + * + + + + + + + + + ; + + + + + + + + + + + + + # # # # > > # # # # + + * + + + + + + + + + + + + + + + + + + + + ' + .   ",
"  . + . + + + + + + + + + ' + + + + + + + + + + + + + # # # @.> > , # # # + + . + + + + + + + + + + + + + + + + + + + + ' + .   ",
"  . + . + + + + + + + + + ' + + + + + + + + + + + + + # # # @.> > , # # # + + . + + + + + + + + + + + + + + + + + + + + ' + .   ",
"  . + . + + + + + + + + + ' + + + + + + + + + + + + + # # # # #.#., # # # + + . + + + + + + + + + + + + + + + + + + + + ' + .   ",
"  . + + + + + + + + + + ; ' + + + + + + + + + + + + + # # # $ $.$., # # # + + + + + + + + + + + + + + + + + + + + + + ; ' + .   ",
"  . + + + ; ; ; ; ' ' ' ' + + + + + + + + + + + + + + # # # $ % % , # # # + + + + ; ; ; ; ; ; ' ' ' ' ' ' ' ' ' ' ' ' ' + + .   ",
"  . + + + + + + + + + + + + + + + + + + + + + + + + + # # # $ % % , # # # + + + + + + + + + + + + + + + + + + + + + + + + + .   ",
"  . + + + + + + + + + + + + + + + + + + + + + + + + + # # # d %.%., # # # + + + + + + + + + + + + + + + + + + + + + + + + + .   ",
"* = = = = = = * = * = * * * * * * * * * &.= = % ( ( ^ = ^ ^ ( ( ( ( ^ ^ = ^ ( * ( * * * * * * * * * = = = = = * = * = * * * = * "};
