/* XPM */
static char * door6_xpm[] = {
"64 64 96 2",
"  	c None",
". 	c #343637",
"+ 	c #4B5355",
"@ 	c #5C6567",
"# 	c #586163",
"$ 	c #BA9533",
"% 	c #A87523",
"& 	c #1F201E",
"* 	c #95551C",
"= 	c #3F2924",
"- 	c #4A3B3F",
"; 	c #9E661F",
"> 	c #37302D",
", 	c #6D7F82",
"' 	c #AB7A26",
") 	c #809CA3",
"! 	c #B89131",
"~ 	c #AE8029",
"{ 	c #B89232",
"] 	c #1F1F1E",
"^ 	c #B1862C",
"/ 	c #20201E",
"( 	c #778E93",
"_ 	c #5B6567",
": 	c #C6AB4B",
"< 	c #212220",
"[ 	c #BB9634",
"} 	c #BA9534",
"| 	c #4A5355",
"1 	c #2D2926",
"2 	c #ACB9BA",
"3 	c #2F2A28",
"4 	c #333A3B",
"5 	c #25282A",
"6 	c #201F1E",
"7 	c #174C0E",
"8 	c #33AE28",
"9 	c #58A13A",
"0 	c #A13A3A",
"a 	c #AC7C27",
"b 	c #B3882D",
"c 	c #4B5254",
"d 	c #62534B",
"e 	c #20211F",
"f 	c #61554F",
"g 	c #62534C",
"h 	c #62544C",
"i 	c #5D6567",
"j 	c #5E6666",
"k 	c #B48A2E",
"l 	c #5E605F",
"m 	c #605A56",
"n 	c #615650",
"o 	c #5C6566",
"p 	c #252421",
"q 	c #5E5F5E",
"r 	c #AF9246",
"s 	c #A98B45",
"t 	c #222220",
"u 	c #636865",
"v 	c #6E6D63",
"w 	c #9D844D",
"x 	c #232220",
"y 	c #A1864A",
"z 	c #5F6666",
"A 	c #686A64",
"B 	c #A57C31",
"C 	c #626765",
"D 	c #81755C",
"E 	c #B48E36",
"F 	c #666964",
"G 	c #988150",
"H 	c #9A824F",
"I 	c #C6AA4B",
"J 	c #B99433",
"K 	c #C5AA4B",
"L 	c #C4A949",
"M 	c #616766",
"N 	c #BD9D3E",
"O 	c #BA9735",
"P 	c #BE9C3C",
"Q 	c #A78A46",
"R 	c #565E5E",
"S 	c #332D2A",
"T 	c #595F61",
"U 	c #545D5F",
"V 	c #6A7B7D",
"W 	c #B78F30",
"X 	c #B2882D",
"Y 	c #626E70",
"Z 	c #5C6769",
"` 	c #AD7E28",
" .	c #2A2724",
"..	c #242321",
"+.	c #20211E",
"@.	c #3F2824",
". + @ @ @ @ @ @ @ @ @ @ # $ % % % &                                                         & % % % % + @ @ @ @ + @ @ @ @ @ + . ",
". + + + + + + + + + + + + % % % % &                                                         & * % $ + + + + + + + + + + + + + . ",
". + + + + + + + + + + + + % % % * &                                                         & * % % $ @ + + + + + + + + + + + . ",
". + = = = = = = = = = + + % % % % &                                                         & * % % % + + + + - - - - - - - + . ",
". + + + + + + + + + - = + % % % * &                                                         & * % % % + + + + + + + + + + + + . ",
". + + + + + + + + + + = + % % % * &                                                         & % % % % + + @ + + + + + + + + + . ",
". + + + + + + + + + + = + % % % * &                                                         & ; % % % + + @ + + + + + + + + + . ",
". + @ @ @ @ @ @ @ @ @ - @ $ $ $ % >                                                         > % $ $ $ @ @ , @ @ @ @ @ @ @ @ + . ",
". + + + + + + + + + + = + % % % * &                                                         & * % % % + + @ + + + + + + + + + . ",
". + @ @ @ @ @ @ @ @ @ + @ $ $ $ % >                                                         > ' $ $ $ @ @ , @ @ @ @ @ @ @ @ + . ",
". + @ @ @ @ @ @ @ @ @ + @ $ $ $ % &                                                         & $ $ $ $ @ @ ) @ @ @ @ @ @ @ @ + . ",
". + @ @ @ @ @ @ @ @ @ @ @ $ $ $ % &                                                         & ! $ $ $ @ @ , @ @ @ @ @ @ @ @ + . ",
". + @ , ) ) ) , , , @ @ @ $ $ $ % >                                                         > ' $ $ $ @ @ ) @ @ @ @ @ @ @ @ + . ",
". + , @ @ @ @ @ @ @ @ @ @ $ $ $ % >                                                         > ' $ $ $ @ @ ) @ @ @ @ @ @ @ @ + . ",
". + @ @ @ @ @ @ @ @ @ @ @ $ $ $ % >                                                         > ' $ $ $ @ @ ) @ @ @ @ @ @ @ @ + . ",
". + @ @ @ @ @ @ @ @ @ @ @ $ $ $ % &                                                         & ~ $ $ $ @ @ ) @ @ @ @ @ @ @ @ + . ",
". + @ @ @ @ @ @ @ @ @ @ @ $ $ $ % >                                                         > { $ $ $ @ @ ) @ @ @ @ @ @ @ @ + . ",
". + @ @ @ @ @ @ @ @ @ @ @ $ $ $ $ ]                                                         ] ^ $ $ $ @ @ ) , @ @ @ @ @ @ @ + . ",
". + @ @ @ @ @ @ @ @ @ @ @ $ $ $ % /                                                         / ' $ $ $ @ @ @ ) ) ) ) ) ) ) ( + . ",
". + @ @ @ @ @ @ @ @ @ @ @ _ : $ $ <                                                         < ' $ [ } @ @ @ @ @ @ @ @ @ @ @ + . ",
". + @ @ @ @ @ @ @ @ @ @ | : $ $ % 1                                                         1 ' $ $ [ @ @ @ @ @ @ @ @ @ @ @ + . ",
". + + + + + + + + @ @ @ , $ $ $ % >                                                         > ' $ $ $ @ @ @ @ + + + + + + + + . ",
". + @ @ @ @ @ @ @ @ + @ @ $ $ $ % >                                                         > ' $ $ $ @ @ + @ @ @ @ @ @ @ @ + . ",
". + 2 2 ) ) ) , , @ @ @ @ $ $ $ % 3                                                         3 ' $ $ $ @ @ @ + @ + @ @ @ @ @ + . ",
". + @ @ @ @ @ @ @ + + , @ $ $ $ % 3                                                         3 ' $ $ $ @ , + @ + , + @ @ @ @ + . ",
". + @ 4 5 5 6 5 @ + ) @ , $ $ $ % >                                                         > ' $ $ $ , @ ) + @ + ) + @ @ @ + . ",
". + @ 5 5 7 8 6 @ + @ @ @ $ $ $ % >                                                         > ' $ $ $ @ @ @ , + @ @ ) + @ @ + . ",
". + @ 5 / / 6 5 @ + @ @ @ $ $ $ % >                                                         > ' $ $ $ @ @ @ @ @ + @ @ , @ @ + . ",
". + @ @ @ @ @ @ @ - @ @ @ $ $ $ % 3                                                         3 ' $ $ $ @ @ @ @ @ @ @ @ @ @ @ + . ",
". + @ ) _ ) _ 9 @ + @ @ @ $ $ $ $ &                                                         & ' $ $ $ @ @ @ @ @ @ @ @ @ @ @ + . ",
". + @ @ @ @ @ @ @ - @ @ @ $ $ $ ' &                                                         & ' $ $ $ @ @ @ @ @ @ @ @ @ @ @ + . ",
". + @ ) @ ) @ 0 @ - @ @ @ $ $ $ ' >                                                         > ' $ $ $ @ @ @ @ @ @ @ @ @ @ @ + . ",
". + @ @ @ @ @ @ @ - @ @ @ $ $ $ $ 3                                                         3 ' $ $ $ @ @ @ @ @ @ @ @ @ @ @ + . ",
". + + + - - - - - + @ @ @ $ $ $ $ 3                                                         3 ' $ $ $ @ @ @ @ @ @ @ @ @ @ @ + . ",
". + @ @ @ @ @ @ @ + - - - $ $ $ a &                                                         & b $ $ $ c + + + @ @ @ @ @ @ @ + . ",
". + @ @ @ @ @ @ + - d d + $ $ $ a &                                                         & $ $ $ $ @ @ @ @ + @ @ @ @ @ @ + . ",
". + @ @ @ @ @ + - d d @ @ $ $ $ a e                                                         e ' $ $ $ @ @ @ @ @ + @ @ @ @ @ + . ",
". + @ @ @ @ ) - d d @ d @ $ $ $ % &                                                         & ' $ $ $ @ @ @ @ @ @ ) @ @ @ @ + . ",
". + @ @ @ ) @ - + d d @ @ $ $ $ $ &                                                         & ' $ $ $ @ @ @ @ @ @ @ ) @ @ @ + . ",
". + @ @ ) @ @ @ f g h i j $ $ $ k >                                                         > ' $ $ $ j @ @ @ @ @ @ @ ) @ @ + . ",
". + ) ) @ @ @ @ l d m @ j $ $ $ % >                                                         > ' $ $ $ j @ @ @ @ @ @ @ @ ) ) + . ",
". + @ @ @ @ @ @ @ n o @ @ $ $ $ $ >                                                         > ' $ $ $ @ @ @ @ @ @ @ @ @ @ @ + . ",
". + @ @ @ @ @ @ h @ @ @ @ $ $ $ $ p                                                         p ' $ $ $ @ @ @ @ @ @ @ @ @ @ @ + . ",
". + @ @ @ @ @ @ q @ @ @ @ @ : r s t                                                         t ' $ $ $ @ @ @ @ @ @ @ @ @ @ @ + . ",
". + @ @ @ @ @ @ @ @ @ @ @ $ u v w x                                                         x ' $ $ $ @ @ @ @ @ @ @ @ @ @ @ + . ",
". + @ @ @ @ @ @ @ @ @ @ @ y z A B 3                                                         3 $ $ $ $ @ @ @ @ @ @ @ @ @ @ @ + . ",
". + @ @ @ @ @ @ @ @ @ @ @ C D @ E >                                                         > $ $ $ $ @ @ @ @ @ @ @ @ @ @ @ + . ",
". + @ @ @ @ @ @ @ @ @ @ @ F G H I >                                                         > J $ $ $ @ @ @ @ @ @ @ @ @ @ @ + . ",
". + @ @ @ @ @ @ @ @ @ @ @ K L M N >                                                         > b $ $ $ @ @ @ @ @ @ @ @ @ @ @ + . ",
". + @ @ @ @ @ @ @ @ @ @ @ O P Q Q e                                                         e ' $ $ $ @ @ @ @ @ @ @ @ @ @ @ + . ",
". + @ @ @ @ @ @ @ @ @ @ @ $ $ $ % >                                                         > ' : @ R @ @ @ @ @ @ @ @ @ @ - + . ",
". + @ @ @ @ @ @ @ @ @ @ @ $ $ $ % S                                                         S ' $ : + @ @ @ - - - - - - - T + . ",
". + @ @ @ @ @ @ @ @ @ @ @ $ $ $ $ p                                                         p ' $ $ : + U - + @ @ @ @ @ @ @ + . ",
". + @ @ @ @ @ @ @ @ @ @ @ $ $ $ % &                                                         & ' $ $ $ , V - @ @ @ @ @ @ @ @ + . ",
". + @ @ @ @ @ @ @ @ @ @ @ $ $ $ W >                                                         > X $ $ $ Y Z - @ @ @ @ @ @ @ @ + . ",
". + @ @ @ @ @ @ @ @ @ @ @ $ $ $ $ >                                                         > $ $ $ $ @ @ - @ @ @ @ @ @ @ @ + . ",
". + @ @ @ @ @ @ @ @ @ @ @ $ $ $ ` >                                                         > ' $ $ $ @ @ + @ @ @ @ @ @ @ @ + . ",
". + @ @ @ @ @ @ @ @ @ @ @ $ $ $ ` >                                                         > ' $ $ $ @ @ + @ @ @ @ @ @ @ @ + . ",
". + @ @ @ @ @ @ @ @ @ @ @ $ $ $ $  .                                                         .' $ $ $ @ @ + @ @ @ @ @ @ @ @ + . ",
". + @ @ @ @ @ @ @ @ @ @ @ $ $ $ % ..                                                        ..' $ $ $ @ @ @ @ @ @ @ @ @ @ @ + . ",
". + @ @ @ @ @ @ @ @ @ @ @ $ $ $ % &                                                         & ' $ $ $ @ @ @ @ , , , , , , ) + . ",
". + @ @ @ @ @ @ @ @ @ @ @ $ $ $ % &                                                         & ' $ $ $ @ @ @ @ @ @ @ @ @ @ @ + . ",
". + @ @ @ @ @ @ @ @ @ @ @ $ $ $ a +.                                                        +.' $ $ $ @ @ @ @ @ @ @ @ @ @ @ + . ",
"- = - - - - @.= = & / / ] = ] ] / /                                                         / / ] ] = ] / - / - - - - - - - = - "};
