/* XPM */
static char * door7_xpm[] = {
"64 64 89 1",
" 	c None",
".	c #343637",
"+	c #4B5355",
"@	c #5C6567",
"#	c #586163",
"$	c #BA9533",
"%	c #A87523",
"&	c #1F201E",
"*	c #95551C",
"=	c #3F2924",
"-	c #4A3B3F",
";	c #9E661F",
">	c #37302D",
",	c #6D7F82",
"'	c #AB7A26",
")	c #809CA3",
"!	c #B89131",
"~	c #AE8029",
"{	c #B89232",
"]	c #1F1F1E",
"^	c #B1862C",
"/	c #20201E",
"(	c #5B6567",
"_	c #C6AB4B",
":	c #212220",
"<	c #BB9634",
"[	c #BA9534",
"}	c #4A5355",
"|	c #2D2926",
"1	c #2F2A28",
"2	c #25282A",
"3	c #201F1E",
"4	c #58A13A",
"5	c #A13A3A",
"6	c #AC7C27",
"7	c #B3882D",
"8	c #4B5254",
"9	c #62534B",
"0	c #20211F",
"a	c #61554F",
"b	c #62534C",
"c	c #62544C",
"d	c #5D6567",
"e	c #5E6666",
"f	c #B48A2E",
"g	c #5E605F",
"h	c #605A56",
"i	c #615650",
"j	c #5C6566",
"k	c #252421",
"l	c #5E5F5E",
"m	c #AF9246",
"n	c #A98B45",
"o	c #222220",
"p	c #636865",
"q	c #6E6D63",
"r	c #9D844D",
"s	c #232220",
"t	c #A1864A",
"u	c #5F6666",
"v	c #686A64",
"w	c #A57C31",
"x	c #626765",
"y	c #81755C",
"z	c #B48E36",
"A	c #666964",
"B	c #988150",
"C	c #9A824F",
"D	c #C6AA4B",
"E	c #B99433",
"F	c #C5AA4B",
"G	c #C4A949",
"H	c #616766",
"I	c #BD9D3E",
"J	c #BA9735",
"K	c #BE9C3C",
"L	c #A78A46",
"M	c #565E5E",
"N	c #332D2A",
"O	c #545D5F",
"P	c #6A7B7D",
"Q	c #B78F30",
"R	c #B2882D",
"S	c #626E70",
"T	c #5C6769",
"U	c #AD7E28",
"V	c #2A2724",
"W	c #242321",
"X	c #20211E",
".+@@@@@#$%%%&                                      &%%%%+@@@@++.",
".+++++++%%%%&                                      &*%$++++++++.",
".+++++++%%%*&                                      &*%%$@++++++.",
".+====++%%%%&                                      &*%%%++++--+.",
".++++-=+%%%*&                                      &*%%%+++++++.",
".+++++=+%%%*&                                      &%%%%++@++++.",
".+++++=+%%%*&                                      &;%%%++@++++.",
".+@@@@-@$$$%>                                      >%$$$@@,@@@+.",
".+++++=+%%%*&                                      &*%%%++@++++.",
".+@@@@+@$$$%>                                      >'$$$@@,@@@+.",
".+@@@@+@$$$%&                                      &$$$$@@)@@@+.",
".+@@@@@@$$$%&                                      &!$$$@@,@@@+.",
".+,,,@@@$$$%>                                      >'$$$@@)@@@+.",
".+@@@@@@$$$%>                                      >'$$$@@)@@@+.",
".+@@@@@@$$$%>                                      >'$$$@@)@@@+.",
".+@@@@@@$$$%&                                      &~$$$@@)@@@+.",
".+@@@@@@$$$%>                                      >{$$$@@)@@@+.",
".+@@@@@@$$$$]                                      ]^$$$@@),@@+.",
".+@@@@@@$$$%/                                      /'$$$@@@)))+.",
".+@@@@@@(_$$:                                      :'$<[@@@@@@+.",
".+@@@@@}_$$%|                                      |'$$<@@@@@@+.",
".+++@@@,$$$%>                                      >'$$$@@@@+++.",
".+@@@+@@$$$%>                                      >'$$$@@+@@@+.",
".+,,@@@@$$$%1                                      1'$$$@@@+@++.",
".+@@++,@$$$%1                                      1'$$$@,+@+,+.",
".+2@+)@,$$$%>                                      >'$$$,@)+@++.",
".+3@+@@@$$$%>                                      >'$$$@@@,+@+.",
".+2@+@@@$$$%>                                      >'$$$@@@@@++.",
".+@@-@@@$$$%1                                      1'$$$@@@@@@+.",
".+4@+@@@$$$$&                                      &'$$$@@@@@@+.",
".+@@-@@@$$$'&                                      &'$$$@@@@@@+.",
".+5@-@@@$$$'>                                      >'$$$@@@@@@+.",
".+@@-@@@$$$$1                                      1'$$$@@@@@@+.",
".+--+@@@$$$$1                                      1'$$$@@@@@@+.",
".+@@+---$$$6&                                      &7$$$8+++@@+.",
".+@+-99+$$$6&                                      &$$$$@@@@+@+.",
".++-99@@$$$60                                      0'$$$@@@@@++.",
".+-99@9@$$$%&                                      &'$$$@@@@@@+.",
".+-+99@@$$$$&                                      &'$$$@@@@@@+.",
".+@abcde$$$f>                                      >'$$$e@@@@@+.",
".+@g9h@e$$$%>                                      >'$$$e@@@@@+.",
".+@@ij@@$$$$>                                      >'$$$@@@@@@+.",
".+@c@@@@$$$$k                                      k'$$$@@@@@@+.",
".+@l@@@@@_mno                                      o'$$$@@@@@@+.",
".+@@@@@@$pqrs                                      s'$$$@@@@@@+.",
".+@@@@@@tuvw1                                      1$$$$@@@@@@+.",
".+@@@@@@xy@z>                                      >$$$$@@@@@@+.",
".+@@@@@@ABCD>                                      >E$$$@@@@@@+.",
".+@@@@@@FGHI>                                      >7$$$@@@@@@+.",
".+@@@@@@JKLL0                                      0'$$$@@@@@@+.",
".+@@@@@@$$$%>                                      >'_@M@@@@@@+.",
".+@@@@@@$$$%N                                      N'$_+@@@---+.",
".+@@@@@@$$$$k                                      k'$$_+O-+@@+.",
".+@@@@@@$$$%&                                      &'$$$,P-@@@+.",
".+@@@@@@$$$Q>                                      >R$$$ST-@@@+.",
".+@@@@@@$$$$>                                      >$$$$@@-@@@+.",
".+@@@@@@$$$U>                                      >'$$$@@+@@@+.",
".+@@@@@@$$$U>                                      >'$$$@@+@@@+.",
".+@@@@@@$$$$V                                      V'$$$@@+@@@+.",
".+@@@@@@$$$%W                                      W'$$$@@@@@@+.",
".+@@@@@@$$$%&                                      &'$$$@@@@,,+.",
".+@@@@@@$$$%&                                      &'$$$@@@@@@+.",
".+@@@@@@$$$6X                                      X'$$$@@@@@@+.",
"-===&//]=]]//                                      //]]=]/-/--=-"};
