/* XPM */
static char * EA10_xpm[] = {
"64 64 61 1",
" 	c #5C6567",
".	c #4B5355",
"+	c #4A3B3F",
"@	c #3F2924",
"#	c #3F2923",
"$	c #6D7F82",
"%	c #3F2823",
"&	c #809CA3",
"*	c #3B2C31",
"=	c #3A3331",
"-	c #252524",
";	c #21211F",
">	c #232321",
",	c #222220",
"'	c #20201E",
")	c #242422",
"!	c #252523",
"~	c #292928",
"{	c #272726",
"]	c #212120",
"^	c #262624",
"/	c #242423",
"(	c #282826",
"_	c #383230",
":	c #000000",
"<	c #36312F",
"[	c #312E2C",
"}	c #D1AC2E",
"|	c #332F2D",
"1	c #2F2D2C",
"2	c #2F2D2B",
"3	c #CDA92D",
"4	c #CEAA2D",
"5	c #997E1F",
"6	c #2E2C2A",
"7	c #010000",
"8	c #262625",
"9	c #2F2D24",
"0	c #272624",
"a	c #2F2D26",
"b	c #2C2A25",
"c	c #292824",
"d	c #2D2B23",
"e	c #2C2B27",
"f	c #2B2A26",
"g	c #2A2925",
"h	c #282723",
"i	c #292825",
"j	c #2F2D25",
"k	c #272622",
"l	c #2F2C25",
"m	c #2B2A27",
"n	c #B02C2E",
"o	c #7E2733",
"p	c #C43725",
"q	c #D03421",
"r	c #B02B2E",
"s	c #C43724",
"t	c #62534B",
"u	c #4A3A3E",
"v	c #8B6B70",
"               . . .            .                          . .  ",
"................................................................",
"................................................................",
"...+@@@@@@+@+@++++.....@@@@@@@@@@@@@@@+@+@+@++++++++++..........",
"...@..................#...................................#. ...",
"...@.............$...#...............................$...#.. ...",
"...@............$...%...............................$...%... ...",
"   +           &   +                               $   +    $   ",
"...@..........&...%...............................&...%..... ...",
"   +         &   +                               &   +      $   ",
"   +        &   +                               $   +       &   ",
"   .       &   +                               &   +        $   ",
"   +      &   +                               &   +         &   ",
"   .     &   +                               &   +          &   ",
"   .    &   +                               &   +           &   ",
"   .   &   .                               &   .            &   ",
"   .  &   .                               &   .             &   ",
"   . $                                   &                 $&   ",
"          $$$$$$$$$$$$&$&$&&&&&&&&&&&&&&$     $$&$&&&&&&&&&&    ",
"                                                                ",
"                                                                ",
"                                                                ",
"    +++++++++++++++++++.+.+.+.++++**+*++++++++++++.+..          ",
"   +.                                                     . $   ",
"   +                                                 $   .  $   ",
"   +                                                $   .   $   ",
"   + =-;>;,'>),,,,,,!~{]{^;/])~{,~~~~(),'~{,{{!,,!,;,]{,)!= $   ",
"   + _::::::::::::::::::::::::::::::::::::::::::::::::::::< $   ",
"   + [:}}}:::}:}::}:::}::}}::}}}::}::}:}:}::}:}}}:::}:}::}| $   ",
"   + 1:}::}::}:}::}:::}:}::}:}::}:}}:}:}:}}:}:}:::::}:}::}~ &   ",
"   . 2:}}}::::::::}:}:}:}}}}:}}3::}:}}:}:}:}}:4:5}:::::::}6 $   ",
"   + ~7}::}::}:}:::}:}::}::}:}::}:}::}:}:}::}:}}}}::}:}::}6 &   ",
"   . ~::::::::::::::::::::::::::::::::::::::::::::::::::::~ &   ",
"   . 890abcdefghhhie~ehhcfagjddkkhieeegileeeeemecfaeeaaaaf- &   ",
"   .                                       &   .            &   ",
"   .                                      &   .             &   ",
"                                         &                 $&   ",
"     $$$$$$&$&$&&&&&&&&&&&&&&&&&&$&$&$&&$     $$$&$&$&&&&&&&    ",
"                                                                ",
"                                                                ",
"                                                                ",
"    ++++++.+.+....     .++++++++++++++++++++++++.+.+.......     ",
"   +.                 +                                         ",
"nnnonnnnnnnnnnnnnpnnnonnnnnnnnnnnnnnnnnnnnnnnnnnnnnnnnnnnnnnpnnn",
"nnnonnnnnnnnnnnnpnnnonnnnnnnnnnnnnnnnnnnnnnnnnnnnnnnnnnnnnnnpnnn",
"nnnonnnnnnnnnnnqnnnonnnnnnnnnnnnnnnnnnnnnnnnnnnnnnnnnnnnnnnnqnnn",
"nnnonnnnnnnnnrqnnnonnnnnnnnnnnnnnnnnnnnnnnnnnnnnnnnnnnnnnnnnsnnn",
"   +         &   +                                          &   ",
"t  +        &   +                 $                         $   ",
"   .       &   +                 $.                         &   ",
"t  +      &   +                 &ut                         &   ",
"   .     &   +                 &utt                         &   ",
"t  .    &   +                   tt                          &   ",
"t  .   &   .                    ttt                         &  t",
"tt .  &   .                     tt                          &   ",
"t  . $            ++...t        tt                         $&  t",
"tt        $$$$$$$.ttt t &$&&&&&vvvvv$&&&&&&&&&&&$&$&&&&&&&&&  t ",
"t                 $$$$$&       ttttt                           t",
"tt     t                        tttt                          tt",
"tt t                            tttt                      t t tt",
"++++.+..........................+............+.........+.+.+..+@",
"@+++++...+...+........+.+.......++...........++......+.++.+++.++",
"@+@@+++.++++.++.+.++++.+.+.+...++@++......+.++@++.+.+.++.++@@++@",
"@@@@@@@+@+@+++++@@@''''@''''+'++++++++++@+@++@@@+@@@@@@+@+@+@@@@"};
