/* XPM */
static char * EA2_xpm[] = {
"64 64 60 1",
" 	c #5C6567",
".	c #4B5355",
"+	c #4A3B3F",
"@	c #3F2924",
"#	c #3F2923",
"$	c #6D7F82",
"%	c #3F2823",
"&	c #809CA3",
"*	c #3B2C31",
"=	c #3A3331",
"-	c #252524",
";	c #21211F",
">	c #232321",
",	c #222220",
"'	c #20201E",
")	c #242422",
"!	c #252523",
"~	c #292928",
"{	c #272726",
"]	c #212120",
"^	c #262624",
"/	c #242423",
"(	c #282826",
"_	c #383230",
":	c #000000",
"<	c #36312F",
"[	c #312E2C",
"}	c #D1AC2E",
"|	c #332F2D",
"1	c #2F2D2C",
"2	c #2F2D2B",
"3	c #CDA92D",
"4	c #CEAA2D",
"5	c #997E1F",
"6	c #2E2C2A",
"7	c #262625",
"8	c #2F2D24",
"9	c #272624",
"0	c #2F2D26",
"a	c #2C2A25",
"b	c #292824",
"c	c #2D2B23",
"d	c #2C2B27",
"e	c #2B2A26",
"f	c #2A2925",
"g	c #282723",
"h	c #292825",
"i	c #2F2D25",
"j	c #272622",
"k	c #2F2C25",
"l	c #2B2A27",
"m	c #B02C2E",
"n	c #7E2733",
"o	c #C43725",
"p	c #D03421",
"q	c #B02B2E",
"r	c #C43724",
"s	c #62534B",
"t	c #4A3A3E",
"u	c #8B6B70",
"               . . .            .                          . .  ",
"................................................................",
"................................................................",
"...+@@@@@@+@+@++++.....@@@@@@@@@@@@@@@+@+@+@++++++++++..........",
"...@..................#...................................#. ...",
"...@.............$...#...............................$...#.. ...",
"...@............$...%...............................$...%... ...",
"   +           &   +                               $   +    $   ",
"...@..........&...%...............................&...%..... ...",
"   +         &   +                               &   +      $   ",
"   +        &   +                               $   +       &   ",
"   .       &   +                               &   +        $   ",
"   +      &   +                               &   +         &   ",
"   .     &   +                               &   +          &   ",
"   .    &   +                               &   +           &   ",
"   .   &   .                               &   .            &   ",
"   .  &   .                               &   .             &   ",
"   . $                                   &                 $&   ",
"          $$$$$$$$$$$$&$&$&&&&&&&&&&&&&&$     $$&$&&&&&&&&&&    ",
"                                                                ",
"                                                                ",
"                                                                ",
"    +++++++++++++++++++.+.+.+.++++**+*++++++++++++.+..          ",
"   +.                                                     . $   ",
"   +                                                 $   .  $   ",
"   +                                                $   .   $   ",
"   + =-;>;,'>),,,,,,!~{]{^;/])~{,~~~~(),'~{,{{!,,!,;,]{,)!= $   ",
"   + _::::::::::::::::::::::::::::::::::::::::::::::::::::< $   ",
"   + [:}}::}}}::}::}:}:}::}:}}}:::}:}::}}}:::}}::}::}:}}}:| $   ",
"   + 1}::}:}::}:}}:}:}:}}:}:}:::::}:}::}::}:}::}:}}:}:}:::~ &   ",
"   . 2}}}}:}}3::}:}}:}:}:}}:4:5}:::::::}::}:}}}}:}:}}:}:5}6 $   ",
"   + ~}::}:}::}:}::}:}:}::}:}}}}::}:}::}}}::}::}:}::}:}}}}6 &   ",
"   . ~::::::::::::::::::::::::::::::::::::::::::::::::::::~ &   ",
"   . 7890abcdefggghd~dggbe0ficcjjghdddfhkdddddldbe0dd0000e- &   ",
"   .                                       &   .            &   ",
"   .                                      &   .             &   ",
"                                         &                 $&   ",
"     $$$$$$&$&$&&&&&&&&&&&&&&&&&&$&$&$&&$     $$$&$&$&&&&&&&    ",
"                                                                ",
"                                                                ",
"                                                                ",
"    ++++++.+.+....     .++++++++++++++++++++++++.+.+.......     ",
"   +.                 +                                         ",
"mmmnmmmmmmmmmmmmmommmnmmmmmmmmmmmmmmmmmmmmmmmmmmmmmmmmmmmmmmommm",
"mmmnmmmmmmmmmmmmommmnmmmmmmmmmmmmmmmmmmmmmmmmmmmmmmmmmmmmmmmommm",
"mmmnmmmmmmmmmmmpmmmnmmmmmmmmmmmmmmmmmmmmmmmmmmmmmmmmmmmmmmmmpmmm",
"mmmnmmmmmmmmmqpmmmnmmmmmmmmmmmmmmmmmmmmmmmmmmmmmmmmmmmmmmmmmrmmm",
"   +         &   +                                          &   ",
"s  +        &   +                 $                         $   ",
"   .       &   +                 $.                         &   ",
"s  +      &   +                 &ts                         &   ",
"   .     &   +                 &tss                         &   ",
"s  .    &   +                   ss                          &   ",
"s  .   &   .                    sss                         &  s",
"ss .  &   .                     ss                          &   ",
"s  . $            ++...s        ss                         $&  s",
"ss        $$$$$$$.sss s &$&&&&&uuuuu$&&&&&&&&&&&$&$&&&&&&&&&  s ",
"s                 $$$$$&       sssss                           s",
"ss     s                        ssss                          ss",
"ss s                            ssss                      s s ss",
"++++.+..........................+............+.........+.+.+..+@",
"@+++++...+...+........+.+.......++...........++......+.++.+++.++",
"@+@@+++.++++.++.+.++++.+.+.+...++@++......+.++@++.+.+.++.++@@++@",
"@@@@@@@+@+@+++++@@@''''@''''+'++++++++++@+@++@@@+@@@@@@+@+@+@@@@"};
