/* XPM */
static char * EA2_xpm[] = {
"64 64 63 1",
" 	c #5C6567",
".	c #4B5355",
"+	c #4A3B3F",
"@	c #3F2924",
"#	c #3F2923",
"$	c #6D7F82",
"%	c #3F2823",
"&	c #809CA3",
"*	c #3B2C31",
"=	c #3A3331",
"-	c #252524",
";	c #21211F",
">	c #232321",
",	c #222220",
"'	c #20201E",
")	c #242422",
"!	c #252523",
"~	c #292928",
"{	c #272726",
"]	c #212120",
"^	c #262624",
"/	c #242423",
"(	c #282826",
"_	c #383230",
":	c #000000",
"<	c #36312F",
"[	c #312E2C",
"}	c #D1AC2E",
"|	c #332F2D",
"1	c #2F2D2C",
"2	c #9E8120",
"3	c #2F2D2B",
"4	c #CDA92D",
"5	c #CEAA2D",
"6	c #997E1F",
"7	c #635010",
"8	c #2E2C2A",
"9	c #010000",
"0	c #262625",
"a	c #2F2D24",
"b	c #272624",
"c	c #2F2D26",
"d	c #2C2A25",
"e	c #292824",
"f	c #2D2B23",
"g	c #2C2B27",
"h	c #2B2A26",
"i	c #2A2925",
"j	c #282723",
"k	c #292825",
"l	c #2F2D25",
"m	c #272622",
"n	c #2F2C25",
"o	c #2B2A27",
"p	c #B02C2E",
"q	c #7E2733",
"r	c #C43725",
"s	c #D03421",
"t	c #B02B2E",
"u	c #C43724",
"v	c #62534B",
"w	c #4A3A3E",
"x	c #8B6B70",
"               . . .            .                          . .  ",
"................................................................",
"................................................................",
"...+@@@@@@+@+@++++.....@@@@@@@@@@@@@@@+@+@+@++++++++++..........",
"...@..................#...................................#. ...",
"...@.............$...#...............................$...#.. ...",
"...@............$...%...............................$...%... ...",
"   +           &   +                               $   +    $   ",
"...@..........&...%...............................&...%..... ...",
"   +         &   +                               &   +      $   ",
"   +        &   +                               $   +       &   ",
"   .       &   +                               &   +        $   ",
"   +      &   +                               &   +         &   ",
"   .     &   +                               &   +          &   ",
"   .    &   +                               &   +           &   ",
"   .   &   .                               &   .            &   ",
"   .  &   .                               &   .             &   ",
"   . $                                   &                 $&   ",
"          $$$$$$$$$$$$&$&$&&&&&&&&&&&&&&$     $$&$&&&&&&&&&&    ",
"                                                                ",
"                                                                ",
"                                                                ",
"    +++++++++++++++++++.+.+.+.++++**+*++++++++++++.+..          ",
"   +.                                                     . $   ",
"   +                                                 $   .  $   ",
"   +                                                $   .   $   ",
"   + =-;>;,'>),,,,,,!~{]{^;/])~{,~~~~(),'~{,{{!,,!,;,]{,)!= $   ",
"   + _::::::::::::::::::::::::::::::::::::::::::::::::::::< $   ",
"   + [}::}::}:}:}::}:}}}:::}:}::}}}:::}}::}::}:}}}::}}}:}}| $   ",
"   + 1:}:}}:}:}:}}:}:}:::::}:}::}::}:}::}:}}:}:}::::}2}:}:~ &   ",
"   . 34::}:}}:}:}:}}:5:6}:::::::}::}:}}}}:}:}}:}:6}:}7::}}8 $   ",
"   + ~:}:}::}:}:}::}:}}}}::}:}::}}}::}::}:}::}:}}}}:}}}9}:8 &   ",
"   . ~::::::::::::::::::::::::::::::::::::::::::::::::::::~ &   ",
"   . 0abcdefghijjjkg~gjjehcilffmmjkgggikngggggogehcggcccch- &   ",
"   .                                       &   .            &   ",
"   .                                      &   .             &   ",
"                                         &                 $&   ",
"     $$$$$$&$&$&&&&&&&&&&&&&&&&&&$&$&$&&$     $$$&$&$&&&&&&&    ",
"                                                                ",
"                                                                ",
"                                                                ",
"    ++++++.+.+....     .++++++++++++++++++++++++.+.+.......     ",
"   +.                 +                                         ",
"pppqppppppppppppprpppqpppppppppppppppppppppppppppppppppppppprppp",
"pppqpppppppppppprpppqppppppppppppppppppppppppppppppppppppppprppp",
"pppqpppppppppppspppqppppppppppppppppppppppppppppppppppppppppsppp",
"pppqppppppppptspppqpppppppppppppppppppppppppppppppppppppppppuppp",
"   +         &   +                                          &   ",
"v  +        &   +                 $                         $   ",
"   .       &   +                 $.                         &   ",
"v  +      &   +                 &wv                         &   ",
"   .     &   +                 &wvv                         &   ",
"v  .    &   +                   vv                          &   ",
"v  .   &   .                    vvv                         &  v",
"vv .  &   .                     vv                          &   ",
"v  . $            ++...v        vv                         $&  v",
"vv        $$$$$$$.vvv v &$&&&&&xxxxx$&&&&&&&&&&&$&$&&&&&&&&&  v ",
"v                 $$$$$&       vvvvv                           v",
"vv     v                        vvvv                          vv",
"vv v                            vvvv                      v v vv",
"++++.+..........................+............+.........+.+.+..+@",
"@+++++...+...+........+.+.......++...........++......+.++.+++.++",
"@+@@+++.++++.++.+.++++.+.+.+...++@++......+.++@++.+.+.++.++@@++@",
"@@@@@@@+@+@+++++@@@''''@''''+'++++++++++@+@++@@@+@@@@@@+@+@+@@@@"};
