/* XPM */
static char * EA8_xpm[] = {
"64 64 62 1",
" 	c #5C6567",
".	c #4B5355",
"+	c #4A3B3F",
"@	c #3F2924",
"#	c #3F2923",
"$	c #6D7F82",
"%	c #3F2823",
"&	c #809CA3",
"*	c #3B2C31",
"=	c #3A3331",
"-	c #252524",
";	c #21211F",
">	c #232321",
",	c #222220",
"'	c #20201E",
")	c #242422",
"!	c #252523",
"~	c #292928",
"{	c #272726",
"]	c #212120",
"^	c #262624",
"/	c #242423",
"(	c #282826",
"_	c #383230",
":	c #000000",
"<	c #36312F",
"[	c #312E2C",
"}	c #D1AC2E",
"|	c #332F2D",
"1	c #2F2D2C",
"2	c #9E8120",
"3	c #2F2D2B",
"4	c #997E1F",
"5	c #635010",
"6	c #CDA92D",
"7	c #2E2C2A",
"8	c #010000",
"9	c #262625",
"0	c #2F2D24",
"a	c #272624",
"b	c #2F2D26",
"c	c #2C2A25",
"d	c #292824",
"e	c #2D2B23",
"f	c #2C2B27",
"g	c #2B2A26",
"h	c #2A2925",
"i	c #282723",
"j	c #292825",
"k	c #2F2D25",
"l	c #272622",
"m	c #2F2C25",
"n	c #2B2A27",
"o	c #B02C2E",
"p	c #7E2733",
"q	c #C43725",
"r	c #D03421",
"s	c #B02B2E",
"t	c #C43724",
"u	c #62534B",
"v	c #4A3A3E",
"w	c #8B6B70",
"               . . .            .                          . .  ",
"................................................................",
"................................................................",
"...+@@@@@@+@+@++++.....@@@@@@@@@@@@@@@+@+@+@++++++++++..........",
"...@..................#...................................#. ...",
"...@.............$...#...............................$...#.. ...",
"...@............$...%...............................$...%... ...",
"   +           &   +                               $   +    $   ",
"...@..........&...%...............................&...%..... ...",
"   +         &   +                               &   +      $   ",
"   +        &   +                               $   +       &   ",
"   .       &   +                               &   +        $   ",
"   +      &   +                               &   +         &   ",
"   .     &   +                               &   +          &   ",
"   .    &   +                               &   +           &   ",
"   .   &   .                               &   .            &   ",
"   .  &   .                               &   .             &   ",
"   . $                                   &                 $&   ",
"          $$$$$$$$$$$$&$&$&&&&&&&&&&&&&&$     $$&$&&&&&&&&&&    ",
"                                                                ",
"                                                                ",
"                                                                ",
"    +++++++++++++++++++.+.+.+.++++**+*++++++++++++.+..          ",
"   +.                                                     . $   ",
"   +                                                 $   .  $   ",
"   +                                                $   .   $   ",
"   + =-;>;,'>),,,,,,!~{]{^;/])~{,~~~~(),'~{,{{!,,!,;,]{,)!= $   ",
"   + _::::::::::::::::::::::::::::::::::::::::::::::::::::< $   ",
"   + [:}::}:}}}::}}}:}}}:::}:}::}:::}::}}::}}}::}::}:}:}::| $   ",
"   + 1:}}:}:}::::}2}:}::}::}:}::}:::}:}::}:}::}:}}:}:}:}}:~ &   ",
"   . 3:}:}}:}:4}:}5::}}}::::::::}:}:}:}}}}:}}6::}:}}:}:}:}7 $   ",
"   + ~:}::}:}}}}:}}}8}::}::}:}:::}:}::}::}:}::}:}::}:}:}::7 &   ",
"   . ~::::::::::::::::::::::::::::::::::::::::::::::::::::~ &   ",
"   . 90abcdefghiiijf~fiidgbhkeellijfffhjmfffffnfdgbffbbbbg- &   ",
"   .                                       &   .            &   ",
"   .                                      &   .             &   ",
"                                         &                 $&   ",
"     $$$$$$&$&$&&&&&&&&&&&&&&&&&&$&$&$&&$     $$$&$&$&&&&&&&    ",
"                                                                ",
"                                                                ",
"                                                                ",
"    ++++++.+.+....     .++++++++++++++++++++++++.+.+.......     ",
"   +.                 +                                         ",
"ooopoooooooooooooqooopooooooooooooooooooooooooooooooooooooooqooo",
"ooopooooooooooooqooopoooooooooooooooooooooooooooooooooooooooqooo",
"ooopooooooooooorooopoooooooooooooooooooooooooooooooooooooooorooo",
"ooopooooooooosrooopoooooooooooooooooooooooooooooooooooooooootooo",
"   +         &   +                                          &   ",
"u  +        &   +                 $                         $   ",
"   .       &   +                 $.                         &   ",
"u  +      &   +                 &vu                         &   ",
"   .     &   +                 &vuu                         &   ",
"u  .    &   +                   uu                          &   ",
"u  .   &   .                    uuu                         &  u",
"uu .  &   .                     uu                          &   ",
"u  . $            ++...u        uu                         $&  u",
"uu        $$$$$$$.uuu u &$&&&&&wwwww$&&&&&&&&&&&$&$&&&&&&&&&  u ",
"u                 $$$$$&       uuuuu                           u",
"uu     u                        uuuu                          uu",
"uu u                            uuuu                      u u uu",
"++++.+..........................+............+.........+.+.+..+@",
"@+++++...+...+........+.+.......++...........++......+.++.+++.++",
"@+@@+++.++++.++.+.++++.+.+.+...++@++......+.++@++.+.+.++.++@@++@",
"@@@@@@@+@+@+++++@@@''''@''''+'++++++++++@+@++@@@+@@@@@@+@+@+@@@@"};
