/* XPM */
static char * NOtest_xpm[] = {
"64 64 378 2",
"  	c #5C6567",
". 	c #4B5355",
"+ 	c #20201E",
"@ 	c #000000",
"# 	c #37302D",
"$ 	c #6D7F82",
"% 	c #4A3B3F",
"& 	c #7F9BA2",
"* 	c #5C6466",
"= 	c #5D6668",
"- 	c #5E686B",
"; 	c #6C7E81",
"> 	c #493A3E",
", 	c #4A3C40",
"' 	c #4B3F43",
") 	c #4C5456",
"! 	c #4B5254",
"~ 	c #4B5153",
"{ 	c #5A6365",
"] 	c #352E2B",
"^ 	c #1D1D1B",
"/ 	c #7D979E",
"( 	c #7E99A0",
"_ 	c #60514A",
": 	c #4E5658",
"< 	c #242320",
"[ 	c #060605",
"} 	c #626F72",
"| 	c #708487",
"1 	c #4A3F43",
"2 	c #4E3F41",
"3 	c #5A6264",
"4 	c #342E2B",
"5 	c #1C1C1A",
"6 	c #7B959C",
"7 	c #596264",
"8 	c #7D989E",
"9 	c #4B5052",
"0 	c #5F5049",
"a 	c #252321",
"b 	c #070705",
"c 	c #809CA3",
"d 	c #62534B",
"e 	c #332D2A",
"f 	c #1C1B19",
"g 	c #5D6263",
"h 	c #201F1D",
"i 	c #6A7A7D",
"j 	c #A0ADAE",
"k 	c #7A939A",
"l 	c #647276",
"m 	c #615751",
"n 	c #5D6262",
"o 	c #A2AFB1",
"p 	c #727C7E",
"q 	c #657376",
"r 	c #606B6D",
"s 	c #615752",
"t 	c #A1AFB0",
"u 	c #737D7E",
"v 	c #7A9399",
"w 	c #4F5759",
"x 	c #262422",
"y 	c #20201D",
"z 	c #72868A",
"A 	c #ACB9BA",
"B 	c #4E464A",
"C 	c #657478",
"D 	c #4E474A",
"E 	c #5D6162",
"F 	c #322D2A",
"G 	c #7C969C",
"H 	c #585D5F",
"I 	c #4F585A",
"J 	c #2E3231",
"K 	c #2E2828",
"L 	c #2E3232",
"M 	c #363A3A",
"N 	c #434746",
"O 	c #272522",
"P 	c #72878C",
"Q 	c #4A4245",
"R 	c #718990",
"S 	c #3E4B4E",
"T 	c #2F3535",
"U 	c #242627",
"V 	c #272826",
"W 	c #69797C",
"X 	c #322C29",
"Y 	c #7B959B",
"Z 	c #5A6F73",
"` 	c #394344",
" .	c #292E2F",
"..	c #25282A",
"+.	c #212222",
"@.	c #282523",
"#.	c #73898D",
"$.	c #8FA6AB",
"%.	c #394445",
"&.	c #2A2E30",
"*.	c #222322",
"=.	c #2F3537",
"-.	c #0D0D0C",
";.	c #4A4346",
">.	c #51595B",
",.	c #312B29",
"'.	c #9FB0B3",
").	c #333A3B",
"!.	c #232627",
"~.	c #232626",
"{.	c #2E3334",
"].	c #191817",
"^.	c #504C4F",
"/.	c #5B4C47",
"(.	c #576062",
"_.	c #68777A",
":.	c #2E2B2A",
"<.	c #91A7AC",
"[.	c #222323",
"}.	c #232526",
"|.	c #282B2B",
"1.	c #2D3333",
"2.	c #3B484A",
"3.	c #0F0F0D",
"4.	c #4B4C4E",
"5.	c #5E5F5E",
"6.	c #758C92",
"7.	c #292928",
"8.	c #2B3031",
"9.	c #313A3B",
"0.	c #3B4749",
"a.	c #2D3232",
"b.	c #3A4749",
"c.	c #455558",
"d.	c #7A9298",
"e.	c #565F61",
"f.	c #677679",
"g.	c #748B8F",
"h.	c #636F72",
"i.	c #595B5F",
"j.	c #525A5C",
"k.	c #262524",
"l.	c #2E3435",
"m.	c #323B3C",
"n.	c #3A4648",
"o.	c #3F4C4F",
"p.	c #282C2B",
"q.	c #758B90",
"r.	c #5A6769",
"s.	c #637072",
"t.	c #3F3435",
"u.	c #242322",
"v.	c #3B4648",
"w.	c #323B3D",
"x.	c #292C2C",
"y.	c #282C2C",
"z.	c #799297",
"A.	c #748A8F",
"B.	c #242422",
"C.	c #252524",
"D.	c #6A8086",
"E.	c #232525",
"F.	c #6D868B",
"G.	c #394547",
"H.	c #394647",
"I.	c #323C3D",
"J.	c #6A7F84",
"K.	c #758C90",
"L.	c #637073",
"M.	c #4B4A4D",
"N.	c #2C3131",
"O.	c #292D2C",
"P.	c #596B70",
"Q.	c #677D83",
"R.	c #232425",
"S.	c #677D82",
"T.	c #62787E",
"U.	c #333C3D",
"V.	c #758C91",
"W.	c #4A4649",
"X.	c #222423",
"Y.	c #5D7075",
"Z.	c #2D3334",
"`.	c #63797E",
" +	c #333D3E",
".+	c #768C91",
"++	c #222424",
"@+	c #657B80",
"#+	c #354042",
"$+	c #2E2927",
"%+	c #789096",
"&+	c #3E4B4D",
"*+	c #384345",
"=+	c #647A80",
"-+	c #5B6E72",
";+	c #3E4A4D",
">+	c #2C3132",
",+	c #2C2825",
"'+	c #768E93",
")+	c #2B3030",
"!+	c #374344",
"~+	c #353F41",
"{+	c #3C484A",
"]+	c #5C7075",
"^+	c #394447",
"/+	c #62777C",
"(+	c #2A2E2E",
"_+	c #4A474A",
":+	c #2D2826",
"<+	c #2D2926",
"[+	c #2B2F2F",
"}+	c #2A2F2F",
"|+	c #364042",
"1+	c #232424",
"2+	c #364143",
"3+	c #99ACAF",
"4+	c #4A484B",
"5+	c #2C3133",
"6+	c #677E84",
"7+	c #374143",
"8+	c #535C5E",
"9+	c #60757A",
"0+	c #97AAAE",
"a+	c #555E60",
"b+	c #6B8388",
"c+	c #2C3030",
"d+	c #2A2E2D",
"e+	c #9BADB0",
"f+	c #535B5D",
"g+	c #95A9AE",
"h+	c #2E2A27",
"i+	c #6D8084",
"j+	c #2F2A27",
"k+	c #647B80",
"l+	c #647B81",
"m+	c #474E50",
"n+	c #292421",
"o+	c #171615",
"p+	c #556466",
"q+	c #474F50",
"r+	c #171716",
"s+	c #2B2C2A",
"t+	c #111110",
"u+	c #171717",
"v+	c #11100F",
"w+	c #212220",
"x+	c #9DAFB2",
"y+	c #30322F",
"z+	c #2F302E",
"A+	c #2B2C29",
"B+	c #484E4E",
"C+	c #3F4445",
"D+	c #495556",
"E+	c #445052",
"F+	c #516468",
"G+	c #6E7778",
"H+	c #5C6D70",
"I+	c #748A90",
"J+	c #383A37",
"K+	c #232322",
"L+	c #6B7D81",
"M+	c #748B91",
"N+	c #95A1A2",
"O+	c #262624",
"P+	c #56595B",
"Q+	c #4A4447",
"R+	c #232321",
"S+	c #575A5C",
"T+	c #262625",
"U+	c #191918",
"V+	c #626E70",
"W+	c #504B4E",
"X+	c #191917",
"Y+	c #0C0C0B",
"Z+	c #1B1B19",
"`+	c #1A1A18",
" @	c #0B0B0A",
".@	c #292827",
"+@	c #667579",
"@@	c #728B92",
"#@	c #728B91",
"$@	c #748C92",
"%@	c #515A5B",
"&@	c #525A5B",
"*@	c #272726",
"=@	c #0A0A09",
"-@	c #0F0F0E",
";@	c #090A09",
">@	c #5D4B22",
",@	c #47241F",
"'@	c #222220",
")@	c #2C2D2B",
"!@	c #262725",
"~@	c #2D2D2C",
"{@	c #212120",
"]@	c #B49C2F",
"^@	c #252625",
"/@	c #2C2D2C",
"(@	c #6A2720",
"_@	c #63150D",
":@	c #672620",
"<@	c #252725",
"[@	c #8D2B22",
"}@	c #1F201E",
"|@	c #353734",
"1@	c #282828",
"2@	c #DCCA37",
"3@	c #373937",
"4@	c #BB3022",
"5@	c #6D3934",
"6@	c #BC3427",
"7@	c #373A37",
"8@	c #CE3627",
"9@	c #090908",
"0@	c #363735",
"a@	c #BD372B",
"b@	c #BD372A",
"c@	c #282928",
"d@	c #6B3934",
"e@	c #C23426",
"f@	c #1C1C1B",
"g@	c #282826",
"h@	c #6A622B",
"i@	c #6C2822",
"j@	c #363835",
"k@	c #282827",
"l@	c #574F36",
"m@	c #6B6537",
"n@	c #645C23",
"o@	c #473A0D",
"p@	c #665E2B",
"q@	c #D5C236",
"r@	c #353735",
"s@	c #272727",
"t@	c #CCBB32",
"u@	c #6D2721",
"v@	c #3F494B",
"w@	c #313D40",
"x@	c #3A4547",
"y@	c #283031",
"z@	c #393E3F",
"A@	c #493F20",
"B@	c #B1982F",
"C@	c #CFBE38",
"D@	c #D1C248",
"E@	c #A18B42",
"F@	c #424948",
"G@	c #3E484B",
"H@	c #A38F4D",
"I@	c #383E3F",
"J@	c #7C979D",
"K@	c #7B969C",
"L@	c #6B7C7F",
"M@	c #7C979E",
"N@	c #AF962E",
"O@	c #D1C038",
"P@	c #4C4145",
"Q@	c #6A7B7E",
"R@	c #5B6365",
"S@	c #5B6466",
"T@	c #4D5557",
"U@	c #493A3F",
"V@	c #5F6A6C",
"W@	c #7E9AA1",
"X@	c #493C40",
"Y@	c #4B5456",
"Z@	c #4A5255",
"`@	c #5F6767",
" #	c #493B3F",
".#	c #5D6567",
"+#	c #A78C2D",
"@#	c #3F2923",
"##	c #33221E",
"$#	c #715823",
"%#	c #A88D2D",
"&#	c #705724",
"*#	c #1E1E1E",
"=#	c #1F1F1D",
"    .   . . . + @                                                 #       .   .                     .   . . . + @               ",
". . . . . . . + @   . . . . . . . . . . . . . . . . . . . .   . . # . . . . . . . . . . . . . . . . . . . . . + @   . . . . . . ",
". . . . . . . + @   . . . . . . . . . . . . . . . . . . . . $ . . % . . . . . . . . . . . . . . . . . . . . . + @   . . . . . . ",
". . % & * . . + @   . % & * . . . . . . . . . . . . . . . . = . . # . . . . . . . . . . . . . . . % & * . . . + @   % & * . . . ",
". . % -   . . + @   . % -   . . . . . . . . . . . . . . . . ; . . > . . . . . . . . . . . . . . . % -   . . . + @   % -   , . . ",
". . % ' ) . . + @   . % ' ) . . . . . . . . . . . . . . . . $ . . % . . . . . . . . . . . . . . . % ' ) . . . + @   % ' ' ! . . ",
". . ~ ~ . . . + @   . ~ ~ . . . . . . . . . . . . . . . . . $ . . % . . . . . . . . . . . . . . . ~ ~ . . . . + @   ~ % % . . . ",
"{ { { { { { { ] ^ / { { { { { { { { { { { { { { { { { { { { ( { { ~ { { { { { { { { { { { { { { { { { { { { { ] ^ / { _ _ { { { ",
": : : : : : : < [ } : : : : : : : : : : : : : : : : : : : : | : : 1 : : : : : : : : : : : : : : : : : : : : : < [ } : 2 2 : : : ",
"3 3 3 3 3 3 3 4 5 6 7 3 3 3 3 3 3 3 3 3 3 3 3 3 3 3 3 3 3 7 8 7 3 9 3 3 3 3 3 3 3 3 3 3 3 3 3 3 3 3 3 3 3 3 3 4 5 6 7 0 0 3 3 3 ",
"              a b c                                         c     .                                           a b c   d d       ",
"              e f c                                         c     .                                           e f c   g d       ",
"              # h c         i j j j j j k j k k k k k k k k l     7 i k k k k k i k i i i i i i i             # h c   m n       ",
"              # h c       i o p p p p p q p q q q q q q q q         r q q q q q r q r r r r r r r             # h c   n s       ",
"              # h c       t u v                                                                 v   w         # h c   s n       ",
"              x y z       A B C   w D D D D D D D D D w D w D w w w w w w w   w   w           D C   .         x y z   E         ",
"              F h G       A H   I J K K K K K K K K K L K L K L L L L L L L M L M L M M M M N H     .         F h G             ",
"              O h P       A     Q h R S T T T T T U T U U U U + U + U + + + + + + + U + + + V W     .         O h P             ",
"              X h Y       A     % + Z `  . . . . ... ...+...+.U +.+ +.+ + + + + + U +.+ + + + $     .         X h Y             ",
"              @.h #.      $.    % + %.&...........*...*.U *.+ *.+ + + + + + U + + =.+ + + + -.$     ;.>.      @.h #.            ",
"              ,.y $       '.    % + ).......*...*.!.*.~...{.+ + + + + + + + ..+ + ).+ + + + ].$   ^./.(._.    ,.y $             ",
"              :.y $       <.    % + ).....[.}.[.+ [.+ [.[.|.1.2.+ + + + + }.[.+ 2.|.+ + + + 3.$   4.5.6.$     :.y $             ",
"              7.y $       c     % + 8...[.}.[.+ + + + + + + |.9.0.+ a.a.a.[.+ b.c.+ + + + + @ d.  e.f.g.h.    7.+ i.j.          ",
"              7.k.$       c     % + l...}.[.+ + + + + + + + + + m.n.o.p.8.a.a.c.m.+ + + }.+ @ q.    r.s.      7.+ t.e.f.        ",
"              7.u.$       c     % + 8...[.+ + + + + + + + + }.+ + v.w.a.[.x.y.c.+ + n.a.[.+ @ z.    .         7.+ # A.$         ",
"              B.C.$       c     % + ..[.+ + + + + + + + + + [.}.+ ).h D.E.+ y F.G.H.I.x.+ + @ c     .         B.y J.K.L.        ",
"              C.B.$       c     M.+ [.}.+ + + + + + + + }.}.+ [.N.O.+ P.Q.R.S.T.v.U.+ + + + @ c     .         C.h V.L.          ",
"              B.+ $       c     W.+ }.X.+ + + + + + + + X.X.E.E.).E.+ [.Y.Z.`. +).+ + + + + @ c     .         B.+ $             ",
"              + + $       .+    M.+ ++E.+ + + + + + + + + + ++++).++R.@+).).#++ ).+ + + + + @ c     .         + + $             ",
"              + $+$       %+    . + E.+++ + + + + + + + + + + + &+*+=+-+;+>+=+y ).+ + + + + @ c     .         + $+$             ",
"              $+,+$       '+    . + +++ + + + + + + + + )+!+!+!+~+{+]++ ~+^+]+/+(++ + + + + @ c     _+        $+,+$             ",
"              :+<+$       $     . + R.+ + + + R.R.[+[+[+}+|+|+|++ }+[+[+1+c.h /+2++ + + + + @ 3+    4+        :+<+$             ",
"              :+<+$       $     . + R.+ 1+1+1+R.R.[+[+[++ + + + + + [+[+5+6+(+[+7+|++ + + + @ 3+    4+        :+<+$             ",
"              $+,+$       $     8++ + + E.E.E.+ + + + + + + + + + + + + )+@+9++ + !+(++ + + @ 0+    %         $+,+$             ",
"              ,+# $       $     a++ + + + + + + + + + + + + + + + + + + + )+b+y + + c+d++ + @ e+    %         ,+# $             ",
"              # # $       $     f++ + + + + + + + + + + + + + + + + + + + + &++ + + + N.+++ @ g+    %         # h+$             ",
"i+i+i+i+  i+  # j+$       $       + + + + + + + + + + + + + + + + + + + + + ).+ + + + + }.+ @ A     %         j+y $             ",
"k+k+k+l+m+l+m+n+o+$       $       + + + + + + + + + + + + + + + + + + + + + l.+ + + + + + + @ A     %         + + p+q+q+q+q+q+q+",
"@ @ @ @ @ @ @ @ @ $       $       + + + + + + + + + + + + + + + + + + + + + }.+ + + + + + r+@ A     %         + s+@ @ @ @ @ @ @ ",
"r+t+@ t+u+t+t+t+v+$       $       s++ + + + + r++ r+r+r+r+r+r+r+r+r+r+r+r+r+r+r+r+r+r+r+r+@ w+x+    %         + y+t+@ t+u+t+t+t+",
"z++ @ A+z+B.+ A+y $       $       B+C+D+C+D+C+E+D+E+E+E+E+E+E+E+E+F+E+F+F+F+F+F+F+G+G+G+G+G+H+I+    %         + A++ @ A+z+B.+ A+",
"J++ @ J+J+7.B.J+K+$       $   L+      f.  f.  f.f.f.f.f.f.f.f.f.f.M+f.M+M+M+M+M+M+N+N+N+N+N+M+  L+  %         + J++ @ J+J+7.B.J+",
"J++ @ J+J+7.7.J+O+$       _.P+6.                                                              P+6.P+Q+        + J++ @ J+J+7.7.J+",
"J+K+3.J+J+7.7.J+R+_.        ^.(.(.(.(.(.(.(.(.(.(.S+(.S+(.S+S+S+S+S+S+S+S+S+S+S+S+S+S+S+S+S+S+% S+Q+>.        + J+K+3.J+J+7.7.J+",
"J+T+U+J+J+7.7.J+7.V+          >.>.>.>.>.>.>.>.>.>.W+>.W+>.W+W+W+W+W+W+W+W+W+W+W+W+W+W+W+W+W+W+W+W+>.          X+J+T+U+J+J+7.7.J+",
"J+R+-.J+J+7.7.J+7.$                                                                                           Y+J+R+-.J+J+7.7.J+",
"J+7.Z+J+J+7.7.J+7.P                                                                                           `+J+7.Z+J+J+7.7.J+",
"J+7. @J+J+7.7.J+.@c +@+@+@+@+@+@+@  +@  +@  +@+@+@+@+@+@+@+@+@+@+@+@+@+@+@+@+@+@+@  +@  +@+@+@+@+@+@  +@      @ J+7. @J+J+7.7.J+",
"J+7.+ J+J+7.7.J+7.@@#@#@#@#@#@#@@@>.@@>.@@>.@@#@#@#@#@#@#@#@$@#@#@$@#@#@#@#@$@#@$@>.@@>.@@#@#@#@#@@@>.@@>.%@&@@ J+7.+ J+J+7.7.J+",
"J+*@+ J+J+7.7.J+7.=@@ =@-@=@=@=@-@=@@ =@-@=@=@=@-@=@@ =@-@;@>@;@-@,@@ =@-@=@,@;@,@=@@ =@-@=@=@=@-@=@@ =@-@=@=@=@J+*@+ J+J+7.7.J+",
"J+'@+ J+J+7.7.J+)@+ @ !@~@'@+ !@~@+ @ !@~@'@+ !@~@+ @ !@~@{@]@^@/@(@_@!@/@:@(@<@[@}@@ !@~@'@+ !@~@+ @ !@~@'@+ !@J+'@+ J+J+7.7.J+",
"|@*@5 J+|@7.7.J+J++ @ J+J+7.'@J+J++ @ J+J+7.'@J+J++ @ J+J+1@2@3@J+}@4@5@5@6@w+7@8@}@@ J+J+7.'@J+J++ @ J+J+7.'@J+|@*@5 J+|@7.7.J+",
")@+ 9@0@)@7.7.J+J++ @ J+J+7.7.J+J++ @ J+J+7.7.J+J++ @ J+J+1@2@3@J++ @ a@b@c@7.d@e@}@@ J+J+7.7.J+J++ @ J+J+7.7.J+)@+ 9@0@)@7.7.J+",
"0@+ f@)@0@7.g@J+0@+ @ J+0@7.g@J+0@+ @ J+0@7.7.J+J++ @ J+J+1@2@3@0@+ @ J+0@7.h@e@i@+ @ J+0@7.g@J+0@+ @ J+0@7.g@J+0@+ f@)@0@7.g@J+",
"7.^ @ j@7.k@^ j@7.^ @ j@7.k@^ j@7.^ @ j@7.k@k@l@m@n@o@J+j@p@q@r@7.^ @ j@7.s@t@u@7.^ @ j@7.k@^ j@7.^ @ j@7.k@^ j@7.^ @ j@7.k@^ j@",
"v@w@w@v@v@x@w@v@v@y@w@v@v@x@y@v@z@w@y@v@z@x@A@B@C@D@E@F@G@D@H@I@v@y@w@v@v@x@w@v@v@w@w@v@v@x@w@v@v@w@w@v@v@x@w@v@v@y@w@v@v@x@y@v@",
"J@J@J@J@J@J@J@J@K@L@J@J@J@J@L@M@L@M@L@M@L@M@N@O@P@Q@L@L@M@L@M@L@M@L@J@J@J@J@J@K@J@K@J@J@J@J@J@J@K@J@K@J@J@J@J@J@K@L@J@J@J@J@L@J@",
"  R@          S@T@                          2@U@S@T@                          T@S@T@            T@S@T@        S@T@              ",
"S@)   V@S@    )       V@S@            V@S@  2@U@)     V@S@            V@S@    S@)     V@S@      S@)   V@S@    )       V@S@      ",
")   R@W@.           R@W@.           R@W@.   2@X@S@  R@W@.           R@W@.     )     R@W@.     S@)   R@W@.           R@W@.     S@",
"    % ! Y@          % ! Y@          % ! Y@  2@Z@.   % ! Y@          % ! Y@          % ! Y@    .     % ! Y@          % ! Y@    . ",
".   , ,             , ,             , ,   `@2@ #    , ,             , ,             , ,     . .     , ,             , ,     .   ",
"                                      .#  2@+#.                         .                   .                             .   . ",
"% @#@#@#@#@#@#% @#% @#% % % % % % ##$#%#%#&#*#% =#% =#h h =#% =#% % % % % % % % @#% @#% % @#% @#% @#@#@#@#@#@#% @#% @#% % % % % "};
