/* XPM */
static char * tele_xpm[] = {
"64 64 471 2",
"  	c #5D6567",
". 	c #4C5455",
"+ 	c #252523",
"@ 	c #000000",
"# 	c #3A3331",
"$ 	c #6D7E81",
"% 	c #4B3E41",
"& 	c #7F9AA0",
"* 	c #5C6466",
"= 	c #5D6668",
"- 	c #5E686A",
"; 	c #6C7D80",
"> 	c #4A3D40",
", 	c #4B3F42",
"' 	c #4C4145",
") 	c #4D5556",
"! 	c #4C5355",
"~ 	c #4C5254",
"{ 	c #5B6365",
"] 	c #38322F",
"^ 	c #222221",
"/ 	c #7D969C",
"( 	c #7E989E",
"_ 	c #60524C",
": 	c #4F5758",
"< 	c #292825",
"[ 	c #0F0F0D",
"} 	c #626E71",
"| 	c #708385",
"1 	c #4B4145",
"2 	c #4F4143",
"3 	c #5B6264",
"4 	c #37322F",
"5 	c #222220",
"6 	c #7B949A",
"7 	c #5A6264",
"8 	c #7D979C",
"9 	c #4C5153",
"0 	c #5F514B",
"a 	c #2A2826",
"b 	c #10100E",
"c 	c #809BA1",
"d 	c #62544D",
"e 	c #36312E",
"f 	c #22211F",
"g 	c #5D6263",
"h 	c #252423",
"i 	c #6A797C",
"j 	c #9FABAC",
"k 	c #7A9298",
"l 	c #647175",
"m 	c #615852",
"n 	c #5D6262",
"o 	c #A1ADAF",
"p 	c #727B7D",
"q 	c #657275",
"r 	c #606B6C",
"s 	c #615853",
"t 	c #A0ADAE",
"u 	c #737C7D",
"v 	c #7A9297",
"w 	c #505859",
"x 	c #2A2927",
"y 	c #728588",
"z 	c #ABB7B8",
"A 	c #4F484B",
"B 	c #657377",
"C 	c #4F494B",
"D 	c #5D6162",
"E 	c #35312E",
"F 	c #7C959A",
"G 	c #595D5F",
"H 	c #50595A",
"I 	c #323534",
"J 	c #322C2C",
"K 	c #323535",
"L 	c #393D3D",
"M 	c #454948",
"N 	c #2B2A27",
"O 	c #72868A",
"P 	c #4B4447",
"Q 	c #71888E",
"R 	c #414C4F",
"S 	c #838484",
"T 	c #ADAEAE",
"U 	c #9A9B9B",
"V 	c #8F9090",
"W 	c #7D7F7F",
"X 	c #7D7D7D",
"Y 	c #7F8181",
"Z 	c #C2C2C2",
"` 	c #BEBEBE",
" .	c #F4F4F4",
"..	c #C0C0C0",
"+.	c #919191",
"@.	c #9D9D9D",
"#.	c #A8A8A8",
"$.	c #ACACAC",
"%.	c #ABABAB",
"&.	c #A5A5A5",
"*.	c #C6C6C6",
"=.	c #BFBFBF",
"-.	c #E1E1E1",
";.	c #BCBCBC",
">.	c #DADADA",
",.	c #F0F0F0",
"'.	c #F9F9F9",
").	c #FFFFFF",
"!.	c #2B2C2B",
"~.	c #69787B",
"{.	c #35302D",
"].	c #7B9499",
"^.	c #5B6E72",
"/.	c #858889",
"(.	c #EDEEEE",
"_.	c #F5F5F5",
":.	c #F8F9F9",
"<.	c #E9E9E9",
"[.	c #E3E3E3",
"}.	c #DDDDDE",
"|.	c #D9D9D9",
"1.	c #ABABAC",
"2.	c #717171",
"3.	c #D6D6D6",
"4.	c #D0D1D1",
"5.	c #DBDBDB",
"6.	c #F3F3F3",
"7.	c #F2F2F2",
"8.	c #F1F1F1",
"9.	c #EFEFEF",
"0.	c #FEFEFE",
"a.	c #FAFAFA",
"b.	c #ECECEC",
"c.	c #FCFCFC",
"d.	c #F7F7F7",
"e.	c #2C2A28",
"f.	c #73888B",
"g.	c #8EA4A9",
"h.	c #3C4647",
"i.	c #BBBCBC",
"j.	c #B2B2B2",
"k.	c #AAABAA",
"l.	c #DBDBDA",
"m.	c #E8E8E8",
"n.	c #EEEEEE",
"o.	c #F8F8F8",
"p.	c #FDFDFD",
"q.	c #FBFBFB",
"r.	c #8F9191",
"s.	c #8F8F8F",
"t.	c #151514",
"u.	c #4B4548",
"v.	c #52595B",
"w.	c #342F2D",
"x.	c #9EAEB1",
"y.	c #585B5B",
"z.	c #C7C7C7",
"A.	c #E6E6E6",
"B.	c #DFDFDF",
"C.	c #E2E2E2",
"D.	c #EAEAEA",
"E.	c #A2A3A3",
"F.	c #EDEDED",
"G.	c #C3C3C3",
"H.	c #1F1E1D",
"I.	c #514D50",
"J.	c #5B4D49",
"K.	c #586062",
"L.	c #687679",
"M.	c #322F2E",
"N.	c #90A5AA",
"O.	c #808282",
"P.	c #DADBDB",
"Q.	c #CFCFCF",
"R.	c #BEBFBF",
"S.	c #C7C8C8",
"T.	c #C8CACA",
"U.	c #E7E7E7",
"V.	c #A4A7A7",
"W.	c #A0A1A1",
"X.	c #CDCDCC",
"Y.	c #959594",
"Z.	c #C4C4C4",
"`.	c #161615",
" +	c #4C4D4F",
".+	c #5E5F5E",
"++	c #758B90",
"@+	c #2D2D2C",
"#+	c #7E7F7F",
"$+	c #DFDFE0",
"%+	c #E0E0E0",
"&+	c #CECECE",
"*+	c #C8C8C8",
"=+	c #BDBFBF",
"-+	c #ACB0B0",
";+	c #BDBDBD",
">+	c #DCDCDB",
",+	c #EBEBEB",
"'+	c #7A9196",
")+	c #575F61",
"!+	c #677578",
"~+	c #748A8D",
"{+	c #636F71",
"]+	c #5A5B5F",
"^+	c #535A5C",
"/+	c #2A2A29",
"(+	c #858687",
"_+	c #D2D3D3",
":+	c #C8C9CA",
"<+	c #C9CACA",
"[+	c #C6C8C9",
"}+	c #B3B4B4",
"|+	c #CACACA",
"1+	c #E5E5E5",
"2+	c #758A8E",
"3+	c #5B6768",
"4+	c #413738",
"5+	c #292827",
"6+	c #D8D8D8",
"7+	c #C6C7C7",
"8+	c #D8DADA",
"9+	c #A3A5A6",
"0+	c #A1A2A2",
"a+	c #799195",
"b+	c #74898D",
"c+	c #292927",
"d+	c #A0A0A0",
"e+	c #D0D0D0",
"f+	c #CED3D4",
"g+	c #DCE0E1",
"h+	c #D3D4D4",
"i+	c #BFC1C1",
"j+	c #B8B8B8",
"k+	c #6A7E82",
"l+	c #758B8E",
"m+	c #636F72",
"n+	c #4C4B4E",
"o+	c #CDCDCD",
"p+	c #CCCFD0",
"q+	c #CED2D3",
"r+	c #CDD1D3",
"s+	c #C4C5C6",
"t+	c #B3B5B5",
"u+	c #758B8F",
"v+	c #4B484A",
"w+	c #A7A7A7",
"x+	c #CCD0D1",
"y+	c #CDD2D3",
"z+	c #C8C8C9",
"A+	c #C3C4C4",
"B+	c #F6F6F6",
"C+	c #768B8F",
"D+	c #696A6A",
"E+	c #D3D3D3",
"F+	c #C8C9C9",
"G+	c #DEDEDE",
"H+	c #322D2C",
"I+	c #788F94",
"J+	c #808181",
"K+	c #CCD0D0",
"L+	c #C7C7C8",
"M+	c #D7D7D7",
"N+	c #E4E4E4",
"O+	c #302C2A",
"P+	c #768D91",
"Q+	c #B9BABA",
"R+	c #B9B9B9",
"S+	c #BDBDBC",
"T+	c #D6D8DA",
"U+	c #CDD1D2",
"V+	c #D2D2D2",
"W+	c #4B494B",
"X+	c #312C2B",
"Y+	c #312D2B",
"Z+	c #DDDDDD",
"`+	c #AEAEAE",
" @	c #A1A1A1",
".@	c #A6A6A6",
"+@	c #D1D1D1",
"@@	c #CACECF",
"#@	c #B0B1B2",
"$@	c #9F9F9F",
"%@	c #ADADAD",
"&@	c #98AAAD",
"*@	c #4B4A4C",
"=@	c #89898A",
"-@	c #9D9E9E",
";@	c #D2D2D1",
">@	c #C5C5C5",
",@	c #D3D7D8",
"'@	c #A7A9A9",
")@	c #A2A4A4",
"!@	c #545C5E",
"~@	c #939393",
"{@	c #BEBEBD",
"]@	c #D3D3D2",
"^@	c #CCCCCC",
"/@	c #CACBCB",
"(@	c #C3C7C8",
"_@	c #CBCBCB",
":@	c #919494",
"<@	c #5D5E5E",
"[@	c #96A8AC",
"}@	c #565E60",
"|@	c #A3A3A3",
"1@	c #DCDCDC",
"2@	c #B7BFC0",
"3@	c #D4D4D4",
"4@	c #303333",
"5@	c #626363",
"6@	c #B5B5B5",
"7@	c #9AABAE",
"8@	c #545B5D",
"9@	c #A5A5A4",
"0@	c #C4C6C6",
"a@	c #BFBFBE",
"b@	c #303434",
"c@	c #94A7AC",
"d@	c #322E2C",
"e@	c #6D7F82",
"f@	c #A9A9A9",
"g@	c #BCBDBD",
"h@	c #7E7E7E",
"i@	c #657A7E",
"j@	c #657A7F",
"k@	c #494F51",
"l@	c #2D2926",
"m@	c #1D1C1C",
"n@	c #8B8B8A",
"o@	c #566466",
"p@	c #495051",
"q@	c #454545",
"r@	c #636363",
"s@	c #626261",
"t@	c #868686",
"u@	c #717170",
"v@	c #686867",
"w@	c #989898",
"x@	c #A0A09F",
"y@	c #959595",
"z@	c #2F302E",
"A@	c #1D1D1C",
"B@	c #181817",
"C@	c #1D1D1D",
"D@	c #181716",
"E@	c #5C5C5C",
"F@	c #4C4C4B",
"G@	c #2B2B29",
"H@	c #262725",
"I@	c #9CADB0",
"J@	c #333533",
"K@	c #333332",
"L@	c #2F302D",
"M@	c #4A4F4F",
"N@	c #414647",
"O@	c #4B5656",
"P@	c #465153",
"Q@	c #526467",
"R@	c #6E7677",
"S@	c #5D6D6F",
"T@	c #74898E",
"U@	c #3B3C3A",
"V@	c #282827",
"W@	c #6B7C80",
"X@	c #748A8F",
"Y@	c #949FA0",
"Z@	c #575A5B",
"`@	c #4B4649",
" #	c #282826",
".#	c #585A5C",
"+#	c #2A2A2A",
"@#	c #1F1F1E",
"##	c #626E6F",
"$#	c #514C4F",
"%#	c #1F1F1D",
"&#	c #141413",
"*#	c #21211F",
"=#	c #20201E",
"-#	c #131312",
";#	c #2D2C2B",
">#	c #667478",
",#	c #728A90",
"'#	c #728A8F",
")#	c #748B90",
"!#	c #525A5B",
"~#	c #535A5B",
"{#	c #2B2B2B",
"]#	c #121211",
"^#	c #161616",
"/#	c #111211",
"(#	c #5D4C2A",
"_#	c #482925",
":#	c #272725",
"<#	c #30312F",
"[#	c #2A2B2A",
"}#	c #313130",
"|#	c #262625",
"1#	c #B2993F",
"2#	c #303130",
"3#	c #692C28",
"4#	c #621D19",
"5#	c #662B28",
"6#	c #8B312B",
"7#	c #242523",
"8#	c #383A37",
"9#	c #2C2C2C",
"0#	c #DAC74C",
"a#	c #3A3C3A",
"b#	c #B8362F",
"c#	c #6C3C39",
"d#	c #B93A32",
"e#	c #CB3C34",
"f#	c #111111",
"g#	c #393A38",
"h#	c #BA3C36",
"i#	c #BA3C35",
"j#	c #2C2D2C",
"k#	c #6A3C39",
"l#	c #BF3A32",
"m#	c #2C2C2B",
"n#	c #696133",
"o#	c #6B2D29",
"p#	c #393B38",
"q#	c #57503B",
"r#	c #6A643D",
"s#	c #635C2D",
"t#	c #483C1A",
"u#	c #655E33",
"v#	c #D3BF4A",
"w#	c #383A38",
"x#	c #CAB846",
"y#	c #6C2C29",
"z#	c #414A4C",
"A#	c #353F42",
"B#	c #3D4748",
"C#	c #2C3334",
"D#	c #3C4041",
"E#	c #4A4128",
"F#	c #AF953E",
"G#	c #CDBB4A",
"H#	c #CFBF56",
"I#	c #9F894A",
"J#	c #444A49",
"K#	c #404A4C",
"L#	c #A18D54",
"M#	c #3B4041",
"N#	c #7C969B",
"O#	c #7B959A",
"P#	c #6B7B7E",
"Q#	c #7C969C",
"R#	c #AD943D",
"S#	c #CFBD4A",
"T#	c #4D4347",
"U#	c #6A7A7D",
"V#	c #5C6365",
"W#	c #4E5657",
"X#	c #4A3D41",
"Y#	c #5F6A6B",
"Z#	c #7E999F",
"`#	c #4A3F42",
" $	c #4C5556",
".$	c #5F6767",
"+$	c #4A3E41",
"@$	c #A58A3B",
"#$	c #412D29",
"$$	c #362724",
"%$	c #70582D",
"&$	c #A68B3B",
"*$	c #6F572E",
"=$	c #232323",
"-$	c #242423",
"    .   . . . + @                                                 #       .   .                     .   . . . + @               ",
". . . . . . . + @   . . . . . . . . . . . . . . . . . . . .   . . # . . . . . . . . . . . . . . . . . . . . . + @   . . . . . . ",
". . . . . . . + @   . . . . . . . . . . . . . . . . . . . . $ . . % . . . . . . . . . . . . . . . . . . . . . + @   . . . . . . ",
". . % & * . . + @   . % & * . . . . . . . . . . . . . . . . = . . # . . . . . . . . . . . . . . . % & * . . . + @   % & * . . . ",
". . % -   . . + @   . % -   . . . . . . . . . . . . . . . . ; . . > . . . . . . . . . . . . . . . % -   . . . + @   % -   , . . ",
". . % ' ) . . + @   . % ' ) . . . . . . . . . . . . . . . . $ . . % . . . . . . . . . . . . . . . % ' ) . . . + @   % ' ' ! . . ",
". . ~ ~ . . . + @   . ~ ~ . . . . . . . . . . . . . . . . . $ . . % . . . . . . . . . . . . . . . ~ ~ . . . . + @   ~ % % . . . ",
"{ { { { { { { ] ^ / { { { { { { { { { { { { { { { { { { { { ( { { ~ { { { { { { { { { { { { { { { { { { { { { ] ^ / { _ _ { { { ",
": : : : : : : < [ } : : : : : : : : : : : : : : : : : : : : | : : 1 : : : : : : : : : : : : : : : : : : : : : < [ } : 2 2 : : : ",
"3 3 3 3 3 3 3 4 5 6 7 3 3 3 3 3 3 3 3 3 3 3 3 3 3 3 3 3 3 7 8 7 3 9 3 3 3 3 3 3 3 3 3 3 3 3 3 3 3 3 3 3 3 3 3 4 5 6 7 0 0 3 3 3 ",
"              a b c                                         c     .                                           a b c   d d       ",
"              e f c                                         c     .                                           e f c   g d       ",
"              # h c         i j j j j j k j k k k k k k k k l     7 i k k k k k i k i i i i i i i             # h c   m n       ",
"              # h c       i o p p p p p q p q q q q q q q q         r q q q q q r q r r r r r r r             # h c   n s       ",
"              # h c       t u v                                                                 v   w         # h c   s n       ",
"              x + y       z A B   w C C C C C C C C C w C w C w w w w w w w   w   w           C B   .         x + y   D         ",
"              E h F       z G   H I J J J J J J J J J K J K J K K K K K K K L K L K L L L L M G     .         E h F             ",
"              N h O       z     P h Q R S T U V W X Y Z `  .....+.@.#.$.%.&.*.=.-.;.>.,.'.).!.~.    .         N h O             ",
"              {.h ].      z     % + ^./.(._.:.<.[.}.|.1.2.3.4.5._.6.7.8.,.9.0.0.a.).b.c.'.d.+ $     .         {.h ].            ",
"              e.h f.      g.    % + h.i.0.0.).).).0.0.-.j.k.l.m.n._.o.p.q.,.b.8.8.r.s.;.6.6.t.$     u.v.      e.h f.            ",
"              w.+ $       x.    % + y.z.).).).).).0.0.A.` =.B.C.n.9.o.D.b.D.d.a.8.E.F.G.-.-.H.$   I.J.K.L.    w.+ $             ",
"              M.+ $       N.    % + O.P.0.).d.b.7._.9.Q.R.z.S.T.3.U.o.d.d.9.'.<.V.W.X.Y.6.Z.`.$    +.+++$     M.+ $             ",
"              @++ $       c     % + #+$+0.0.<.D.0.0.d.%+5.&+z.*+T.3.b.S.S.9.9.=+-+;+>+).q.,+@ '+  )+!+~+{+    @++ ]+^+          ",
"              @+/+$       c     % + (+D.q.q.'.).).0.c.0.0.b.&+b._+:+<+z.z.S.S.[+}+` |+o.'.1+@ 2+    3+{+      @++ 4+)+!+        ",
"              @+5+$       c     % + &._.0.0.q.0.).c.a.0.0. .6+1+%+:+*+S.7+z.z.8+b.8.9+0+d.3.@ a+    .         @++ # b+$         ",
"              c+/+$       c     % + d+'.).).c.).).<.F.0.0.d.[.e+X.*+*.f+z.*.*.g+h+i+E.j+'.[.@ c     .         c++ k+l+m+        ",
"              /+c+$       c     n++ $.0.).).).).'.-.[.9.0.0.0.<.o+z.*.p+q+z.q+r+s+t+|.q. ...@ c     .         /+h u+m+          ",
"              c++ $       c     v++ w+0.0.0.0.0.a.0.0.q.0.0.0.n.&+0.*.7+x+S.y+z+A+F.B+-.q.,+@ c     .         c++ $             ",
"              + + $       C+    n++ D+>.n.m.1+,+9.0.0.a.a.a.d.E+*+7+z.q+*+*+F+G+,. .C.).'.B.@ c     .         + + $             ",
"              + H+$       I+    . + J+7.a.q.m.E+e+ .B+n.5.B.E+*.<+F+y+K+<+L+y+M+>.N+U.G+B+&+@ c     .         + H+$             ",
"              H+O+$       P+    . + Q+0.).).).%+R+S+*+=.G.F+F+F+F+T.T+b.F+F+x+U+j+M+ .-._.V+@ c     W+        H+O+$             ",
"              X+Y+$       $     . + ` ).).).).Z+`+ @ @.@Q+F+F+F+3.C.6+D.B.4.+@@@#@$@7.%@7...@ &@    *@        X+Y+$             ",
"              X+Y+$       $     . + R+0.).).F.%.=@-@ @ @;@>@'.b.m.-.c.n.$+,@b.*.'@)@>@U.d...@ &@    *@        X+Y+$             ",
"              H+O+$       $     !@+ @.a.0.p.*+X ~@$@$.;+6+{@E+]@e+^@8.M+/@U+(@e+_@:@<@=.a.M+@ [@    %         H+O+$             ",
"              O+# $       $     }@+ |@d.0.0.&+z.Z+5.1@n.8.N+>.>.N+<.b.<.B.G.2@<.D.3@4@5@B+6@@ 7@    %         O+# $             ",
"              # # $       $     8@+ 9@a.).).B.7.0.0.'.).).).).0.).0.0.0.0.*+0@b.a@D.U.b@F.D.@ c@    %         # d@$             ",
"e@e@e@e@  e@  # d@$       $       + f@d.).).Z+7.0.0.a.).).).).).).0.0.0.0.>@g@%+D._@b.h@n.B+@ z     %         d@+ $             ",
"i@i@i@j@k@j@k@l@m@$       $       + n@9.0.0.;.>@Z+6+3.,.q.q.).0.'.B+B+ .n.3.[.;.;.;.;.;.,+C.@ z     %         + + o@p@p@p@p@p@p@",
"@ @ @ @ @ @ @ @ @ $       $       + q@$@>@j.r@s@t@u@v@w@$.$.j.%.x@|@y@|@n@..-.;.;.;.;.;.0.|.@ z     %         + z@@ @ @ @ @ @ @ ",
"A@B@@ B@C@B@B@B@D@$       $       z@+ q@E@F@G@A@+ A@A@A@A@A@A@A@A@A@A@A@A@A@A@A@A@A@A@A@A@@ H@I@    %         + J@B@@ B@C@B@B@B@",
"K@+ @ L@K@c++ L@+ $       $       M@N@O@N@O@N@P@O@P@P@P@P@P@P@P@P@Q@P@Q@Q@Q@Q@Q@Q@R@R@R@R@R@S@T@    %         + L@+ @ L@K@c++ L@",
"U@+ @ U@U@@+c+U@V@$       $   W@      !+  !+  !+!+!+!+!+!+!+!+!+!+X@!+X@X@X@X@X@X@Y@Y@Y@Y@Y@X@  W@  %         + U@+ @ U@U@@+c+U@",
"U@+ @ U@U@@+@+U@/+$       L.Z@++                                                              Z@++Z@`@        + U@+ @ U@U@@+@+U@",
"U@V@`.U@U@@+@+U@ #L.        I.K.K.K.K.K.K.K.K.K.K..#K..#K..#.#.#.#.#.#.#.#.#.#.#.#.#.#.#.#.#.#% .#`@v.        + U@V@`.U@U@@+@+U@",
"U@+#@#U@U@@+@+U@@+##          v.v.v.v.v.v.v.v.v.v.$#v.$#v.$#$#$#$#$#$#$#$#$#$#$#$#$#$#$#$#$#$#$#$#v.          %#U@+#@#U@U@@+@+U@",
"U@ #t.U@U@@+@+U@@+$                                                                                           &#U@ #t.U@U@@+@+U@",
"U@@+*#U@U@@+@+U@@+O                                                                                           =#U@@+*#U@U@@+@+U@",
"U@@+-#U@U@@+@+U@;#c >#>#>#>#>#>#>#  >#  >#  >#>#>#>#>#>#>#>#>#>#>#>#>#>#>#>#>#>#>#  >#  >#>#>#>#>#>#  >#      @ U@@+-#U@U@@+@+U@",
"U@@++ U@U@@+@+U@@+,#'#'#'#'#'#'#,#v.,#v.,#v.,#'#'#'#'#'#'#'#)#'#'#)#'#'#'#'#)#'#)#v.,#v.,#'#'#'#'#,#v.,#v.!#~#@ U@@++ U@U@@+@+U@",
"U@{#+ U@U@@+@+U@@+]#@ ]#^#]#]#]#^#]#@ ]#^#]#]#]#^#]#@ ]#^#/#(#/#^#_#@ ]#^#]#_#/#_#]#@ ]#^#]#]#]#^#]#@ ]#^#]#]#]#U@{#+ U@U@@+@+U@",
"U@:#+ U@U@@+@+U@<#+ @ [#}#:#+ [#}#+ @ [#}#:#+ [#}#+ @ [#}#|#1#+#2#3#4#[#2#5#3#[#6#7#@ [#}#:#+ [#}#+ @ [#}#:#+ [#U@:#+ U@U@@+@+U@",
"8#{#5 U@8#@+@+U@U@+ @ U@U@@+:#U@U@+ @ U@U@@+:#U@U@+ @ U@U@9#0#a#U@7#b#c#c#d#H@a#e#7#@ U@U@@+:#U@U@+ @ U@U@@+:#U@8#{#5 U@8#@+@+U@",
"<#+ f#g#<#@+@+U@U@+ @ U@U@@+@+U@U@+ @ U@U@@+@+U@U@+ @ U@U@9#0#a#U@+ @ h#i#j#@+k#l#7#@ U@U@@+@+U@U@+ @ U@U@@+@+U@<#+ f#g#<#@+@+U@",
"g#+ ^ <#g#@+m#U@g#+ @ U@g#@+m#U@g#+ @ U@g#@+@+U@U@+ @ U@U@9#0#a#g#+ @ U@g#@+n#l#o#+ @ U@g#@+m#U@g#+ @ U@g#@+m#U@g#+ ^ <#g#@+m#U@",
"@+^ @ p#@+m#^ p#@+^ @ p#@+m#^ p#@+^ @ p#@+m#m#q#r#s#t#U@p#u#v#w#@+^ @ p#@+{#x#y#@+^ @ p#@+m#^ p#@+^ @ p#@+m#^ p#@+^ @ p#@+m#^ p#",
"z#A#A#z#z#B#A#z#z#C#A#z#z#B#C#z#D#A#C#z#D#B#E#F#G#H#I#J#K#H#L#M#z#C#A#z#z#B#A#z#z#A#A#z#z#B#A#z#z#A#A#z#z#B#A#z#z#C#A#z#z#B#C#z#",
"N#N#N#N#N#N#N#N#O#P#N#N#N#N#P#Q#P#Q#P#Q#P#Q#R#S#T#U#P#P#Q#P#Q#P#Q#P#N#N#N#N#N#O#N#O#N#N#N#N#N#N#O#N#O#N#N#N#N#N#O#P#N#N#N#N#P#N#",
"  V#          * W#                          0#X#* W#                          W#* W#            W#* W#        * W#              ",
"* )   Y#*     )       Y#*             Y#*   0#X#)     Y#*             Y#*     * )     Y#*       * )   Y#*     )       Y#*       ",
")   V#Z#.           V#Z#.           V#Z#.   0#`#*   V#Z#.           V#Z#.     )     V#Z#.     * )   V#Z#.           V#Z#.     * ",
"    % !  $          % !  $          % !  $  0#! .   % !  $          % !  $          % !  $    .     % !  $          % !  $    . ",
".   , ,             , ,             , ,   .$0#+$    , ,             , ,             , ,     . .     , ,             , ,     .   ",
"                                          0#@$.                         .                   .                             .   . ",
"% #$#$#$#$#$#$% #$% #$% % % % % % $$%$&$&$*$=$% -$% -$h h -$% -$% % % % % % % % #$% #$% % #$% #$% #$#$#$#$#$#$% #$% #$% % % % % "};
