/* XPM */
static char * SO2_xpm[] = {
"64 64 381 2",
"  	c #5D6567",
". 	c #4C5455",
"+ 	c #252523",
"@ 	c #000000",
"# 	c #4B3F42",
"$ 	c #7E989E",
"% 	c #5C6466",
"& 	c #4B3E41",
"* 	c #606C6E",
"= 	c #4E4448",
"- 	c #4E5758",
"; 	c #4C5153",
"> 	c #5A6264",
", 	c #37312F",
"' 	c #222220",
") 	c #7B9398",
"! 	c #505859",
"~ 	c #2A2926",
"{ 	c #111110",
"] 	c #647275",
"^ 	c #36312E",
"/ 	c #21211F",
"( 	c #7A9297",
"_ 	c #5A6163",
": 	c #2A2927",
"< 	c #111111",
"[ 	c #809BA1",
"} 	c #35302E",
"| 	c #20201E",
"1 	c #3A3331",
"2 	c #252423",
"3 	c #2E2B29",
"4 	c #758A8E",
"5 	c #5B6264",
"6 	c #322E2C",
"7 	c #799095",
"8 	c #56585A",
"9 	c #5A5F61",
"0 	c #292928",
"a 	c #282827",
"b 	c #242423",
"c 	c #232322",
"d 	c #262625",
"e 	c #232323",
"f 	c #222221",
"g 	c #292929",
"h 	c #282A2B",
"i 	c #272B2D",
"j 	c #282A2A",
"k 	c #26292A",
"l 	c #27343E",
"m 	c #272F36",
"n 	c #272A2C",
"o 	c #262A2C",
"p 	c #272A2A",
"q 	c #27292A",
"r 	c #262B2E",
"s 	c #262A2D",
"t 	c #28292A",
"u 	c #282D32",
"v 	c #292A2A",
"w 	c #282D31",
"x 	c #282A2C",
"y 	c #272727",
"z 	c #252626",
"A 	c #242728",
"B 	c #242B2F",
"C 	c #242B30",
"D 	c #273641",
"E 	c #262D30",
"F 	c #272D30",
"G 	c #141711",
"H 	c #141915",
"I 	c #141F23",
"J 	c #142226",
"K 	c #141814",
"L 	c #141F1B",
"M 	c #141913",
"N 	c #15271E",
"O 	c #15241E",
"P 	c #141E1F",
"Q 	c #141815",
"R 	c #141510",
"S 	c #141C19",
"T 	c #142429",
"U 	c #143140",
"V 	c #142A35",
"W 	c #141E1E",
"X 	c #14150F",
"Y 	c #141813",
"Z 	c #141B18",
"` 	c #142327",
" .	c #143448",
"..	c #143950",
"+.	c #142427",
"@.	c #171811",
"#.	c #15150C",
"$.	c #17150F",
"%.	c #171C1B",
"&.	c #171E1C",
"*.	c #17170F",
"=.	c #17170D",
"-.	c #171C17",
";.	c #14150D",
">.	c #152219",
",.	c #152726",
"'.	c #172A29",
").	c #143C56",
"!.	c #141C18",
"~.	c #141C1C",
"{.	c #142023",
"].	c #141E1C",
"^.	c #299396",
"/.	c #141917",
"(.	c #142022",
"_.	c #142326",
":.	c #141F1F",
"<.	c #141713",
"[.	c #15506E",
"}.	c #142F3D",
"|.	c #144C71",
"1.	c #14384E",
"2.	c #142024",
"3.	c #141F19",
"4.	c #176186",
"5.	c #151C18",
"6.	c #151814",
"7.	c #15201C",
"8.	c #152022",
"9.	c #248284",
"0.	c #194B4E",
"a.	c #141511",
"b.	c #14242B",
"c.	c #151F23",
"d.	c #14272F",
"e.	c #141914",
"f.	c #142B3A",
"g.	c #143143",
"h.	c #15526E",
"i.	c #141B15",
"j.	c #141B17",
"k.	c #23797B",
"l.	c #141918",
"m.	c #142A3A",
"n.	c #142027",
"o.	c #1C8283",
"p.	c #151511",
"q.	c #155474",
"r.	c #14201B",
"s.	c #14272E",
"t.	c #14262F",
"u.	c #151E1C",
"v.	c #14242D",
"w.	c #153D5B",
"x.	c #173632",
"y.	c #143C54",
"z.	c #152026",
"A.	c #142731",
"B.	c #143145",
"C.	c #142227",
"D.	c #172A20",
"E.	c #142019",
"F.	c #141C1B",
"G.	c #142026",
"H.	c #15384F",
"I.	c #142F3E",
"J.	c #142329",
"K.	c #14262E",
"L.	c #141E19",
"M.	c #154B68",
"N.	c #14323E",
"O.	c #154865",
"P.	c #142F41",
"Q.	c #153850",
"R.	c #143D54",
"S.	c #143A52",
"T.	c #142F31",
"U.	c #153D5A",
"V.	c #14364B",
"W.	c #142D3C",
"X.	c #14313D",
"Y.	c #144B6D",
"Z.	c #142B32",
"`.	c #142220",
" +	c #14364E",
".+	c #15405E",
"++	c #144358",
"@+	c #143D56",
"#+	c #144C70",
"$+	c #142A32",
"%+	c #153641",
"&+	c #152E2B",
"*+	c #17393C",
"=+	c #278F91",
"-+	c #278F92",
";+	c #227475",
">+	c #141714",
",+	c #14455D",
"'+	c #2F2B2A",
")+	c #142E3A",
"!+	c #14384F",
"~+	c #14242E",
"{+	c #142626",
"]+	c #151E18",
"^+	c #152622",
"/+	c #141E20",
"(+	c #143248",
"_+	c #141F22",
":+	c #248384",
"<+	c #183C3A",
"[+	c #768B8F",
"}+	c #143247",
"|+	c #142020",
"1+	c #141C1E",
"2+	c #141811",
"3+	c #197071",
"4+	c #183E3D",
"5+	c #141B19",
"6+	c #1E5A5A",
"7+	c #172D2A",
"8+	c #143144",
"9+	c #788F94",
"0+	c #302C2B",
"a+	c #142935",
"b+	c #155D7F",
"c+	c #142424",
"d+	c #185352",
"e+	c #1E5B5B",
"f+	c #172E2B",
"g+	c #142732",
"h+	c #778D91",
"i+	c #312D2B",
"j+	c #142B38",
"k+	c #154861",
"l+	c #6D7E81",
"m+	c #322D2C",
"n+	c #15485F",
"o+	c #153A4F",
"p+	c #14435F",
"q+	c #143D53",
"r+	c #143D50",
"s+	c #14415F",
"t+	c #142D3D",
"u+	c #14405E",
"v+	c #144563",
"w+	c #152D2A",
"x+	c #174140",
"y+	c #142229",
"z+	c #142B39",
"A+	c #15221E",
"B+	c #153534",
"C+	c #142A36",
"D+	c #141F20",
"E+	c #151E19",
"F+	c #143D57",
"G+	c #142D3A",
"H+	c #14405D",
"I+	c #141E22",
"J+	c #144463",
"K+	c #14405F",
"L+	c #677577",
"M+	c #155472",
"N+	c #155477",
"O+	c #152023",
"P+	c #636F72",
"Q+	c #154965",
"R+	c #143447",
"S+	c #143849",
"T+	c #14485F",
"U+	c #677578",
"V+	c #141E23",
"W+	c #153247",
"X+	c #142932",
"Y+	c #144763",
"Z+	c #143549",
"`+	c #18170C",
" @	c #181509",
".@	c #182226",
"+@	c #182427",
"@@	c #18150A",
"#@	c #181408",
"$@	c #171710",
"%@	c #17384C",
"&@	c #626E70",
"*@	c #353124",
"=@	c #363123",
"-@	c #363124",
";@	c #353227",
">@	c #353123",
",@	c #342F20",
"'@	c #332D1F",
")@	c #353023",
"!@	c #332E20",
"~@	c #342F22",
"{@	c #353125",
"]@	c #363125",
"^@	c #353228",
"/@	c #353126",
"(@	c #352F22",
"_@	c #353022",
":@	c #342E20",
"<@	c #352F20",
"[@	c #68777A",
"}@	c #2B2A27",
"|@	c #252524",
"1@	c #282826",
"2@	c #272726",
"3@	c #5A5F62",
"4@	c #3E3B39",
"5@	c #778E94",
"6@	c #647074",
"7@	c #524F52",
"8@	c #3D3A38",
"9@	c #2B2926",
"0@	c #3A3432",
"a@	c #5F686B",
"b@	c #514C4F",
"c@	c #555557",
"d@	c #4F494B",
"e@	c #74888D",
"f@	c #3C3635",
"g@	c #2C2A28",
"h@	c #413E3E",
"i@	c #788F95",
"j@	c #5D6568",
"k@	c #6D7E83",
"l@	c #748B8F",
"m@	c #606B6D",
"n@	c #2A2A28",
"o@	c #504B4D",
"p@	c #4E4548",
"q@	c #5C6266",
"r@	c #73888D",
"s@	c #799298",
"t@	c #575F61",
"u@	c #585F61",
"v@	c #535154",
"w@	c #60686D",
"x@	c #7A9298",
"y@	c #4A4C4C",
"z@	c #292725",
"A@	c #50494B",
"B@	c #5A5D61",
"C@	c #4D5152",
"D@	c #38322F",
"E@	c #0B0B0B",
"F@	c #090909",
"G@	c #606B6C",
"H@	c #2D2D2C",
"I@	c #262624",
"J@	c #5B6365",
"K@	c #7D989E",
"L@	c #060606",
"M@	c #3B3C3A",
"N@	c #6D8388",
"O@	c #6A8186",
"P@	c #6C8287",
"Q@	c #5B696B",
"R@	c #5E6C6D",
"S@	c #5D6B6C",
"T@	c #6B7B80",
"U@	c #627378",
"V@	c #636F71",
"W@	c #5A6668",
"X@	c #535A5C",
"Y@	c #535B5D",
"Z@	c #575E60",
"`@	c #73898D",
" #	c #535053",
".#	c #65777C",
"+#	c #545B5D",
"@#	c #4B484A",
"##	c #565E60",
"$#	c #565D5F",
"%#	c #555658",
"&#	c #545C5E",
"*#	c #545356",
"=#	c #504E4E",
"-#	c #3C4141",
";#	c #474C4D",
">#	c #4B4A4C",
"            .   . . . + @                                                                   .   . . . + @                 .     ",
". . . . . . . . . . . + @   . . . . . . . . . . . . . . . . . . . . . . . . . . . . . . . . . . . . . + @   . . . . . . . . . . ",
". . . . . . . . . . . + @   . . . . . . . . . . . . . . . . . . . . . . . . . . . . . . . . . . . . . + @   . . . . . . . . . . ",
". . . . . # $ % . . . + @   . # $ % . . . . . . . . . . . . . . . . . . . . . . . . . . . # $ % . . . + @   . # $ % . . . . . . ",
". . . . . & *   . . . + @   . & *   . . . . . . . . . . . . . . . . . . . . . . . . . . . & *   . . . + @   . & *   . . . . . . ",
". . . . . & = - . . . + @   . & = - . . . . . . . . . . . . . . . . . . . . . . . . . . . & = - . . . + @   . & = - . . . . . . ",
". . . . . ; ; . . . . + @   . ; ; . . . . . . . . . . . . . . . . . . . . . . . . . . . . ; ; . . . . + @   . ; ; . . . . . . . ",
"> > > > > > > > > > > , ' ) > > > > > > > > > > > > > > > > > > > > > > > > > > > > > > > > > > > > > , ' ) > > > > > > > > > > ",
"! ! ! ! ! ! ! ! ! ! ! ~ { ] ! ! ! ! ! ! ! ! ! ! ! ! ! ! ! ! ! ! ! ! ! ! ! ! ! ! ! ! ! ! ! ! ! ! ! ! ! ~ { ] ! ! ! ! ! ! ! ! ! ! ",
"> > > > > > > > > > > ^ / ( _ > > > > > > > > > > > > > > > > > > > > > > > > > > > > > > > > > > > > ^ / ( _ > > > > > > > > > ",
"                      : < [                                                                           : < [                     ",
"                      } | [                                                                           } | [                     ",
"                      1 2 [                                                                           1 2 [                     ",
"                      1 2 [                                                                           1 2 [                     ",
"                      1 2 [                                                                           1 2 [                     ",
"                      1 2 [                                                                           1 2 [                     ",
"                      3 2 4                                                                           3 2 4                     ",
"          5 5         6 2 7   8 %                                                         5 5         6 2 7   9                 ",
"        } | 0 0 0 0 a b c 0 0 0 0 0 0 0 0 0 0 0 0 d e f 0 0 0 0 0 0 c ' ' ' ' c c ' 0 0 0 0 0 0 0 0 0 b c 0 0 0 0 0 1 2 [       ",
"        1 2 g h i j j ' k l m n o p h p q r s q t u ' c g v w u x j y b z A B C C D j r E F 0 0 0 0 0 d + 0 0 0 0 0 1 2 [       ",
"        1 2 G H I J H K H L M N O H H H H H P Q G G R K S T U V W H G X G H R R Y X G Z `  ...+.@.#.$.@.%.&.*.=.*.-.1 2 [       ",
"        1 2 K H H Y Y ;.G Y >.,.'.H ).!.~.H {.S ].^.R K /.(._.:.H H H <.:.[.K K H G ;.H :.}.|.1.2.H K H H K Y ;.G 3.1 2 [       ",
"        1 2 K <.4.H Q G G G 5.6.Y 7.8.2.{.H 9.0.2.<.a.K R Y H H R G H b.c.P R H d.H e.H H P f.g.+.S K K 4.H Q G G !.3 2 4       ",
"        } | h.H H Y G H H i.Y G G Y j.{.K a.^.k.H X Y H <.e.H !.l.X G m.n.X R o.p.R R a.Y G :.J (.H q.H H Y G H H r.} | [       ",
"        1 2 s.R K R G t.W H e.K u.G e.H Z G e.W v.R G G G w.W J W G G H G G e.x.R Y y.z.R G H /.H K A.R K R G b.P H 1 2 [       ",
"        1 2 G G H <.H B.C.G H D.O E.Y H F.K H H G R Y Y R G :.W H H H Z ~.!.G X G e.X X G G.H.H Y X G G H <.H I.J.<.1 2 [       ",
"        1 2 G K.H H H H G a.H L.!.H H e.X G H H a.K K a.Y a.H H H M.N.+.A._.Z R X R R R <.S b.!.H G G v.l.H H H G R 1 2 [       ",
"        1 2 H H <.e.H H <.H 2.` W H O./.G v.P.<.H H e.<.Q.H G X e.Z +.R.S.T.!.e.G Y Y <.K a.G {.].H H H <.K H H <.H 1 2 [       ",
"        3 2 U.H R X H H e.F.s.V.W.W X./.H W n.X G W ~.H A.H G G j.J V.Y.Z.`.j.R <.H H ^. +G e.l./.K .+H a.X e.H e.F.3 2 4       ",
"        6 2 H <.e.G e.R d.++` @+#+$+P H G ;.;.X R W !.K Y G.H H Z ` W.%+&+G *+G R H =+-+;+H <.H >+R H <.e.G e.R G.,+6 2 7       ",
"        '+2 a.R W S e.X {.)+>++.!+}._.H G ;.X ~+@+R G X G W H H H W {.{+]+^+j./+(+_+R :+<+H R a.e.Y a.X W S e.X W }.'+2 [+      ",
"        6 2 R }+W {.F.H H K R K G.+.|+<.g.1+e.R G G e.G Y R K X <.H H <.L.5.2+H H 3+G 4+e.5+2.R 6+7+R 8+(.{.~.H H e.6 2 9+      ",
"        0+2 e.a+/.W W H A.e.Y R H /.G R A.l.G R S W ~.H b+K H G R Y G R ~.c+R l.H d+H e.G Z W e.e+f+e.g+Z W W H A.e.0+2 h+      ",
"        i++ X Y H H R <.e.G X R X R R R X R H F.d.j++.S H e.k+H <.K <.Y ~.S H v.>+K X <.H :.(.G G e.X 2+H H R <.e.G i++ l+      ",
"        m++ K S W !.<.;.R X X n+o+G e.Y X K S K.p+q++.!.H H r+<.H H s+H H H H G X R X G H S {.H R K K S W !.<.;.R X m++ l+      ",
"        + + S t+u+s.H G G Z Y R X G v.H H Z ` !+v+s.!.R G H ~.P w+x+<.].S K H X R ;.G H y+F.e.H <.H !.t+u+s./.G G l.+ + l+      ",
"        + + S d.u+z+Z H e.S K R R R G A+B+j.` C+A.~.Y X e.F.D+~.G E+X <.H X R R F+l.R e.Y X G H X R !.d.u+G+!.H e.S + + l+      ",
"        + + H F.J (.H H H+H G R p.I+a.G X Y S W Z Y A.b.S |+F.<.R X G R G X ;.;.G X <.e.;.G H J+K G H S J (.H H K+H + + L+      ",
"        + + H M+l.H H H H K G X G {.a.<.R a.H H G X a+t./.S H H a.G ~+G ;.X G <.a.R e.H <.N+H H e.G H h.O+H H H H K + + P+      ",
"        + + H l.X <.Y ;.Y Y R G X ;.R H ].s.V J Q+R+K G H H S+T+R ;.<.R a.R X H H (.G a.K !.H {.X R e.l.X <.e.;.<.Y + + U+      ",
"        + + <.R <.e.<.G V+W+Y R G G R <.].X+Y+Z+{.`+ @ @.@+@@@ @#.#.;.G H G X `+ @@@#@#@#@ @@@@.$@%@Y R <.e.<.G I+S.+ + &@      ",
"        + + *@=@-@;@*@>@,@'@*@>@=@>@)@!@~@{@-@]@-@{@=@*@^@/@/@/@*@(@_@=@(@:@'@=@=@=@=@=@=@=@=@=@=@=@<@<@=@-@=@=@=@=@+ + [@      ",
"        + }@0 0 0 0 |@|@0 0 0 0 0 0 a d 0 0 0 0 0 0 0 0 c c c 1@0 d a 1@c 2@b |@0 0 1@c ' ' 0 0 0 0 b b 0 0 0 0 0 0 + }@        ",
"          3@%         4@' $                                                                           1 ' 5@6@                  ",
"          7@$         8@9@$                                                                           0@' 5@a@b@c@              ",
"          d@e@        f@g@$                                                                           h@' i@j@k@$               ",
"          # #         f@g@$   c@l@m@                                                          % 3@    h@n@i@6@o@p@              ",
"P+P+P+P+P+P+P+P+  P+  f@g@$   c@$ m@                                                          3@q@r@  h@1 $     c@P+P+P+P+P+P+P+",
"s@s@s@s@s@s@s@s@t@s@u@f@g@$ 9 # c@                                                            v@w@x@  y@1 ^ u@s@t@s@s@s@s@s@s@s@",
"@ @ @ @ @ @ @ @ @ @ @ 1 z@$   o@o@                                                            c@A@B@  C@D@@ @ @ @ @ @ @ @ @ @ @ ",
"E@F@@ F@E@F@F@F@E@F@@ @ D@  m@  m@G@G@G@G@G@m@  m@  m@  m@          m@  m@G@G@G@G@G@m@  m@G@G@m@  m@  D@@ @ F@F@F@E@F@@ F@E@F@F@",
"H@+ @ I@H@+ + I@H@+ @ @ @ J@K@5 K@K@K@K@K@K@K@5 K@5 K@5 K@J@J@J@J@J@K@5 K@K@K@K@K@K@K@5 K@K@K@K@5 K@J@@ @ L@+ + I@H@+ @ I@H@+ + ",
"M@+ @ M@M@H@+ M@M@+ @ L@@ @ @ @ @ @ @ @ @ @ @ @ @ @ @ @ @ @ @ @ @ @ @ @ @ @ @ @ @ @ @ @ @ @ @ @ @ @ @ @ L@H@H@+ M@M@+ @ M@M@H@+ ",
"M@+ @ M@M@H@H@M@M@+ @ + @ @ @ @ @ @ @ @ @ @ @ @ @ @ @ @ @ @ @ @ @ @ @ @ @ @ @ @ @ @ @ @ @ @ @ @ @ @ @ @ H@M@H@H@M@M@+ @ M@M@H@H@",
"M@+ @ M@M@H@H@M@M@+ @ M@H@+ + + H@+ @ + H@+ + + H@+ @ + H@+ + + H@+ @ + H@+ + + H@+ @ + H@+ + + H@+ @ H@M@M@H@H@M@M@+ @ M@M@H@H@",
"M@H@+ M@M@H@H@M@M@H@+ M@M@H@H@M@M@+ @ M@M@H@H@M@M@+ @ M@M@H@H@M@M@+ @ M@M@H@H@M@M@+ @ M@M@H@H@M@M@+ @ M@M@M@H@H@M@M@H@+ M@M@H@H@",
"N@O@O@N@N@P@O@N@N@Q@O@N@N@P@Q@N@R@O@Q@N@R@P@Q@R@R@Q@Q@R@N@S@O@R@N@Q@O@N@N@P@O@N@N@O@O@N@N@P@O@N@N@O@O@N@N@P@O@N@N@Q@O@N@N@P@Q@N@",
"T@T@T@T@T@T@T@T@U@V@T@T@T@T@V@T@V@T@V@T@V@T@V@V@V@W@V@V@T@V@T@V@T@V@T@T@T@T@T@U@T@U@T@T@T@T@T@T@U@T@U@T@T@T@T@T@U@V@T@T@T@T@V@T@",
"  X@          X@t@                            X@X@t@                          t@X@t@            t@X@t@        X@t@              ",
"Y@Z@  `@Y@    Z@      `@Y@            `@Y@    . Z@    `@Y@            `@Y@    Y@Z@    `@Y@      Y@Z@  `@Y@    Z@      `@Y@      ",
"Z@   #.#.            #.#.            #.#.   Y@Z@Y@   #.#.            #.#.     Z@     #.#.     Y@Z@   #.#.            #.#.     Y@",
"+#  & @###          & @###          & @###  ##+###  & @###          & @###          & @###  +#.     & @###          & @###  +###",
"$#  %#%#            %#%#            %#%#    &#$#    %#%#            %#%#&#          %#%#    . $#    %#%#            %#%#  &#$#&#",
"*#=#=#=#=#=#=#*#=#*#=#*#*#*#*#*#*#*#=#*#=#*#-#*#;#*#;#;#;#;#*#;#*#*#*#*#>#*#*#*#=#*#=#*#*#=#>#=#*#=#=#=#=#=#=#*#=#*#=#*#*#>#*#>#"};
