/* XPM */
static char * SO3_xpm[] = {
"64 64 393 2",
"  	c #5D6567",
". 	c #4C5455",
"+ 	c #252523",
"@ 	c #000000",
"# 	c #4B3F42",
"$ 	c #7E989E",
"% 	c #5C6466",
"& 	c #4B3E41",
"* 	c #606C6E",
"= 	c #4E4448",
"- 	c #4E5758",
"; 	c #4C5153",
"> 	c #5A6264",
", 	c #37312F",
"' 	c #222220",
") 	c #7B9398",
"! 	c #505859",
"~ 	c #2A2926",
"{ 	c #111110",
"] 	c #647275",
"^ 	c #36312E",
"/ 	c #21211F",
"( 	c #7A9297",
"_ 	c #5A6163",
": 	c #2A2927",
"< 	c #111111",
"[ 	c #809BA1",
"} 	c #35302E",
"| 	c #20201E",
"1 	c #3A3331",
"2 	c #252423",
"3 	c #2E2B29",
"4 	c #758A8E",
"5 	c #5B6264",
"6 	c #322E2C",
"7 	c #799095",
"8 	c #56585A",
"9 	c #5A5F61",
"0 	c #292928",
"a 	c #282827",
"b 	c #242423",
"c 	c #232322",
"d 	c #262625",
"e 	c #232323",
"f 	c #222221",
"g 	c #292929",
"h 	c #282A2B",
"i 	c #272B2D",
"j 	c #282A2A",
"k 	c #26292A",
"l 	c #27343E",
"m 	c #272F36",
"n 	c #272A2C",
"o 	c #262A2C",
"p 	c #272A2A",
"q 	c #27292A",
"r 	c #262B2E",
"s 	c #262A2D",
"t 	c #28292A",
"u 	c #282D32",
"v 	c #292A2A",
"w 	c #282D31",
"x 	c #282A2C",
"y 	c #272727",
"z 	c #252626",
"A 	c #242728",
"B 	c #242B2F",
"C 	c #242B30",
"D 	c #273641",
"E 	c #262D30",
"F 	c #272D30",
"G 	c #141711",
"H 	c #141915",
"I 	c #141F23",
"J 	c #142226",
"K 	c #141814",
"L 	c #141F1B",
"M 	c #141913",
"N 	c #15271E",
"O 	c #15241E",
"P 	c #141E1F",
"Q 	c #141815",
"R 	c #141510",
"S 	c #141813",
"T 	c #141C18",
"U 	c #142429",
"V 	c #143140",
"W 	c #142A35",
"X 	c #141E1E",
"Y 	c #14150F",
"Z 	c #141B18",
"` 	c #142327",
" .	c #143448",
"..	c #143950",
"+.	c #142427",
"@.	c #171811",
"#.	c #15150C",
"$.	c #17150F",
"%.	c #171C1B",
"&.	c #171E1C",
"*.	c #17170F",
"=.	c #17170D",
"-.	c #171C17",
";.	c #14150D",
">.	c #152219",
",.	c #152726",
"'.	c #172A29",
").	c #143C56",
"!.	c #141C1C",
"~.	c #142023",
"{.	c #141C19",
"].	c #141C1B",
"^.	c #173836",
"/.	c #141917",
"(.	c #142022",
"_.	c #142326",
":.	c #141F1F",
"<.	c #141713",
"[.	c #299396",
"}.	c #142F3D",
"|.	c #144C71",
"1.	c #14384E",
"2.	c #142024",
"3.	c #141F19",
"4.	c #176186",
"5.	c #151C18",
"6.	c #151814",
"7.	c #15201C",
"8.	c #152022",
"9.	c #173431",
"0.	c #141F22",
"a.	c #141511",
"b.	c #183D3C",
"c.	c #268688",
"d.	c #237C7F",
"e.	c #151F23",
"f.	c #14272F",
"g.	c #141914",
"h.	c #142B3A",
"i.	c #143143",
"j.	c #15526E",
"k.	c #194747",
"l.	c #194745",
"m.	c #141B15",
"n.	c #141B17",
"o.	c #152420",
"p.	c #152924",
"q.	c #141918",
"r.	c #26878B",
"s.	c #142027",
"t.	c #1C8283",
"u.	c #151511",
"v.	c #155474",
"w.	c #14201B",
"x.	c #14272E",
"y.	c #194544",
"z.	c #14262F",
"A.	c #151E1C",
"B.	c #14242D",
"C.	c #153D5B",
"D.	c #173632",
"E.	c #143C54",
"F.	c #152026",
"G.	c #142731",
"H.	c #14242B",
"I.	c #143145",
"J.	c #142227",
"K.	c #172A20",
"L.	c #142019",
"M.	c #142026",
"N.	c #15384F",
"O.	c #142F3E",
"P.	c #142329",
"Q.	c #14262E",
"R.	c #141E19",
"S.	c #154B68",
"T.	c #14323E",
"U.	c #154865",
"V.	c #142F41",
"W.	c #153850",
"X.	c #143D54",
"Y.	c #143A52",
"Z.	c #142F31",
"`.	c #141E1C",
" +	c #153D5A",
".+	c #14364B",
"++	c #142D3C",
"@+	c #14313D",
"#+	c #144B6D",
"$+	c #142B32",
"%+	c #142220",
"&+	c #1B4444",
"*+	c #142F43",
"=+	c #15405E",
"-+	c #248386",
";+	c #144358",
">+	c #143D56",
",+	c #144C70",
"'+	c #142A32",
")+	c #153641",
"!+	c #152E2B",
"~+	c #17393C",
"{+	c #183D3A",
"]+	c #151E19",
"^+	c #141714",
"/+	c #248384",
"(+	c #1F686A",
"_+	c #14455D",
":+	c #2F2B2A",
"<+	c #142E3A",
"[+	c #1E6265",
"}+	c #1E6872",
"|+	c #14242E",
"1+	c #142626",
"2+	c #151E18",
"3+	c #152622",
"4+	c #141E20",
"5+	c #142735",
"6+	c #172B29",
"7+	c #768B8F",
"8+	c #143247",
"9+	c #1E5F5F",
"0+	c #1E6163",
"a+	c #142020",
"b+	c #141C1E",
"c+	c #141811",
"d+	c #173D3C",
"e+	c #152422",
"f+	c #141B19",
"g+	c #1E5A5A",
"h+	c #172D2A",
"i+	c #143144",
"j+	c #788F94",
"k+	c #302C2B",
"l+	c #142935",
"m+	c #155D7F",
"n+	c #142424",
"o+	c #152B27",
"p+	c #1E5B5B",
"q+	c #172E2B",
"r+	c #142732",
"s+	c #778D91",
"t+	c #312D2B",
"u+	c #142B38",
"v+	c #154861",
"w+	c #6D7E81",
"x+	c #322D2C",
"y+	c #15485F",
"z+	c #153A4F",
"A+	c #14435F",
"B+	c #143D53",
"C+	c #143D50",
"D+	c #14415F",
"E+	c #142D3D",
"F+	c #14405E",
"G+	c #14384F",
"H+	c #144563",
"I+	c #152D2A",
"J+	c #174140",
"K+	c #142229",
"L+	c #142B39",
"M+	c #15221E",
"N+	c #153534",
"O+	c #142A36",
"P+	c #141F20",
"Q+	c #143D57",
"R+	c #142D3A",
"S+	c #14405D",
"T+	c #141E22",
"U+	c #144463",
"V+	c #14405F",
"W+	c #677577",
"X+	c #155472",
"Y+	c #194B4C",
"Z+	c #155477",
"`+	c #152023",
" @	c #636F72",
".@	c #154965",
"+@	c #143447",
"@@	c #143849",
"#@	c #14485F",
"$@	c #677578",
"%@	c #141E23",
"&@	c #153247",
"*@	c #142932",
"=@	c #144763",
"-@	c #143549",
";@	c #18170C",
">@	c #181509",
",@	c #182226",
"'@	c #182427",
")@	c #18150A",
"!@	c #181408",
"~@	c #171710",
"{@	c #17384C",
"]@	c #626E70",
"^@	c #353124",
"/@	c #363123",
"(@	c #363124",
"_@	c #353227",
":@	c #353123",
"<@	c #342F20",
"[@	c #332D1F",
"}@	c #353023",
"|@	c #332E20",
"1@	c #342F22",
"2@	c #353125",
"3@	c #363125",
"4@	c #353228",
"5@	c #353126",
"6@	c #352F22",
"7@	c #353022",
"8@	c #342E20",
"9@	c #352F20",
"0@	c #68777A",
"a@	c #2B2A27",
"b@	c #252524",
"c@	c #282826",
"d@	c #272726",
"e@	c #5A5F62",
"f@	c #3E3B39",
"g@	c #778E94",
"h@	c #647074",
"i@	c #524F52",
"j@	c #3D3A38",
"k@	c #2B2926",
"l@	c #3A3432",
"m@	c #5F686B",
"n@	c #514C4F",
"o@	c #555557",
"p@	c #4F494B",
"q@	c #74888D",
"r@	c #3C3635",
"s@	c #2C2A28",
"t@	c #413E3E",
"u@	c #788F95",
"v@	c #5D6568",
"w@	c #6D7E83",
"x@	c #748B8F",
"y@	c #606B6D",
"z@	c #2A2A28",
"A@	c #504B4D",
"B@	c #4E4548",
"C@	c #5C6266",
"D@	c #73888D",
"E@	c #799298",
"F@	c #575F61",
"G@	c #585F61",
"H@	c #535154",
"I@	c #60686D",
"J@	c #7A9298",
"K@	c #4A4C4C",
"L@	c #292725",
"M@	c #50494B",
"N@	c #5A5D61",
"O@	c #4D5152",
"P@	c #38322F",
"Q@	c #0B0B0B",
"R@	c #090909",
"S@	c #606B6C",
"T@	c #2D2D2C",
"U@	c #262624",
"V@	c #5B6365",
"W@	c #7D989E",
"X@	c #060606",
"Y@	c #3B3C3A",
"Z@	c #6D8388",
"`@	c #6A8186",
" #	c #6C8287",
".#	c #5B696B",
"+#	c #5E6C6D",
"@#	c #5D6B6C",
"##	c #6B7B80",
"$#	c #627378",
"%#	c #636F71",
"&#	c #5A6668",
"*#	c #535A5C",
"=#	c #535B5D",
"-#	c #575E60",
";#	c #73898D",
">#	c #535053",
",#	c #65777C",
"'#	c #545B5D",
")#	c #4B484A",
"!#	c #565E60",
"~#	c #565D5F",
"{#	c #555658",
"]#	c #545C5E",
"^#	c #545356",
"/#	c #504E4E",
"(#	c #3C4141",
"_#	c #474C4D",
":#	c #4B4A4C",
"            .   . . . + @                                                                   .   . . . + @                 .     ",
". . . . . . . . . . . + @   . . . . . . . . . . . . . . . . . . . . . . . . . . . . . . . . . . . . . + @   . . . . . . . . . . ",
". . . . . . . . . . . + @   . . . . . . . . . . . . . . . . . . . . . . . . . . . . . . . . . . . . . + @   . . . . . . . . . . ",
". . . . . # $ % . . . + @   . # $ % . . . . . . . . . . . . . . . . . . . . . . . . . . . # $ % . . . + @   . # $ % . . . . . . ",
". . . . . & *   . . . + @   . & *   . . . . . . . . . . . . . . . . . . . . . . . . . . . & *   . . . + @   . & *   . . . . . . ",
". . . . . & = - . . . + @   . & = - . . . . . . . . . . . . . . . . . . . . . . . . . . . & = - . . . + @   . & = - . . . . . . ",
". . . . . ; ; . . . . + @   . ; ; . . . . . . . . . . . . . . . . . . . . . . . . . . . . ; ; . . . . + @   . ; ; . . . . . . . ",
"> > > > > > > > > > > , ' ) > > > > > > > > > > > > > > > > > > > > > > > > > > > > > > > > > > > > > , ' ) > > > > > > > > > > ",
"! ! ! ! ! ! ! ! ! ! ! ~ { ] ! ! ! ! ! ! ! ! ! ! ! ! ! ! ! ! ! ! ! ! ! ! ! ! ! ! ! ! ! ! ! ! ! ! ! ! ! ~ { ] ! ! ! ! ! ! ! ! ! ! ",
"> > > > > > > > > > > ^ / ( _ > > > > > > > > > > > > > > > > > > > > > > > > > > > > > > > > > > > > ^ / ( _ > > > > > > > > > ",
"                      : < [                                                                           : < [                     ",
"                      } | [                                                                           } | [                     ",
"                      1 2 [                                                                           1 2 [                     ",
"                      1 2 [                                                                           1 2 [                     ",
"                      1 2 [                                                                           1 2 [                     ",
"                      1 2 [                                                                           1 2 [                     ",
"                      3 2 4                                                                           3 2 4                     ",
"          5 5         6 2 7   8 %                                                         5 5         6 2 7   9                 ",
"        } | 0 0 0 0 a b c 0 0 0 0 0 0 0 0 0 0 0 0 d e f 0 0 0 0 0 0 c ' ' ' ' c c ' 0 0 0 0 0 0 0 0 0 b c 0 0 0 0 0 1 2 [       ",
"        1 2 g h i j j ' k l m n o p h p q r s q t u ' c g v w u x j y b z A B C C D j r E F 0 0 0 0 0 d + 0 0 0 0 0 1 2 [       ",
"        1 2 G H I J H K H L M N O H H H H H P Q G G R S T U V W X H G Y G H R R S Y G Z `  ...+.@.#.$.@.%.&.*.=.*.-.1 2 [       ",
"        1 2 K H H S S ;.G S >.,.'.H ).T !.H ~.{.].^.G S /.(._.:.H H H <.:.[.K K H G ;.H :.}.|.1.2.H K H H K S ;.G 3.1 2 [       ",
"        1 2 K <.4.H Q G G G 5.6.S 7.8.2.~.K 9.7.0.<.a.K R S H H R b.c.d.e.P R H f.H g.H H P h.i.+.{.K K 4.H Q G G T 3 2 4       ",
"        } | j.H k.l.G H H m.S G G S n.~.K a.o.p.H Y S H <.g.H T q.Y [.r.s.Y R t.u.R R a.S G :.J (.H v.H H S G H H w.} | [       ",
"        1 2 x.R k.y.G z.X H g.K A.G g.H Z G S G B.R G G G C.X J X G G H G G g.D.R S E.F.R G H /.H K G.R K R G H.P H 1 2 [       ",
"        1 2 G G H <.H I.J.G H K.O L.S H ].K H H G R S S R G :.X H H H Z !.T G Y G g.Y Y G M.N.H S Y G G H <.H O.P.<.1 2 [       ",
"        1 2 G Q.H H H H G a.H R.T H H g.Y G H H a.K K a.S a.H H H S.T.+.G._.Z R Y R R R <.{.H.T H G G B.q.H H H G R 1 2 [       ",
"        1 2 H H <.g.H H <.H 2.` X H U./.G B.V.<.H H g.<.W.H G Y g.Z +.X.Y.Z.T g.G S S <.K a.G ~.`.H H H <.K H H <.H 1 2 [       ",
"        3 2  +H R Y H H g.].x..+++X @+/.H X s.Y G X !.H G.H G G n.J .+#+$+%+n.R <.H K &+*+G g.q./.K =+H a.Y g.-+g.].3 2 4       ",
"        6 2 H <.g.G g.R f.;+` >+,+'+P H G ;.;.Y R X T K S M.H H Z ` ++)+!+G ~+G R H {+G ]+H <.H ^+R H <.g.G /+[.(+_+6 2 7       ",
"        :+2 a.R X {.g.Y ~.<+^+[+}+}._.H G ;.Y |+>+R G Y G X H H H X ~.1+2+3+n.4+5+].G H 6+H R a.g.S a.Y X {.g./+X }.:+2 7+      ",
"        6 2 R 8+X ~.].H H K R 9+0++.a+<.i.b+g.R G G g.G S R K Y <.H H <.R.5.c+H g.d+G e+g.f+2.R g+h+R i+(.~.!.H H g.6 2 j+      ",
"        k+2 g.l+/.X X H G.g.S R H /.G R G.q.G R {.X !.H m+K H G R S G R !.n+R q.g.o+K g.G Z X g.p+q+g.r+Z X X H G.g.k+2 s+      ",
"        t++ Y S H H R <.g.G Y R Y R R R Y R H ].f.u++.{.H g.v+H <.K <.S !.{.H B.^+K G <.H :.(.G G g.Y c+H H R <.g.G t++ w+      ",
"        x++ K {.X T <.;.R Y Y y+z+G g.S Y K {.Q.A+B++.T H H C+<.H H D+H H H H G Y R Y G H {.~.H R K K {.X T <.;.R Y x++ w+      ",
"        + + {.E+F+x.H G G Z S R Y G B.H H Z ` G+H+x.T R G H !.P I+J+<.`.{.K H Y R ;.G H K+].g.H <.H T E+F+x./.G G q.+ + w+      ",
"        + + {.f.F+L+Z H g.{.K R R R G M+N+n.` O+G.!.S Y g.].P+!.G ]+Y <.H Y R R Q+q.R g.S Y G H Y R T f.F+R+T H g.{.+ + w+      ",
"        + + H ].J (.H H S+H G R u.T+a.G Y S {.X Z S G.H.{.a+].<.R Y G R G Y ;.;.G Y <.g.;.G H U+K G H {.J (.H H V+H + + W+      ",
"        + + H X+q.H H H H K G Y l.Y+a.<.R a.H H G Y l+z./.{.H H a.G |+G ;.Y G <.a.R g.H <.Z+H H g.G H j.`+H H H H K + +  @      ",
"        + + H q.Y <.S ;.S S R G y.y.R H `.x.W J .@+@K G H H @@#@R ;.<.R a.R Y H H (.G a.K T H ~.Y R g.q.Y <.g.;.<.S + + $@      ",
"        + + <.R <.g.<.G %@&@S R G G R <.`.*@=@-@~.;@>@>@,@'@)@>@#.#.;.G H G Y ;@>@)@!@!@!@>@)@@.~@{@S R <.g.<.G T+Y.+ + ]@      ",
"        + + ^@/@(@_@^@:@<@[@^@:@/@:@}@|@1@2@(@3@(@2@/@^@4@5@5@5@^@6@7@/@6@8@[@/@/@/@/@/@/@/@/@/@/@/@9@9@/@(@/@/@/@/@+ + 0@      ",
"        + a@0 0 0 0 b@b@0 0 0 0 0 0 a d 0 0 0 0 0 0 0 0 c c c c@0 d a c@c d@b b@0 0 c@c ' ' 0 0 0 0 b b 0 0 0 0 0 0 + a@        ",
"          e@%         f@' $                                                                           1 ' g@h@                  ",
"          i@$         j@k@$                                                                           l@' g@m@n@o@              ",
"          p@q@        r@s@$                                                                           t@' u@v@w@$               ",
"          # #         r@s@$   o@x@y@                                                          % e@    t@z@u@h@A@B@              ",
" @ @ @ @ @ @ @ @   @  r@s@$   o@$ y@                                                          e@C@D@  t@1 $     o@ @ @ @ @ @ @ @",
"E@E@E@E@E@E@E@E@F@E@G@r@s@$ 9 # o@                                                            H@I@J@  K@1 ^ G@E@F@E@E@E@E@E@E@E@",
"@ @ @ @ @ @ @ @ @ @ @ 1 L@$   A@A@                                                            o@M@N@  O@P@@ @ @ @ @ @ @ @ @ @ @ ",
"Q@R@@ R@Q@R@R@R@Q@R@@ @ P@  y@  y@S@S@S@S@S@y@  y@  y@  y@          y@  y@S@S@S@S@S@y@  y@S@S@y@  y@  P@@ @ R@R@R@Q@R@@ R@Q@R@R@",
"T@+ @ U@T@+ + U@T@+ @ @ @ V@W@5 W@W@W@W@W@W@W@5 W@5 W@5 W@V@V@V@V@V@W@5 W@W@W@W@W@W@W@5 W@W@W@W@5 W@V@@ @ X@+ + U@T@+ @ U@T@+ + ",
"Y@+ @ Y@Y@T@+ Y@Y@+ @ X@@ @ @ @ @ @ @ @ @ @ @ @ @ @ @ @ @ @ @ @ @ @ @ @ @ @ @ @ @ @ @ @ @ @ @ @ @ @ @ @ X@T@T@+ Y@Y@+ @ Y@Y@T@+ ",
"Y@+ @ Y@Y@T@T@Y@Y@+ @ + @ @ @ @ @ @ @ @ @ @ @ @ @ @ @ @ @ @ @ @ @ @ @ @ @ @ @ @ @ @ @ @ @ @ @ @ @ @ @ @ T@Y@T@T@Y@Y@+ @ Y@Y@T@T@",
"Y@+ @ Y@Y@T@T@Y@Y@+ @ Y@T@+ + + T@+ @ + T@+ + + T@+ @ + T@+ + + T@+ @ + T@+ + + T@+ @ + T@+ + + T@+ @ T@Y@Y@T@T@Y@Y@+ @ Y@Y@T@T@",
"Y@T@+ Y@Y@T@T@Y@Y@T@+ Y@Y@T@T@Y@Y@+ @ Y@Y@T@T@Y@Y@+ @ Y@Y@T@T@Y@Y@+ @ Y@Y@T@T@Y@Y@+ @ Y@Y@T@T@Y@Y@+ @ Y@Y@Y@T@T@Y@Y@T@+ Y@Y@T@T@",
"Z@`@`@Z@Z@ #`@Z@Z@.#`@Z@Z@ #.#Z@+#`@.#Z@+# #.#+#+#.#.#+#Z@@#`@+#Z@.#`@Z@Z@ #`@Z@Z@`@`@Z@Z@ #`@Z@Z@`@`@Z@Z@ #`@Z@Z@.#`@Z@Z@ #.#Z@",
"################$#%#########%###%###%###%###%#%#%#&#%#%###%###%###%###########$###$#############$###$###########$#%#########%###",
"  *#          *#F@                            *#*#F@                          F@*#F@            F@*#F@        *#F@              ",
"=#-#  ;#=#    -#      ;#=#            ;#=#    . -#    ;#=#            ;#=#    =#-#    ;#=#      =#-#  ;#=#    -#      ;#=#      ",
"-#  >#,#.           >#,#.           >#,#.   =#-#=#  >#,#.           >#,#.     -#    >#,#.     =#-#  >#,#.           >#,#.     =#",
"'#  & )#!#          & )#!#          & )#!#  !#'#!#  & )#!#          & )#!#          & )#!#  '#.     & )#!#          & )#!#  '#!#",
"~#  {#{#            {#{#            {#{#    ]#~#    {#{#            {#{#]#          {#{#    . ~#    {#{#            {#{#  ]#~#]#",
"^#/#/#/#/#/#/#^#/#^#/#^#^#^#^#^#^#^#/#^#/#^#(#^#_#^#_#_#_#_#^#_#^#^#^#^#:#^#^#^#/#^#/#^#^#/#:#/#^#/#/#/#/#/#/#^#/#^#/#^#^#:#^#:#"};
