/* XPM */
static char * SO4_xpm[] = {
"64 64 405 2",
"  	c #5D6567",
". 	c #4C5455",
"+ 	c #252523",
"@ 	c #000000",
"# 	c #4B3F42",
"$ 	c #7E989E",
"% 	c #5C6466",
"& 	c #4B3E41",
"* 	c #606C6E",
"= 	c #4E4448",
"- 	c #4E5758",
"; 	c #4C5153",
"> 	c #5A6264",
", 	c #37312F",
"' 	c #222220",
") 	c #7B9398",
"! 	c #505859",
"~ 	c #2A2926",
"{ 	c #111110",
"] 	c #647275",
"^ 	c #36312E",
"/ 	c #21211F",
"( 	c #7A9297",
"_ 	c #5A6163",
": 	c #2A2927",
"< 	c #111111",
"[ 	c #809BA1",
"} 	c #35302E",
"| 	c #20201E",
"1 	c #3A3331",
"2 	c #252423",
"3 	c #2E2B29",
"4 	c #758A8E",
"5 	c #5B6264",
"6 	c #322E2C",
"7 	c #799095",
"8 	c #56585A",
"9 	c #5A5F61",
"0 	c #292928",
"a 	c #282827",
"b 	c #242423",
"c 	c #232322",
"d 	c #262625",
"e 	c #232323",
"f 	c #222221",
"g 	c #292929",
"h 	c #282A2B",
"i 	c #272B2D",
"j 	c #282A2A",
"k 	c #26292A",
"l 	c #27343E",
"m 	c #272F36",
"n 	c #272A2C",
"o 	c #262A2C",
"p 	c #272A2A",
"q 	c #27292A",
"r 	c #262B2E",
"s 	c #262A2D",
"t 	c #28292A",
"u 	c #282D32",
"v 	c #292A2A",
"w 	c #282D31",
"x 	c #282A2C",
"y 	c #272727",
"z 	c #252626",
"A 	c #242728",
"B 	c #242B2F",
"C 	c #242B30",
"D 	c #273641",
"E 	c #262D30",
"F 	c #272D30",
"G 	c #141711",
"H 	c #141915",
"I 	c #141F23",
"J 	c #142226",
"K 	c #141814",
"L 	c #141F1B",
"M 	c #141913",
"N 	c #15271E",
"O 	c #15241E",
"P 	c #141E1F",
"Q 	c #141815",
"R 	c #141510",
"S 	c #141813",
"T 	c #141C18",
"U 	c #142429",
"V 	c #143140",
"W 	c #142A35",
"X 	c #141E1E",
"Y 	c #14150F",
"Z 	c #141B18",
"` 	c #142327",
" .	c #143448",
"..	c #143950",
"+.	c #142427",
"@.	c #171811",
"#.	c #15150C",
"$.	c #17150F",
"%.	c #171C1B",
"&.	c #171E1C",
"*.	c #17170F",
"=.	c #17170D",
"-.	c #171C17",
";.	c #14150D",
">.	c #152219",
",.	c #152726",
"'.	c #172A29",
").	c #143C56",
"!.	c #141C1C",
"~.	c #142023",
"{.	c #141C19",
"].	c #141C1B",
"^.	c #173836",
"/.	c #141917",
"(.	c #142022",
"_.	c #142326",
":.	c #141F1F",
"<.	c #141713",
"[.	c #183E3D",
"}.	c #142F3D",
"|.	c #144C71",
"1.	c #14384E",
"2.	c #142024",
"3.	c #1B5050",
"4.	c #26888B",
"5.	c #141F19",
"6.	c #176186",
"7.	c #151C18",
"8.	c #151814",
"9.	c #15201C",
"0.	c #152022",
"a.	c #173431",
"b.	c #141F22",
"c.	c #141511",
"d.	c #183D3C",
"e.	c #172724",
"f.	c #151F23",
"g.	c #14272F",
"h.	c #141914",
"i.	c #142B3A",
"j.	c #143143",
"k.	c #278F92",
"l.	c #1E5E5E",
"m.	c #142320",
"n.	c #1C728B",
"o.	c #15526E",
"p.	c #194747",
"q.	c #194745",
"r.	c #141B15",
"s.	c #141B17",
"t.	c #152420",
"u.	c #152924",
"v.	c #141918",
"w.	c #172D2A",
"x.	c #172B29",
"y.	c #142027",
"z.	c #153836",
"A.	c #151511",
"B.	c #1E5E5F",
"C.	c #155878",
"D.	c #183E3E",
"E.	c #248386",
"F.	c #14201B",
"G.	c #14272E",
"H.	c #194544",
"I.	c #14262F",
"J.	c #151E1C",
"K.	c #14242D",
"L.	c #153D5B",
"M.	c #173632",
"N.	c #143C54",
"O.	c #152026",
"P.	c #142731",
"Q.	c #14242B",
"R.	c #299396",
"S.	c #143145",
"T.	c #142227",
"U.	c #172A20",
"V.	c #142019",
"W.	c #142026",
"X.	c #15384F",
"Y.	c #142F3E",
"Z.	c #142329",
"`.	c #14262E",
" +	c #141E19",
".+	c #154B68",
"++	c #14323E",
"@+	c #154865",
"#+	c #142F41",
"$+	c #153850",
"%+	c #143D54",
"&+	c #143A52",
"*+	c #142F31",
"=+	c #141E1C",
"-+	c #153D5A",
";+	c #14364B",
">+	c #142D3C",
",+	c #14313D",
"'+	c #144B6D",
")+	c #142B32",
"!+	c #142220",
"~+	c #1B4444",
"{+	c #142F43",
"]+	c #15405E",
"^+	c #144358",
"/+	c #143D56",
"(+	c #144C70",
"_+	c #142A32",
":+	c #153641",
"<+	c #152E2B",
"[+	c #17393C",
"}+	c #183D3A",
"|+	c #151E19",
"1+	c #141714",
"2+	c #152622",
"3+	c #1F686A",
"4+	c #14455D",
"5+	c #2F2B2A",
"6+	c #268688",
"7+	c #184B53",
"8+	c #1E6265",
"9+	c #1E6872",
"0+	c #14242E",
"a+	c #142626",
"b+	c #151E18",
"c+	c #141E20",
"d+	c #142735",
"e+	c #141C17",
"f+	c #768B8F",
"g+	c #143247",
"h+	c #227475",
"i+	c #278D8F",
"j+	c #299295",
"k+	c #1E5F5F",
"l+	c #1E6163",
"m+	c #142020",
"n+	c #141C1E",
"o+	c #141811",
"p+	c #173D3C",
"q+	c #152422",
"r+	c #141B19",
"s+	c #1C5654",
"t+	c #143144",
"u+	c #788F94",
"v+	c #302C2B",
"w+	c #142935",
"x+	c #183C3A",
"y+	c #248688",
"z+	c #1E5D5D",
"A+	c #155D7F",
"B+	c #142424",
"C+	c #152B27",
"D+	c #142732",
"E+	c #778D91",
"F+	c #312D2B",
"G+	c #142B38",
"H+	c #154861",
"I+	c #6D7E81",
"J+	c #322D2C",
"K+	c #24878D",
"L+	c #153A4F",
"M+	c #14435F",
"N+	c #143D53",
"O+	c #143D50",
"P+	c #14415F",
"Q+	c #142D3D",
"R+	c #14405E",
"S+	c #14384F",
"T+	c #144563",
"U+	c #152D2A",
"V+	c #174140",
"W+	c #142229",
"X+	c #142B39",
"Y+	c #15221E",
"Z+	c #153534",
"`+	c #142A36",
" @	c #141F20",
".@	c #143D57",
"+@	c #142D3A",
"@@	c #14405D",
"#@	c #141E22",
"$@	c #144463",
"%@	c #14405F",
"&@	c #677577",
"*@	c #155472",
"=@	c #194B4C",
"-@	c #155477",
";@	c #152023",
">@	c #636F72",
",@	c #154965",
"'@	c #143447",
")@	c #143849",
"!@	c #14485F",
"~@	c #677578",
"{@	c #141E23",
"]@	c #153247",
"^@	c #142932",
"/@	c #144763",
"(@	c #143549",
"_@	c #18170C",
":@	c #181509",
"<@	c #182226",
"[@	c #182427",
"}@	c #18150A",
"|@	c #181408",
"1@	c #171710",
"2@	c #17384C",
"3@	c #626E70",
"4@	c #353124",
"5@	c #363123",
"6@	c #363124",
"7@	c #353227",
"8@	c #353123",
"9@	c #342F20",
"0@	c #332D1F",
"a@	c #353023",
"b@	c #332E20",
"c@	c #342F22",
"d@	c #353125",
"e@	c #363125",
"f@	c #353228",
"g@	c #353126",
"h@	c #352F22",
"i@	c #353022",
"j@	c #342E20",
"k@	c #352F20",
"l@	c #68777A",
"m@	c #2B2A27",
"n@	c #252524",
"o@	c #282826",
"p@	c #272726",
"q@	c #5A5F62",
"r@	c #3E3B39",
"s@	c #778E94",
"t@	c #647074",
"u@	c #524F52",
"v@	c #3D3A38",
"w@	c #2B2926",
"x@	c #3A3432",
"y@	c #5F686B",
"z@	c #514C4F",
"A@	c #555557",
"B@	c #4F494B",
"C@	c #74888D",
"D@	c #3C3635",
"E@	c #2C2A28",
"F@	c #413E3E",
"G@	c #788F95",
"H@	c #5D6568",
"I@	c #6D7E83",
"J@	c #748B8F",
"K@	c #606B6D",
"L@	c #2A2A28",
"M@	c #504B4D",
"N@	c #4E4548",
"O@	c #5C6266",
"P@	c #73888D",
"Q@	c #799298",
"R@	c #575F61",
"S@	c #585F61",
"T@	c #535154",
"U@	c #60686D",
"V@	c #7A9298",
"W@	c #4A4C4C",
"X@	c #292725",
"Y@	c #50494B",
"Z@	c #5A5D61",
"`@	c #4D5152",
" #	c #38322F",
".#	c #0B0B0B",
"+#	c #090909",
"@#	c #606B6C",
"##	c #2D2D2C",
"$#	c #262624",
"%#	c #5B6365",
"&#	c #7D989E",
"*#	c #060606",
"=#	c #3B3C3A",
"-#	c #6D8388",
";#	c #6A8186",
">#	c #6C8287",
",#	c #5B696B",
"'#	c #5E6C6D",
")#	c #5D6B6C",
"!#	c #6B7B80",
"~#	c #627378",
"{#	c #636F71",
"]#	c #5A6668",
"^#	c #535A5C",
"/#	c #535B5D",
"(#	c #575E60",
"_#	c #73898D",
":#	c #535053",
"<#	c #65777C",
"[#	c #545B5D",
"}#	c #4B484A",
"|#	c #565E60",
"1#	c #565D5F",
"2#	c #555658",
"3#	c #545C5E",
"4#	c #545356",
"5#	c #504E4E",
"6#	c #3C4141",
"7#	c #474C4D",
"8#	c #4B4A4C",
"            .   . . . + @                                                                   .   . . . + @                 .     ",
". . . . . . . . . . . + @   . . . . . . . . . . . . . . . . . . . . . . . . . . . . . . . . . . . . . + @   . . . . . . . . . . ",
". . . . . . . . . . . + @   . . . . . . . . . . . . . . . . . . . . . . . . . . . . . . . . . . . . . + @   . . . . . . . . . . ",
". . . . . # $ % . . . + @   . # $ % . . . . . . . . . . . . . . . . . . . . . . . . . . . # $ % . . . + @   . # $ % . . . . . . ",
". . . . . & *   . . . + @   . & *   . . . . . . . . . . . . . . . . . . . . . . . . . . . & *   . . . + @   . & *   . . . . . . ",
". . . . . & = - . . . + @   . & = - . . . . . . . . . . . . . . . . . . . . . . . . . . . & = - . . . + @   . & = - . . . . . . ",
". . . . . ; ; . . . . + @   . ; ; . . . . . . . . . . . . . . . . . . . . . . . . . . . . ; ; . . . . + @   . ; ; . . . . . . . ",
"> > > > > > > > > > > , ' ) > > > > > > > > > > > > > > > > > > > > > > > > > > > > > > > > > > > > > , ' ) > > > > > > > > > > ",
"! ! ! ! ! ! ! ! ! ! ! ~ { ] ! ! ! ! ! ! ! ! ! ! ! ! ! ! ! ! ! ! ! ! ! ! ! ! ! ! ! ! ! ! ! ! ! ! ! ! ! ~ { ] ! ! ! ! ! ! ! ! ! ! ",
"> > > > > > > > > > > ^ / ( _ > > > > > > > > > > > > > > > > > > > > > > > > > > > > > > > > > > > > ^ / ( _ > > > > > > > > > ",
"                      : < [                                                                           : < [                     ",
"                      } | [                                                                           } | [                     ",
"                      1 2 [                                                                           1 2 [                     ",
"                      1 2 [                                                                           1 2 [                     ",
"                      1 2 [                                                                           1 2 [                     ",
"                      1 2 [                                                                           1 2 [                     ",
"                      3 2 4                                                                           3 2 4                     ",
"          5 5         6 2 7   8 %                                                         5 5         6 2 7   9                 ",
"        } | 0 0 0 0 a b c 0 0 0 0 0 0 0 0 0 0 0 0 d e f 0 0 0 0 0 0 c ' ' ' ' c c ' 0 0 0 0 0 0 0 0 0 b c 0 0 0 0 0 1 2 [       ",
"        1 2 g h i j j ' k l m n o p h p q r s q t u ' c g v w u x j y b z A B C C D j r E F 0 0 0 0 0 d + 0 0 0 0 0 1 2 [       ",
"        1 2 G H I J H K H L M N O H H H H H P Q G G R S T U V W X H G Y G H R R S Y G Z `  ...+.@.#.$.@.%.&.*.=.*.-.1 2 [       ",
"        1 2 K H H S S ;.G S >.,.'.H ).T !.H ~.{.].^.G S /.(._.:.H H H <.:.[.K K H G ;.H :.}.|.1.2.H K 3.4.K S ;.G 5.1 2 [       ",
"        1 2 K <.6.H Q G G G 7.8.S 9.0.2.~.K a.9.b.<.c.K R S H H R d.'.e.f.!.R H g.H h.H H P i.j.+.k.l.m.n.H Q G G T 3 2 4       ",
"        } | o.H p.q.G H H r.S G G S s.~.K c.t.u.H Y S H <.h.H T v.Y w.x.y.Y R z.A.R R c.S G :.J (.B.C.H H S G D.E.F.} | [       ",
"        1 2 G.R p.H.G I.X H h.K J.G h.H Z G S G K.R G G G L.X J X G G H G G h.M.R S N.O.R G H /.H K P.R K R G Q.R.H 1 2 [       ",
"        1 2 G G H <.H S.T.G H U.O V.S H ].K H H G R S S R G :.X H H H Z !.T G Y G h.Y Y G W.X.H S Y G G H <.H Y.Z.<.1 2 [       ",
"        1 2 G `.H H H H G c.H  +T H H h.Y G H H c.K K c.S c.H H H .++++.P._.Z R Y R R R <.{.Q.T H G G K.v.H H H G R 1 2 [       ",
"        1 2 H H <.h.H H <.H 2.` X H @+/.G K.#+<.H H h.<.$+H G Y h.Z +.%+&+*+T h.G S S <.K c.G ~.=+H H H <.K H H <.H 1 2 [       ",
"        3 2 -+H R Y H H h.].G.;+>+X ,+/.H X y.Y G X !.H P.H G G s.J ;+'+)+!+s.R <.H K ~+{+G h.v./.K ]+H c.Y S H.h.].3 2 4       ",
"        6 2 H <.h.G h.R g.^+` /+(+_+P H G ;.;.Y R X T K S W.H H Z ` >+:+<+G [+G R H }+G |+H <.H 1+R H <.h.G 2+G 3+4+6 2 7       ",
"        5+2 c.R X {.h.Y 6+7+1+8+9+}._.H G ;.Y 0+/+R G Y G X H H H X ~.a+b+2+s.c+d+].G H x.H R c.h.S c.Y X {.h.e+Z }.5+2 f+      ",
"        6 2 R g+X ~.].h+i+j+R k+l++.m+<.j.n+h.R G G h.G S R K Y <.H H <. +7.o+H h.p+G q+h.r+2.R s+x.R t+(.~.].K H h.6 2 u+      ",
"        v+2 h.w+/.X X x+y+z+S R H /.G R P.v.G R {.X !.H A+K H G R S G R !.B+R v.h.C+K h.G Z X h.H.2+h.D+Z X X H P.h.v+2 E+      ",
"        F++ Y S H H R <.h.G R.d.Y R R R Y R H ].g.G++.{.H h.H+H <.K <.S !.{.H K.1+K G <.H :.(.G G h.Y o+H H R <.h.G F++ I+      ",
"        J++ K {.X T <.;.R Y Y K+L+G h.S Y K {.`.M+N++.T H H O+<.H H P+H H H H G Y R Y G H {.~.H R K K {.X T <.;.R Y J++ I+      ",
"        + + {.Q+R+G.H G G Z S R Y G K.H H Z ` S+T+G.T R G H !.P U+V+<.=+{.K H Y R ;.G H W+].h.H <.H T Q+R+G./.G G v.+ + I+      ",
"        + + {.g.R+X+Z H h.{.K R R R G Y+Z+s.` `+P.!.S Y h.]. @!.G |+Y <.H Y R R .@v.R h.S Y G H Y R T g.R++@T H h.{.+ + I+      ",
"        + + H ].J (.H H @@H G R A.#@c.G Y S {.X Z S P.Q.{.m+].<.R Y G R G Y ;.;.G Y <.h.;.G H $@K G H {.J (.H H %@H + + &@      ",
"        + + H *@v.H H H H K G Y q.=@c.<.R c.H H G Y w+I./.{.H H c.G 0+G ;.Y G <.c.R h.H <.-@H H h.G H o.;@H H H H K + + >@      ",
"        + + H v.Y <.S ;.S S R G H.H.R H =+G.W J ,@'@K G H H )@!@R ;.<.R c.R Y H H (.G c.K T H ~.Y R h.v.Y <.h.;.<.S + + ~@      ",
"        + + <.R <.h.<.G {@]@S R G G R <.=+^@/@(@~._@:@:@<@[@}@:@#.#.;.G H G Y _@:@}@|@|@|@:@}@@.1@2@S R <.h.<.G #@&++ + 3@      ",
"        + + 4@5@6@7@4@8@9@0@4@8@5@8@a@b@c@d@6@e@6@d@5@4@f@g@g@g@4@h@i@5@h@j@0@5@5@5@5@5@5@5@5@5@5@5@k@k@5@6@5@5@5@5@+ + l@      ",
"        + m@0 0 0 0 n@n@0 0 0 0 0 0 a d 0 0 0 0 0 0 0 0 c c c o@0 d a o@c p@b n@0 0 o@c ' ' 0 0 0 0 b b 0 0 0 0 0 0 + m@        ",
"          q@%         r@' $                                                                           1 ' s@t@                  ",
"          u@$         v@w@$                                                                           x@' s@y@z@A@              ",
"          B@C@        D@E@$                                                                           F@' G@H@I@$               ",
"          # #         D@E@$   A@J@K@                                                          % q@    F@L@G@t@M@N@              ",
">@>@>@>@>@>@>@>@  >@  D@E@$   A@$ K@                                                          q@O@P@  F@1 $     A@>@>@>@>@>@>@>@",
"Q@Q@Q@Q@Q@Q@Q@Q@R@Q@S@D@E@$ 9 # A@                                                            T@U@V@  W@1 ^ S@Q@R@Q@Q@Q@Q@Q@Q@Q@",
"@ @ @ @ @ @ @ @ @ @ @ 1 X@$   M@M@                                                            A@Y@Z@  `@ #@ @ @ @ @ @ @ @ @ @ @ ",
".#+#@ +#.#+#+#+#.#+#@ @  #  K@  K@@#@#@#@#@#K@  K@  K@  K@          K@  K@@#@#@#@#@#K@  K@@#@#K@  K@   #@ @ +#+#+#.#+#@ +#.#+#+#",
"##+ @ $###+ + $###+ @ @ @ %#&#5 &#&#&#&#&#&#&#5 &#5 &#5 &#%#%#%#%#%#&#5 &#&#&#&#&#&#&#5 &#&#&#&#5 &#%#@ @ *#+ + $###+ @ $###+ + ",
"=#+ @ =#=###+ =#=#+ @ *#@ @ @ @ @ @ @ @ @ @ @ @ @ @ @ @ @ @ @ @ @ @ @ @ @ @ @ @ @ @ @ @ @ @ @ @ @ @ @ @ *#####+ =#=#+ @ =#=###+ ",
"=#+ @ =#=#####=#=#+ @ + @ @ @ @ @ @ @ @ @ @ @ @ @ @ @ @ @ @ @ @ @ @ @ @ @ @ @ @ @ @ @ @ @ @ @ @ @ @ @ @ ##=#####=#=#+ @ =#=#####",
"=#+ @ =#=#####=#=#+ @ =###+ + + ##+ @ + ##+ + + ##+ @ + ##+ + + ##+ @ + ##+ + + ##+ @ + ##+ + + ##+ @ ##=#=#####=#=#+ @ =#=#####",
"=###+ =#=#####=#=###+ =#=#####=#=#+ @ =#=#####=#=#+ @ =#=#####=#=#+ @ =#=#####=#=#+ @ =#=#####=#=#+ @ =#=#=#####=#=###+ =#=#####",
"-#;#;#-#-#>#;#-#-#,#;#-#-#>#,#-#'#;#,#-#'#>#,#'#'#,#,#'#-#)#;#'#-#,#;#-#-#>#;#-#-#;#;#-#-#>#;#-#-#;#;#-#-#>#;#-#-#,#;#-#-#>#,#-#",
"!#!#!#!#!#!#!#!#~#{#!#!#!#!#{#!#{#!#{#!#{#!#{#{#{#]#{#{#!#{#!#{#!#{#!#!#!#!#!#~#!#~#!#!#!#!#!#!#~#!#~#!#!#!#!#!#~#{#!#!#!#!#{#!#",
"  ^#          ^#R@                            ^#^#R@                          R@^#R@            R@^#R@        ^#R@              ",
"/#(#  _#/#    (#      _#/#            _#/#    . (#    _#/#            _#/#    /#(#    _#/#      /#(#  _#/#    (#      _#/#      ",
"(#  :#<#.           :#<#.           :#<#.   /#(#/#  :#<#.           :#<#.     (#    :#<#.     /#(#  :#<#.           :#<#.     /#",
"[#  & }#|#          & }#|#          & }#|#  |#[#|#  & }#|#          & }#|#          & }#|#  [#.     & }#|#          & }#|#  [#|#",
"1#  2#2#            2#2#            2#2#    3#1#    2#2#            2#2#3#          2#2#    . 1#    2#2#            2#2#  3#1#3#",
"4#5#5#5#5#5#5#4#5#4#5#4#4#4#4#4#4#4#5#4#5#4#6#4#7#4#7#7#7#7#4#7#4#4#4#4#8#4#4#4#5#4#5#4#4#5#8#5#4#5#5#5#5#5#5#4#5#4#5#4#4#8#4#8#"};
