/* XPM */
static char * SO5_xpm[] = {
"64 64 366 2",
"  	c #5D6567",
". 	c #4C5455",
"+ 	c #252523",
"@ 	c #000000",
"# 	c #4B3F42",
"$ 	c #7E989E",
"% 	c #5C6466",
"& 	c #4B3E41",
"* 	c #606C6E",
"= 	c #4E4448",
"- 	c #4E5758",
"; 	c #4C5153",
"> 	c #5A6264",
", 	c #37312F",
"' 	c #222220",
") 	c #7B9398",
"! 	c #505859",
"~ 	c #2A2926",
"{ 	c #111110",
"] 	c #647275",
"^ 	c #36312E",
"/ 	c #21211F",
"( 	c #7A9297",
"_ 	c #5A6163",
": 	c #2A2927",
"< 	c #111111",
"[ 	c #809BA1",
"} 	c #35302E",
"| 	c #20201E",
"1 	c #3A3331",
"2 	c #252423",
"3 	c #2E2B29",
"4 	c #758A8E",
"5 	c #5B6264",
"6 	c #322E2C",
"7 	c #799095",
"8 	c #56585A",
"9 	c #5A5F61",
"0 	c #292928",
"a 	c #282827",
"b 	c #242423",
"c 	c #232322",
"d 	c #262625",
"e 	c #232323",
"f 	c #222221",
"g 	c #292929",
"h 	c #282A2B",
"i 	c #272B2D",
"j 	c #282A2A",
"k 	c #26292A",
"l 	c #27343E",
"m 	c #272F36",
"n 	c #272A2C",
"o 	c #262A2C",
"p 	c #272A2A",
"q 	c #27292A",
"r 	c #262B2E",
"s 	c #262A2D",
"t 	c #28292A",
"u 	c #282D32",
"v 	c #292A2A",
"w 	c #282D31",
"x 	c #282A2C",
"y 	c #272727",
"z 	c #252626",
"A 	c #242728",
"B 	c #242B2F",
"C 	c #242B30",
"D 	c #273641",
"E 	c #262D30",
"F 	c #272D30",
"G 	c #141713",
"H 	c #141915",
"I 	c #151F22",
"J 	c #152024",
"K 	c #141814",
"L 	c #141F1B",
"M 	c #141914",
"N 	c #15261E",
"O 	c #15231E",
"P 	c #141E1F",
"Q 	c #141815",
"R 	c #141511",
"S 	c #141C19",
"T 	c #152327",
"U 	c #15313D",
"V 	c #152934",
"W 	c #141E1E",
"X 	c #141510",
"Y 	c #141B18",
"Z 	c #152226",
"` 	c #153445",
" .	c #15384B",
"..	c #152326",
"+.	c #171813",
"@.	c #15150D",
"#.	c #171510",
"$.	c #171C1B",
"%.	c #171E1C",
"&.	c #171710",
"*.	c #17170F",
"=.	c #171C17",
"-.	c #14150F",
";.	c #141F19",
">.	c #172922",
",.	c #183536",
"'.	c #182F2E",
").	c #153A50",
"!.	c #141C18",
"~.	c #141C1C",
"{.	c #152022",
"].	c #141E1C",
"^.	c #141917",
"/.	c #152020",
"(.	c #152224",
"_.	c #141F1F",
":.	c #141714",
"<.	c #184E69",
"[.	c #152F3A",
"}.	c #17496C",
"|.	c #153849",
"1.	c #152023",
"2.	c #195D7F",
"3.	c #141E18",
"4.	c #183436",
"5.	c #152320",
"6.	c #152E2D",
"7.	c #172A2A",
"8.	c #141513",
"9.	c #15232A",
"0.	c #15262E",
"a.	c #152A39",
"b.	c #153140",
"c.	c #173638",
"d.	c #151E1B",
"e.	c #172D2A",
"f.	c #172624",
"g.	c #141918",
"h.	c #152938",
"i.	c #152026",
"j.	c #1F7D7D",
"k.	c #151513",
"l.	c #18506E",
"m.	c #15262D",
"n.	c #15242E",
"o.	c #141B17",
"p.	c #152929",
"q.	c #172D2E",
"r.	c #15231F",
"s.	c #173C56",
"t.	c #183531",
"u.	c #153A4F",
"v.	c #15262F",
"w.	c #153143",
"x.	c #172920",
"y.	c #141C15",
"z.	c #141C1B",
"A.	c #173849",
"B.	c #152F3C",
"C.	c #152227",
"D.	c #15242D",
"E.	c #141E19",
"F.	c #184961",
"G.	c #15323C",
"H.	c #1E5B70",
"I.	c #152F3E",
"J.	c #17384B",
"K.	c #153C4F",
"L.	c #15394C",
"M.	c #152F2F",
"N.	c #173C54",
"O.	c #153648",
"P.	c #152D39",
"Q.	c #2D8E95",
"R.	c #174968",
"S.	c #131F22",
"T.	c #111B17",
"U.	c #153141",
"V.	c #153649",
"W.	c #173E58",
"X.	c #154153",
"Y.	c #153C50",
"Z.	c #17496A",
"`.	c #31A0A5",
" +	c #246E72",
".+	c #17353D",
"++	c #174E4C",
"@+	c #184545",
"#+	c #19545B",
"$+	c #174457",
"%+	c #2F2B2A",
"&+	c #152E39",
"*+	c #277D82",
"=+	c #194040",
"-+	c #1C4B4C",
";+	c #2D8A8F",
">+	c #15232D",
",+	c #131E1B",
"'+	c #111813",
")+	c #111814",
"!+	c #183E41",
"~+	c #152F3D",
"{+	c #153245",
"]+	c #151F20",
"^+	c #768B8F",
"/+	c #153244",
"(+	c #151F1F",
"_+	c #194450",
":+	c #236E72",
"<+	c #10140F",
"[+	c #141813",
"}+	c #1C6C6D",
"|+	c #141B19",
"1+	c #788F94",
"2+	c #302C2B",
"3+	c #152734",
"4+	c #185879",
"5+	c #131B19",
"6+	c #152323",
"7+	c #194F4E",
"8+	c #152631",
"9+	c #778D91",
"0+	c #312D2B",
"a+	c #152A36",
"b+	c #18475B",
"c+	c #6D7E81",
"d+	c #322D2C",
"e+	c #18475A",
"f+	c #173949",
"g+	c #17415A",
"h+	c #153C4E",
"i+	c #153C4B",
"j+	c #17405A",
"k+	c #152D3A",
"l+	c #17445D",
"m+	c #183635",
"n+	c #1B5050",
"o+	c #152A38",
"p+	c #1B4F4E",
"q+	c #1C6565",
"r+	c #152935",
"s+	c #183232",
"t+	c #1B4C4C",
"u+	c #153C52",
"v+	c #173E57",
"w+	c #141E20",
"x+	c #14140F",
"y+	c #17435D",
"z+	c #173E5A",
"A+	c #677577",
"B+	c #18506D",
"C+	c #185071",
"D+	c #636F72",
"E+	c #18485E",
"F+	c #153444",
"G+	c #153647",
"H+	c #17475A",
"I+	c #677578",
"J+	c #151E22",
"K+	c #173244",
"L+	c #152731",
"M+	c #17455D",
"N+	c #153547",
"O+	c #18170D",
"P+	c #18150C",
"Q+	c #182024",
"R+	c #182326",
"S+	c #18140A",
"T+	c #171711",
"U+	c #183649",
"V+	c #626E70",
"W+	c #353126",
"X+	c #363126",
"Y+	c #363127",
"Z+	c #353229",
"`+	c #342F23",
" @	c #332E22",
".@	c #353026",
"+@	c #332E23",
"@@	c #342F25",
"#@	c #353127",
"$@	c #35322A",
"%@	c #353128",
"&@	c #352F25",
"*@	c #353025",
"=@	c #342E23",
"-@	c #352F23",
";@	c #68777A",
">@	c #2B2A27",
",@	c #252524",
"'@	c #282826",
")@	c #272726",
"!@	c #5A5F62",
"~@	c #3E3B39",
"{@	c #778E94",
"]@	c #647074",
"^@	c #524F52",
"/@	c #3D3A38",
"(@	c #2B2926",
"_@	c #3A3432",
":@	c #5F686B",
"<@	c #514C4F",
"[@	c #555557",
"}@	c #4F494B",
"|@	c #74888D",
"1@	c #3C3635",
"2@	c #2C2A28",
"3@	c #413E3E",
"4@	c #788F95",
"5@	c #5D6568",
"6@	c #6D7E83",
"7@	c #748B8F",
"8@	c #606B6D",
"9@	c #2A2A28",
"0@	c #504B4D",
"a@	c #4E4548",
"b@	c #5C6266",
"c@	c #73888D",
"d@	c #799298",
"e@	c #575F61",
"f@	c #585F61",
"g@	c #535154",
"h@	c #60686D",
"i@	c #7A9298",
"j@	c #4A4C4C",
"k@	c #292725",
"l@	c #50494B",
"m@	c #5A5D61",
"n@	c #4D5152",
"o@	c #38322F",
"p@	c #0B0B0B",
"q@	c #090909",
"r@	c #606B6C",
"s@	c #2D2D2C",
"t@	c #262624",
"u@	c #5B6365",
"v@	c #7D989E",
"w@	c #060606",
"x@	c #3B3C3A",
"y@	c #6D8388",
"z@	c #6A8186",
"A@	c #6C8287",
"B@	c #5B696B",
"C@	c #5E6C6D",
"D@	c #5D6B6C",
"E@	c #6B7B80",
"F@	c #627378",
"G@	c #636F71",
"H@	c #5A6668",
"I@	c #535A5C",
"J@	c #535B5D",
"K@	c #575E60",
"L@	c #73898D",
"M@	c #535053",
"N@	c #65777C",
"O@	c #545B5D",
"P@	c #4B484A",
"Q@	c #565E60",
"R@	c #565D5F",
"S@	c #555658",
"T@	c #545C5E",
"U@	c #545356",
"V@	c #504E4E",
"W@	c #3C4141",
"X@	c #474C4D",
"Y@	c #4B4A4C",
"            .   . . . + @                                                                   .   . . . + @                 .     ",
". . . . . . . . . . . + @   . . . . . . . . . . . . . . . . . . . . . . . . . . . . . . . . . . . . . + @   . . . . . . . . . . ",
". . . . . . . . . . . + @   . . . . . . . . . . . . . . . . . . . . . . . . . . . . . . . . . . . . . + @   . . . . . . . . . . ",
". . . . . # $ % . . . + @   . # $ % . . . . . . . . . . . . . . . . . . . . . . . . . . . # $ % . . . + @   . # $ % . . . . . . ",
". . . . . & *   . . . + @   . & *   . . . . . . . . . . . . . . . . . . . . . . . . . . . & *   . . . + @   . & *   . . . . . . ",
". . . . . & = - . . . + @   . & = - . . . . . . . . . . . . . . . . . . . . . . . . . . . & = - . . . + @   . & = - . . . . . . ",
". . . . . ; ; . . . . + @   . ; ; . . . . . . . . . . . . . . . . . . . . . . . . . . . . ; ; . . . . + @   . ; ; . . . . . . . ",
"> > > > > > > > > > > , ' ) > > > > > > > > > > > > > > > > > > > > > > > > > > > > > > > > > > > > > , ' ) > > > > > > > > > > ",
"! ! ! ! ! ! ! ! ! ! ! ~ { ] ! ! ! ! ! ! ! ! ! ! ! ! ! ! ! ! ! ! ! ! ! ! ! ! ! ! ! ! ! ! ! ! ! ! ! ! ! ~ { ] ! ! ! ! ! ! ! ! ! ! ",
"> > > > > > > > > > > ^ / ( _ > > > > > > > > > > > > > > > > > > > > > > > > > > > > > > > > > > > > ^ / ( _ > > > > > > > > > ",
"                      : < [                                                                           : < [                     ",
"                      } | [                                                                           } | [                     ",
"                      1 2 [                                                                           1 2 [                     ",
"                      1 2 [                                                                           1 2 [                     ",
"                      1 2 [                                                                           1 2 [                     ",
"                      1 2 [                                                                           1 2 [                     ",
"                      3 2 4                                                                           3 2 4                     ",
"          5 5         6 2 7   8 %                                                         5 5         6 2 7   9                 ",
"        } | 0 0 0 0 a b c 0 0 0 0 0 0 0 0 0 0 0 0 d e f 0 0 0 0 0 0 c ' ' ' ' c c ' 0 0 0 0 0 0 0 0 0 b c 0 0 0 0 0 1 2 [       ",
"        1 2 g h i j j ' k l m n o p h p q r s q t u ' c g v w u x j y b z A B C C D j r E F 0 0 0 0 0 d + 0 0 0 0 0 1 2 [       ",
"        1 2 G H I J H K H L M N O H H H H H P Q G G R K S T U V W H G X G H R R K X G Y Z `  ...+.@.#.+.$.%.&.*.&.=.1 2 [       ",
"        1 2 K H H K K -.G ;.>.,.'.H ).!.~.H {.S ].H R K ^./.(._.H H H :._.<.K K H G -.H _.[.}.|.1.H K H H K K -.G ;.1 2 [       ",
"        1 2 K :.2.H Q G G 3.4.5.6.7./.1.{.H H _.1.:.8.K R K H H R G H 9.I P R H 0.H M H H P a.b...S K K 2.H Q G G !.3 2 4       ",
"        } | <.H H K G H H L c.d.e.f.5.{.K 8.K S H X K H :.M H !.g.X G h.i.X R j.k.R R 8.K G _.J /.H l.H H K G H H L } | [       ",
"        1 2 m.R K R G n.W o.!.p.q.r.!.H Y G K W 9.R G G G s.W J W G G H G G M t.R K u.J R G H ^.H K v.R K R G 9.P H 1 2 [       ",
"        1 2 G G H :.H w.i.G H x.O ;.y.H z.K H H G R K K R G _.W H H H Y ~.!.G X G M X X G J A.H K X G G H :.H B.C.:.1 2 [       ",
"        1 2 G D.H H H H G 8.H E.!.H H M X G H H 8.K K 8.K 8.H H H F.G...v.(.Y R X R R R :.S 9.!.H G G 9.g.H H H G R 1 2 [       ",
"        1 2 H H :.M H H :.H 1.Z W H H.^.G 9.I.:.H H M :.J.H G X M Y ..K.L.M.!.M G K K :.K 8.G {.].H H H :.K H H :.H 1 2 [       ",
"        3 2 N.H R X H H M z.m.O.P.W Q.^.H W i.X G W ~.H v.H G G o.J O.R.S.T.!.R :.H H U.V.G M g.^.K W.H 8.X M H M z.3 2 4       ",
"        6 2 H :.M G M R 0.X.Z Y.Z.`.`. +G -.-.X R W !.K K J H H Y Z P..+++@+#+G R H K :.H H :.H :.R H :.M G M R J $+6 2 7       ",
"        %+2 8.R W S M X {.&+:...|.[.*+=+-+;+X >+Y.R G X G W H H H W {.,+'+)+!+~+{+]+R G H H R 8.M K 8.X W S M X W [.%+2 ^+      ",
"        6 2 R /+W {.z.H H K R K J ..(+:._+:+M R G G M G K R K X :.H H :.<+p.[+H H }+G M M |+1.R G G R U./.{.~.H H M 6 2 1+      ",
"        2+2 M 3+^.W W H v.M K R H ^.G R v.g.G R S W ~.H 4+K H G R K G R 5+6+X g.H 7+H M G Y W M M M M 8+Y W W H v.M 2+2 9+      ",
"        0++ X K H H R :.M G X R X R R R X R H z.0.a+..S H M b+H :.K :.K ~.S H 9.:.K X :.H _./.G G M X [+H H R :.M G 0++ c+      ",
"        d++ K S W !.:.-.R X X e+f+G M K X K S D.g+h+..!.H H i+:.H H j+H H H H G X R X G H S {.H R K K S W !.:.-.R X d++ c+      ",
"        + + S k+W.m.H G G Y K R X G 9.H H Y Z |.l+m.!.R G H ~.P m+n+:.].S K H X R -.G H C.z.M H :.H !.k+W.m.^.G G g.+ + c+      ",
"        + + S 0.W.o+Y H M S K R R R G p+q+o.Z r+v.~.K X M z._.~.s+t+X :.H X R R u+g.R M K X G H X R !.0.W.P.!.H M S + + c+      ",
"        + + H z.J /.H H v+H G R k.w+8.G x+K S W Y K v.9.S (+z.:.R -.R R G X -.-.G X :.M -.G H y+K G H S J /.H H z+H + + A+      ",
"        + + H B+g.H H H H K G X G {.8.:.R 8.H H G X 3+n.^.S H H 8.G >+G -.X G :.8.R M H :.C+H H M G H <.{.H H H H K + + D+      ",
"        + + H g.X :.K -.K K R G X -.R H ].m.V J E+F+K G H H G+H+R -.:.R 8.R X H H /.G 8.K !.H {.X R M g.X :.M -.:.K + + I+      ",
"        + + :.R :.M :.G J+K+K R G G R :.].L+M+N+{.O+P+P+Q+R+P+P+@.@.-.G H G X O+P+P+S+S+S+P+P++.T+U+K R :.M :.G w+L.+ + V+      ",
"        + + W+X+Y+Z+W+W+`+ @W+W+X+W+.@+@@@#@Y+Y+Y+#@X+W+$@%@%@%@W+&@*@X+&@=@ @X+X+X+X+X+X+X+X+X+X+X+-@-@X+Y+X+X+X+X++ + ;@      ",
"        + >@0 0 0 0 ,@,@0 0 0 0 0 0 a d 0 0 0 0 0 0 0 0 c c c '@0 d a '@c )@b ,@0 0 '@c ' ' 0 0 0 0 b b 0 0 0 0 0 0 + >@        ",
"          !@%         ~@' $                                                                           1 ' {@]@                  ",
"          ^@$         /@(@$                                                                           _@' {@:@<@[@              ",
"          }@|@        1@2@$                                                                           3@' 4@5@6@$               ",
"          # #         1@2@$   [@7@8@                                                          % !@    3@9@4@]@0@a@              ",
"D+D+D+D+D+D+D+D+  D+  1@2@$   [@$ 8@                                                          !@b@c@  3@1 $     [@D+D+D+D+D+D+D+",
"d@d@d@d@d@d@d@d@e@d@f@1@2@$ 9 # [@                                                            g@h@i@  j@1 ^ f@d@e@d@d@d@d@d@d@d@",
"@ @ @ @ @ @ @ @ @ @ @ 1 k@$   0@0@                                                            [@l@m@  n@o@@ @ @ @ @ @ @ @ @ @ @ ",
"p@q@@ q@p@q@q@q@p@q@@ @ o@  8@  8@r@r@r@r@r@8@  8@  8@  8@          8@  8@r@r@r@r@r@8@  8@r@r@8@  8@  o@@ @ q@q@q@p@q@@ q@p@q@q@",
"s@+ @ t@s@+ + t@s@+ @ @ @ u@v@5 v@v@v@v@v@v@v@5 v@5 v@5 v@u@u@u@u@u@v@5 v@v@v@v@v@v@v@5 v@v@v@v@5 v@u@@ @ w@+ + t@s@+ @ t@s@+ + ",
"x@+ @ x@x@s@+ x@x@+ @ w@@ @ @ @ @ @ @ @ @ @ @ @ @ @ @ @ @ @ @ @ @ @ @ @ @ @ @ @ @ @ @ @ @ @ @ @ @ @ @ @ w@s@s@+ x@x@+ @ x@x@s@+ ",
"x@+ @ x@x@s@s@x@x@+ @ + @ @ @ @ @ @ @ @ @ @ @ @ @ @ @ @ @ @ @ @ @ @ @ @ @ @ @ @ @ @ @ @ @ @ @ @ @ @ @ @ s@x@s@s@x@x@+ @ x@x@s@s@",
"x@+ @ x@x@s@s@x@x@+ @ x@s@+ + + s@+ @ + s@+ + + s@+ @ + s@+ + + s@+ @ + s@+ + + s@+ @ + s@+ + + s@+ @ s@x@x@s@s@x@x@+ @ x@x@s@s@",
"x@s@+ x@x@s@s@x@x@s@+ x@x@s@s@x@x@+ @ x@x@s@s@x@x@+ @ x@x@s@s@x@x@+ @ x@x@s@s@x@x@+ @ x@x@s@s@x@x@+ @ x@x@x@s@s@x@x@s@+ x@x@s@s@",
"y@z@z@y@y@A@z@y@y@B@z@y@y@A@B@y@C@z@B@y@C@A@B@C@C@B@B@C@y@D@z@C@y@B@z@y@y@A@z@y@y@z@z@y@y@A@z@y@y@z@z@y@y@A@z@y@y@B@z@y@y@A@B@y@",
"E@E@E@E@E@E@E@E@F@G@E@E@E@E@G@E@G@E@G@E@G@E@G@G@G@H@G@G@E@G@E@G@E@G@E@E@E@E@E@F@E@F@E@E@E@E@E@E@F@E@F@E@E@E@E@E@F@G@E@E@E@E@G@E@",
"  I@          I@e@                            I@I@e@                          e@I@e@            e@I@e@        I@e@              ",
"J@K@  L@J@    K@      L@J@            L@J@    . K@    L@J@            L@J@    J@K@    L@J@      J@K@  L@J@    K@      L@J@      ",
"K@  M@N@.           M@N@.           M@N@.   J@K@J@  M@N@.           M@N@.     K@    M@N@.     J@K@  M@N@.           M@N@.     J@",
"O@  & P@Q@          & P@Q@          & P@Q@  Q@O@Q@  & P@Q@          & P@Q@          & P@Q@  O@.     & P@Q@          & P@Q@  O@Q@",
"R@  S@S@            S@S@            S@S@    T@R@    S@S@            S@S@T@          S@S@    . R@    S@S@            S@S@  T@R@T@",
"U@V@V@V@V@V@V@U@V@U@V@U@U@U@U@U@U@U@V@U@V@U@W@U@X@U@X@X@X@X@U@X@U@U@U@U@Y@U@U@U@V@U@V@U@U@V@Y@V@U@V@V@V@V@V@V@U@V@U@V@U@U@Y@U@Y@"};
