/* XPM */
static char * WEtest_xpm[] = {
"64 64 41 1",
" 	c #5C6567",
".	c #4B5355",
"+	c #4A3B3F",
"@	c #3F2924",
"#	c #3F2923",
"$	c #6D7F82",
"%	c #3F2823",
"&	c #809CA3",
"*	c #4A3A3E",
"=	c #62534B",
"-	c #8B6B70",
";	c #3B2C31",
">	c #AFB3B1",
",	c #BCC1BD",
"'	c #535D5E",
")	c #ACB9BA",
"!	c #4A5254",
"~	c #1E1D1B",
"{	c #1B1B19",
"]	c #495254",
"^	c #1F1F1D",
"/	c #333A3B",
"(	c #25282A",
"_	c #201F1E",
":	c #201F1D",
"<	c #1D1C1A",
"[	c #174C0E",
"}	c #33AE28",
"|	c #20201E",
"1	c #C43724",
"2	c #5B6567",
"3	c #CE6E38",
"4	c #9B353B",
"5	c #85BF37",
"6	c #22854B",
"7	c #B02C2E",
"8	c #7E2733",
"9	c #C43725",
"0	c #D03421",
"a	c #B02B2E",
"b	c #493B3F",
"               . . .            .                          . .  ",
"................................................................",
"................................................................",
"...+@@@@@@+@+@++++.....@@@@@@@@@@@@@@@+@+@+@++++++++++..........",
"...@..................#...................................#. ...",
"...@.............$...#...............................$...#.. ...",
"...@............$...%...............................$...%... ...",
"   +           &   +                               $   +    $   ",
"...@..........&...%...............................&...%..... ...",
"   +         &   +                               &   +      $   ",
"   +        &   +                   $           $   +       &   ",
"   .       &   +                   $.          &   +        $   ",
"   +      &   +                   &*=         &   +         &   ",
"   .     &   +                   &*==        &   +          &   ",
"   .    &   +                     ==        &   +           &   ",
"   .   &   .                      ===      &   .            &   ",
"   .  &   .                       ==      &   .             &   ",
"   . $                            ==     &                 $&   ",
"          $$$$$$$$$$$$&$&$&&&&&&------&&$     $$&$&&&&&&&&&&    ",
"                                 =====                          ",
"                                  ====                          ",
"                                  ====                          ",
"    +++++++++++++++++++.+.+.+.++++;;+;++++++++++++.+..          ",
"   +.                             == ==                   . $   ",
"   +                              =  =               $   .  $   ",
"   +  >,,,,,,,,,,>'  $))&&&$$.$   =  =              $   .   $   ",
"   +  ,,!~!!,{,],,.  )       ^ .  == =             $   .    $   ",
"   +  ,,,,,,,,,,,,.  ) /((_( : .  =               $   .     $   ",
"   +  ,,],<~!!,,,,.  & (([}_ ( .  == =           &   +      $   ",
"   +  >,,,,,,,,,,>.  & (||_( : .  =             &   +       &   ",
"   .  '...........'  &       ( +   =           &   +        $   ",
"   +                 $ 12123 ( .  =           &   +         &   ",
"   .  >,,,,,,>'      &       / +             &   +          &   ",
"   .  ,,<!,],,.      $ 4 5 6 / +  =         &   .           &   ",
"   .  >,,,,,,>.      $       ( +           &   .            &   ",
"   .  '.......'       ..+++++@+.  =       &   .             &   ",
"                                         &                 $&   ",
"     $$$$$$&$&$&&&&&&&&&&&&&&&&&&$&$&$&&$     $$$&$&$&&&&&&&    ",
"                                                                ",
"                                                                ",
"                                                                ",
"    ++++++.+.+....     .++++++++++++++++++++++++.+.+.......     ",
"   +.                 +                                         ",
"7778777777777777797778777777777777777777777777779977777777779777",
"7778777777777777977787777777777777777777777777798447777777779777",
"7778777777777770777877777777777777777777777777984474777777770777",
"7778777777777a07778777777777777777777777777779844777977777771777",
"   +         &   +                           b== =  $       &   ",
"=  +        &   +                            +.==  &$       $   ",
"   .       &   +                              $  &&$        &   ",
"=  +      &   +                                &&$   +.     &   ",
"   .     &   +                                      += $    &   ",
"=  .    &   +                                       . &$    &   ",
"=  .   &   .                                         $$     &  =",
"== .  &   .                                                 &   ",
"=  . $            ++...=                                   $&  =",
"==        $$$$$$$.=== = &$&&&&&&&&&&$&&&&&&&&&&&$&$&&&&&&&&&  = ",
"=                 $$$$$&                                       =",
"==     =                                                      ==",
"== =                                                      = = ==",
"++++.+.......................................+.........+.+.+..+@",
"@+++++...+...+........+.+....................++......+.++.+++.++",
"@+@@+++.++++.++.+.++++.+.+.+..............+.++@++.+.+.++.++@@++@",
"@@@@@@@+@+@+++++@@@||||@||||+|++++++++++@+@++@@@+@@@@@@+@+@+@@@@"};
